<?xml version="1.0" standalone="no"?>
<!DOCTYPE svg PUBLIC "-//W3C//DTD SVG 1.1//EN" "http://www.w3.org/Graphics/SVG/1.1/DTD/svg11.dtd" >
<svg xmlns="http://www.w3.org/2000/svg" xmlns:xlink="http://www.w3.org/1999/xlink" version="1.1">
<metadata>
Created by FontForge 20161013 at Mon Nov 28 01:13:44 2016
 By ,,,
ComicSpice by Deevad

Based on a fork of "Comic Relief"
made by David Revoy (Deevad, info@davidrevoy.com) in Nov,2016.

original font is copyrighted (c) 2013, Jeff Davis (info@loudifier.com),
with Reserved Font Name "Comic Relief". Also, some accent from the font
"Patrick Hand" by Patrick Wagesreiter, same license were used for 
latin-extended. 

This Font Software is licensed under the SIL Open Font License, Version 1.1.
This license is copied below, and is also available with a FAQ at:
http://scripts.sil.org/OFL



</metadata>
<defs>
<font id="ComicSpice" horiz-adv-x="1178" >
  <font-face 
    font-family="ComicSpice"
    font-weight="400"
    font-stretch="normal"
    units-per-em="2048"
    panose-1="3 15 7 2 3 3 2 2 2 4"
    ascent="1638"
    descent="-410"
    x-height="1027"
    cap-height="1569"
    bbox="-244.333 -647 2276.4 2257"
    underline-thickness="175"
    underline-position="-707"
    unicode-range="U+0020-FB02"
  />
<missing-glyph horiz-adv-x="549" 
d="M44 0v1365h397v-1365h-397zM112 68h261v1229h-261v-1229z" />
    <glyph glyph-name=".notdef" horiz-adv-x="549" 
d="M44 0v1365h397v-1365h-397zM112 68h261v1229h-261v-1229z" />
    <glyph glyph-name="glyph1" horiz-adv-x="709" 
d="M500 1049q103 0 101 -110l-17 -1170v-7q0 -365 -267 -365h-16q-207 10 -303 231q-43 98 -43 158q0 69 58 85q25 7 46 7q90 0 116 -127q28 -138 128 -138q74 0 77 156l22 1170q2 110 98 110z" />
    <glyph glyph-name="glyph2" horiz-adv-x="1080" 
d="M219 735l577 2q151 0 152 -76q0 -77 -144 -77h-596q-106 0 -106 74q0 77 117 77z" />
    <glyph glyph-name="space" unicode=" " horiz-adv-x="391" 
 />
    <glyph glyph-name="exclam" unicode="!" horiz-adv-x="434" 
d="M162 181q15 4 31 3q17 0 33 -4q31 -9 54 -32q27 -25 33 -55q3 -16 4 -33q0 -20 -3 -31q-10 -37 -37 -62q-28 -25 -67 -30q-8 -1 -17 -2q-29 0 -54 13q-34 16 -53 49q-17 29 -17 63q0 25 9 48q11 27 34 46q20 19 50 27zM203 1606q89 0 89 -90l-1 -1122q0 -80 -91 -80h-4
q-81 -2 -81 86l-1 1118v2q-1 88 85 86h4z" />
    <glyph glyph-name="quotedbl" unicode="&#x22;" horiz-adv-x="798" 
d="M176 1588q88 -5 88 -99v-6l-13 -455q-3 -96 -84 -96h-2q-91 1 -91 92v6l14 447q4 111 84 111h4zM556 1584q88 -5 88 -99v-6l-13 -455q-3 -96 -84 -96h-2q-91 1 -91 92v6l14 447q4 111 84 111h4z" />
    <glyph glyph-name="numbersign" unicode="#" horiz-adv-x="1289" 
d="M115 1092q2 75 136 75h183l56 301q22 113 73 86q57 -30 33 -160l-43 -226h318l57 300q21 113 72 86q76 -30 38 -160l-48 -225h164q118 0 115 -84q-4 -95 -139 -95h-174l-78 -415h179q118 0 115 -84q-4 -95 -139 -95q-96 0 -189 1l-57 -299q-17 -90 -77 -59
q-46 23 -22 151l39 207l-320 1l-57 -300q-17 -90 -77 -59q-66 23 -29 151l46 209h-181q-94 0 -91 99q2 75 136 75h169l78 419l-195 1q-94 0 -91 99zM440 574h320l78 417l-318 1z" />
    <glyph glyph-name="dollar" unicode="$" horiz-adv-x="1172" 
d="M550 1715q86 1 86 -77l1 -161h8q100 0 256 -83q64 -29 64 -99q0 -41 -59 -66q-52 -20 -125 12q-80 49 -144 49v-463l40 -4q166 -24 248 -109q126 -130 117 -291q-14 -248 -256 -391q-64 -59 -149 -81v-198q0 -114 -87 -114q-84 1 -85 115q0 91 -1 182h-1q-115 -1 -205 49
q-80 33 -136 82q-84 73 -72 150q10 67 60 88q65 27 146 -60q53 -65 103 -94q52 -29 105 -31l-2 515q-252 5 -318 274q-38 155 50 308q64 111 190 194q37 27 77 43v184q0 76 89 77zM637 631v-487q81 32 115 83q110 129 72 268q-31 115 -187 136zM462 837v425q-39 -20 -66 -53
q-60 -73 -67 -164q-11 -179 92 -204z" />
    <glyph glyph-name="percent" unicode="%" horiz-adv-x="1524" 
d="M1114 1609q44 -35 25 -100l-659 -1541q-38 -82 -119.5 -45.5t-43.5 117.5l727 1542q22 65 70 27zM297 1621q48 17 100 17q27 0 52 -5q81 -15 140 -65q61 -52 87 -125q18 -49 18 -102q0 -25 -5 -50q-14 -81 -67 -142q-53 -62 -130 -88q-46 -16 -96 -16q-31 0 -61 6
q-80 17 -140 72q-58 53 -81 127q-14 44 -15 92q0 30 6 59q16 79 67 135q53 59 125 85zM399 1192q42 0 77 22q36 22 56 58q18 34 18 72v6q-2 44 -25 77q-15 24 -41 42q-25 17 -54 23q-15 4 -32 4q-45 0 -82 -24q-43 -27 -61 -75q-10 -26 -9 -53q0 -22 6 -43q14 -49 55 -79
t91 -30h1zM1086 617q35 19 72 19q19 0 38 -6q58 -16 115 -72q68 -59 97 -141q20 -55 20 -114q0 -28 -4 -56q-16 -91 -75 -159q-59 -69 -123 -99q-33 -18 -69 -18q-22 0 -43 7q-58 19 -121 80q-65 59 -92 143q-16 50 -16 103q0 34 7 66q18 89 75 151q59 67 119 96zM1159 136
q30 0 56 24t40 65q12 38 12 81v7q-1 49 -17 86q-11 27 -30 47q-17 19 -38 26q-11 4 -23 4q-33 0 -59 -27q-31 -31 -44 -84q-7 -29 -7 -59q0 -25 5 -48q10 -55 39.5 -89t65.5 -33v0z" />
    <glyph glyph-name="ampersand" unicode="&#x26;" horiz-adv-x="1063" 
d="M975 41q37 -76 -29 -117q-75 -46 -127 36l-147 295l-64 -123q-89 -173 -210 -170q-210 5 -308 222q-94 209 86 412l227 319l-41 99q-125 250 -42 404q65 169 229 154q134 -12 165 -190q28 -166 -73 -346l-85 -150l121 -304l74 142q68 87 150 28q83 -60 6 -156l-156 -193z
M487 1063l69 121q57 100 36 152q-24 56 -72 52q-71 -6 -87 -76q-17 -72 22 -168zM474 739l-87 -155q-121 -191 -105 -272q23 -138 116 -148q67 -7 149 156l53 108z" />
    <glyph glyph-name="quotesingle" unicode="'" horiz-adv-x="666" 
d="M274 1659q92 3 92 -106v-309q0 -103 -85 -103q-89 -1 -91 102l-6 308q-2 104 90 108z" />
    <glyph glyph-name="parenleft" unicode="(" horiz-adv-x="724" 
d="M538 -214q184 -124 78 -206q-74 -56 -234 90q-159 145 -226 352q-95 296 -84 608q10 269 126 536q82 194 198 318q160 168 230 94q76 -80 -106 -246q-148 -136 -212 -442q-54 -260 -22 -528q53 -442 252 -576z" />
    <glyph glyph-name="parenright" unicode=")" horiz-adv-x="726" 
d="M191 -214q199 134 252 576q32 268 -22 528q-64 306 -212 442q-182 166 -106 246q70 74 230 -94q116 -124 198 -318q116 -267 126 -536q11 -312 -84 -608q-67 -207 -226 -352q-160 -146 -234 -90q-106 82 78 206z" />
    <glyph glyph-name="asterisk" unicode="*" horiz-adv-x="891" 
d="M408 1593q56 -2 56 -93v-229l174 76q98 35 127 -50q30 -81 -61 -114l-195 -76l147 -158q64 -65 -3 -128q-64 -60 -127 5l-121 193l-117 -186q-72 -74 -135 -10q-62 60 6 130l143 154l-199 75q-85 31 -52 116q32 82 117 51l182 -80v235q-1 91 58 89z" />
    <glyph glyph-name="plus" unicode="+" horiz-adv-x="888" 
d="M423 1045q86 -1 86 -102v-206l187 1q100 0 100 -89q0 -86 -101 -87q-105 -1 -186 -2v-241q0 -90 -90 -88q-91 1 -90 92q1 117 2 235q-90 -1 -209 -2q-90 -1 -88 89q0 91 91 91l207 1q1 104 1 208q0 101 90 100z" />
    <glyph glyph-name="comma" unicode="," horiz-adv-x="320" 
d="M117 138q70 -36 34 -113l-130 -281q-44 -97 -108 -69q-68 31 -34 119l116 292q38 96 122 52z" />
    <glyph glyph-name="hyphen" unicode="-" horiz-adv-x="814" 
d="M144 620l480 2q94 0 94 -76q0 -78 -89 -78l-491 1q-66 0 -66 74q0 77 72 77z" />
    <glyph glyph-name="period" unicode="." horiz-adv-x="461" 
d="M213 156h4q34 0 63 -17q31 -18 47 -50q14 -27 14 -58v-10q-3 -36 -25 -65q-20 -26 -44 -37q-25 -13 -56 -12h-6q-31 1 -57 17q-27 16 -44 44q-17 29 -17 63q0 32 16 60q17 29 43 47q28 18 62 18z" />
    <glyph glyph-name="slash" unicode="/" horiz-adv-x="873" 
d="M754 1609q69 -35 39 -100l-565 -1541q-38 -83 -119 -47q-82 36 -44 119l583 1542q31 65 106 27z" />
    <glyph glyph-name="zero" unicode="0" horiz-adv-x="963" 
d="M485 1328q-248 0 -248 -580q0 -612 229 -612q230 0 230 627q0 565 -211 565zM483 1517q417 0 417 -757q0 -810 -434 -810q-427 0 -427 795q0 772 444 772z" />
    <glyph glyph-name="one" unicode="1" horiz-adv-x="874" 
d="M545 1406l-6 -1271h109q103 0 103 -93q0 -90 -100 -90h-454q-90 0 -90 84q1 100 100 100h149l2 1061l-74 -70q-95 -91 -160 -3q-52 70 19 137l199 187q81 76 149 60q55 -12 54 -102z" />
    <glyph glyph-name="two" unicode="2" horiz-adv-x="1028" 
d="M106 90q6 202 149 412q120 193 289 321q121 83 126 302q3 124 -85 183q-72 57 -150 18q-46 -24 -135 -154q-82 -94 -158 -30q-70 56 -14 124q115 141 197 189q76 63 181 63q98 0 171 -56q195 -122 190 -354q-7 -312 -248 -426q-146 -104 -223 -279q-87 -166 -94 -263
q220 -1 473 -2q107 0 106 -92q-1 -96 -105 -95h-572q-103 0 -98 139z" />
    <glyph glyph-name="three" unicode="3" horiz-adv-x="1023" 
d="M344 810q2 58 40 84q28 19 156 68q127 43 113 193q-15 162 -166 180q-66 8 -117 -48q-98 -82 -148 -76q-69 8 -74 78q-6 86 92 144q145 101 232 92q198 -18 289 -153q155 -229 15 -435q-51 -75 -164 -121q25 -6 109 -60q181 -115 141 -421q-40 -301 -317 -367
q-172 -55 -327 71q-120 88 -123 186q-3 93 78 102q43 4 144 -119q54 -88 185 -58q182 37 168 260q-15 256 -221 308q-105 14 -105 92z" />
    <glyph glyph-name="four" unicode="4" horiz-adv-x="1052" 
d="M524 1423q44 93 147 92q102 -1 102 -106v-797h80q141 0 144 -100q2 -98 -139 -98h-85v-358q0 -107 -92 -106q-96 1 -96 108q-1 178 -1 356l-459 -1q-94 0 -94 91q0 50 35 98zM584 611q0 284 1 626l-273 -627z" />
    <glyph glyph-name="five" unicode="5" horiz-adv-x="1016" 
d="M242 1500l512 4q107 1 108 -92q1 -100 -102 -100h-423l-33 -387q109 123 215 123q406 -1 398 -492q-11 -646 -508 -616q-191 11 -303 194q-52 85 -2 128q90 78 151 -1q91 -134 178 -134q256 -1 289 426q24 302 -203 300q-99 -1 -161 -105q-111 -125 -189 -123
q-83 3 -72 129l61 688q14 58 84 58z" />
    <glyph glyph-name="six" unicode="6" horiz-adv-x="976" 
d="M264 1175q93 209 241 327q76 61 102 -46q13 -62 -61 -135q-76 -74 -129 -159q-60 -96 -113 -278q44 67 172 67q369 1 369 -493q0 -507 -411 -511q-332 -4 -350 471q-18 468 180 757zM461 749q-193 0 -193 -312q0 -314 164 -314q221 0 221 326q0 300 -192 300z" />
    <glyph glyph-name="seven" unicode="7" horiz-adv-x="999" 
d="M46 1413q0 96 129 96l641 3q132 0 138 -90q2 -40 -15 -65q-2 -3 -4 -7l-532 -1326q-43 -129 -102 -73q-87 55 -28 165l418 1201h-519q-126 0 -126 96z" />
    <glyph glyph-name="eight" unicode="8" horiz-adv-x="1002" 
d="M486 1514q326 0 326 -396q0 -236 -193 -317q265 -82 265 -409q0 -436 -408 -436q-397 0 -397 390q0 350 248 446q-200 74 -200 320q0 402 359 402zM634 1121q-2 208 -144 210q-174 2 -165 -243q3 -164 147 -194q165 54 162 227zM274 364q21 -256 233 -241q167 12 168 269
q2 229 -199 325q-220 -127 -202 -353z" />
    <glyph glyph-name="nine" unicode="9" horiz-adv-x="1016" 
d="M664 583q-62 -64 -199 -64q-384 0 -384 465q0 543 430 531q388 -11 386 -603q-1 -246 -65 -421q-146 -397 -476 -534q-104 -33 -135 57q-33 97 68 121q150 52 238 162q72 91 137 286zM487 712q245 14 222 283q-27 326 -201 336q-245 14 -244 -346q1 -286 223 -273z" />
    <glyph glyph-name="colon" unicode=":" horiz-adv-x="391" 
d="M245 1115h4q34 0 63 -17q31 -18 47 -50q14 -27 14 -58v-10q-3 -36 -25 -65q-20 -26 -44 -37q-25 -13 -56 -12h-6q-31 1 -57 17q-27 16 -44 44q-17 29 -17 63q0 32 16 60q17 29 43 47q28 18 62 18zM241 156h4q34 0 63 -17q31 -18 47 -50q14 -27 14 -58v-10q-3 -36 -25 -65
q-20 -26 -44 -37q-25 -13 -56 -12h-6q-31 1 -57 17q-27 16 -44 44q-17 29 -17 63q0 32 16 60q17 29 43 47q28 18 62 18z" />
    <glyph glyph-name="semicolon" unicode=";" horiz-adv-x="249" 
d="M5 138q70 -36 34 -113l-130 -281q-44 -97 -108 -69q-68 31 -34 119l116 292q38 96 122 52zM233 1116h4q34 0 63 -17q31 -18 47 -50q14 -27 14 -58v-10q-3 -36 -25 -65q-20 -26 -44 -37q-25 -13 -56 -12h-6q-31 1 -57 17q-27 16 -44 44q-17 29 -17 63q0 32 16 60
q17 29 43 47q28 18 62 18z" />
    <glyph glyph-name="semicolon" unicode="&#x37e;" horiz-adv-x="249" 
d="M5 138q70 -36 34 -113l-130 -281q-44 -97 -108 -69q-68 31 -34 119l116 292q38 96 122 52zM233 1116h4q34 0 63 -17q31 -18 47 -50q14 -27 14 -58v-10q-3 -36 -25 -65q-20 -26 -44 -37q-25 -13 -56 -12h-6q-31 1 -57 17q-27 16 -44 44q-17 29 -17 63q0 32 16 60
q17 29 43 47q28 18 62 18z" />
    <glyph glyph-name="less" unicode="&#x3c;" horiz-adv-x="721" 
d="M62 695l382 332q86 75 148 -3q52 -66 -35 -140l-313 -266l325 -270q67 -56 5 -126q-54 -61 -122 -6l-383 309q-56 45 -56 80q1 48 49 90z" />
    <glyph glyph-name="equal" unicode="=" horiz-adv-x="874" 
d="M154 998l473 2q114 0 114 -90q0 -92 -109 -92l-487 1q-79 0 -79 87q0 92 88 92zM145 456l473 2q113 0 114 -90q0 -92 -108 -92l-487 1q-79 0 -79 87q0 92 87 92z" />
    <glyph glyph-name="greater" unicode="&#x3e;" horiz-adv-x="752" 
d="M625 723q48 -42 49 -90q0 -35 -56 -80l-383 -309q-68 -55 -122 6q-63 71 5 126l325 270l-313 266q-87 74 -35 140q62 78 148 3z" />
    <glyph glyph-name="question" unicode="?" horiz-adv-x="951" 
d="M320 176q15 4 31 3q17 0 33 -4q31 -9 54 -32q27 -25 33 -55q2 -16 3 -33q0 -20 -2 -31q-10 -37 -37 -62q-28 -25 -67 -30q-8 -1 -17 -2q-29 0 -54 13q-34 16 -53 49q-17 29 -17 63q0 25 9 48q11 27 34 46q20 19 50 27zM100 1339q118 133 376 138q290 7 336 -321
q56 -386 -210 -459q-130 -51 -130 -135q-4 -199 -94 -204q-136 -7 -108 222q25 207 220 271q156 63 115 269q-27 135 -124 153q-133 17 -213 -54q-124 -111 -178 -69q-92 72 10 189z" />
    <glyph glyph-name="at" unicode="@" horiz-adv-x="1537" 
d="M1022 626q14 -37 53 -28q59 13 98 107q23 56 23 186q0 97 -21 179q-19 80 -62 156q-41 70 -96 116q-147 84 -289 84q-21 0 -41 -3q-120 -15 -240 -114q-53 -48 -84 -117q-55 -127 -77 -297q-11 -90 -12 -178q-1 -74 8 -143q23 -185 99 -318q112 -138 254 -186
q49 -20 100 -20q53 0 143 29q50 14 158 66q77 50 104 -35q30 -91 -40 -149q-75 -62 -280 -98q-13 -3 -99 -3q-68 0 -173 57q-119 46 -197 129q-146 151 -238 399q-40 108 -40 316q0 48 4 95q14 152 74 291q60 143 147 243q83 133 253 204q63 33 180 33q24 0 47 -3
q142 -13 246 -63q73 -49 138 -135q145 -136 209 -324q36 -104 35 -214q0 -111 -36 -212q-42 -118 -113 -214q-62 -84 -168 -114q-57 -16 -117 42q-19 15 -36 36q-74 -65 -169 -80q-356 -59 -366 318q-7 472 350 531q48 10 97 -10q21 34 71 34q91 0 87 -73q-21 -269 16 -520z
M731 999q-156 -25 -156 -311q0 -168 106 -177q96 -8 161 83q-38 247 -29 400q-41 13 -82 5z" />
    <glyph glyph-name="A" unicode="A" 
d="M657 1363l368 -1241q39 -133 -50 -166q-85 -32 -144 110l-89 214l-380 -10l-65 -204q-44 -139 -144 -110q-91 27 -50 166l368 1241q49 166 93 166t93 -166zM559 1100l-162 -645l310 8z" />
    <glyph glyph-name="B" unicode="B" horiz-adv-x="1053" 
d="M346 1331l-10 -604q180 -34 273 182q62 145 23 267q-46 145 -196 152q-45 2 -90 3zM251 1528q23 0 41 -5q50 10 173 -8q243 -36 340 -301q106 -289 -109 -532q-20 -23 -38 -44q54 -20 82 -41q239 -177 160 -387q-58 -155 -289 -233q-126 -42 -381 -42l-18 -1
q-89 -5 -87 109l33 1392q3 93 93 93zM328 530l-5 -406q67 -8 129 3q64 12 154 59q106 55 117 153q4 37 -79 111q-69 62 -161 75q-97 13 -155 5z" />
    <glyph glyph-name="C" unicode="C" horiz-adv-x="1019" 
d="M466 1244q-61 -63 -108 -188q-52 -141 -52 -383q0 -223 61 -369q48 -115 130 -121q115 -9 178 55q129 91 185 79q97 -18 82 -153q-8 -76 -201 -155q-117 -66 -235 -59q-155 8 -273 198q-146 192 -145 501q0 369 134 560q156 276 295 311q133 33 273 -52q127 -65 131 -122
q4 -73 -35 -111q-71 -66 -146 -14q-59 47 -116 68q-85 30 -158 -45z" />
    <glyph glyph-name="D" unicode="D" horiz-adv-x="1174" 
d="M244 1525q24 0 44 -5q12 -1 24 -3q240 -41 415 -274q346 -333 323 -704q-15 -271 -271 -487q-80 -100 -314 -105q-137 -3 -224 2q-15 -3 -35 -3q-91 2 -88 105l34 1385q2 89 92 89zM343 1290l-26 -1152l140 -3q215 8 281 120q101 151 110 294q17 249 -202 532
q-134 195 -303 209z" />
    <glyph glyph-name="E" unicode="E" horiz-adv-x="1036" 
d="M293 1501l490 4q141 1 144 -115q3 -91 -138 -92q-250 -2 -461 -4l-8 -606l354 3q136 1 141 -114q3 -92 -137 -93l-361 -3l-12 -314l416 3q141 1 144 -114q3 -92 -138 -93l-496 -4q-12 2 -22 2h-16q-90 2 -87 102l33 1353q2 87 94 86q18 0 37 -3q6 -1 23 2z" />
    <glyph glyph-name="F" unicode="F" horiz-adv-x="1015" 
d="M236 1501q21 0 38 -4q9 2 22 2l491 4q141 1 144 -114q3 -92 -138 -93q-250 -2 -462 -4l-9 -541l354 3q137 1 141 -115q3 -91 -137 -92l-361 -3l-12 -485q-3 -102 -109 -100q-90 2 -88 102l34 1353q2 87 92 87z" />
    <glyph glyph-name="G" unicode="G" horiz-adv-x="1088" 
d="M682 276q73 99 94 279l-245 -4q-80 -1 -82 107q-2 99 93 101l394 8q95 1 87 -99q-30 -381 -224 -557q-136 -169 -335 -160q-153 7 -269 199q-147 192 -146 500q0 368 152 592q116 222 274 266q161 42 270 -56q158 -100 184 -190q26 -91 -36 -135q-68 -48 -167 73
q-58 97 -161 104q-63 4 -135 -54q-76 -61 -121 -193q-53 -152 -53 -383q0 -252 58 -369q66 -134 148 -141q137 -12 220 112z" />
    <glyph glyph-name="H" unicode="H" horiz-adv-x="1207" 
d="M229 1513q98 0 97 -93l-9 -580h553l12 584q2 86 92 88q104 0 102 -93l-27 -1364q-1 -103 -109 -101q-90 2 -88 103l14 574h-559l-8 -575q-2 -103 -110 -102q-90 2 -87 103l33 1368q2 86 94 88z" />
    <glyph glyph-name="I" unicode="I" horiz-adv-x="985" 
d="M192 1494h616q121 0 123 -108q2 -99 -129 -99h-234l-18 -1122h244q121 0 123 -108q2 -99 -129 -99h-619q-126 0 -126 113q0 95 135 94h176l29 1122h-200q-126 0 -126 112q0 95 135 95z" />
    <glyph glyph-name="J" unicode="J" horiz-adv-x="1340" 
d="M428 1498h729q121 0 123 -103q2 -95 -129 -94h-234v-998q0 -379 -372 -361q-511 24 -480 458q6 88 104 89q97 -1 97 -94q0 -255 276 -255q171 0 171 157v1004h-294q-126 0 -126 107q0 90 135 90z" />
    <glyph glyph-name="K" unicode="K" horiz-adv-x="1034" 
d="M263 1521q99 0 97 -94l-9 -584l370 611q79 85 154 12q74 -73 2 -147l-444 -620l470 -526q93 -78 28 -143q-68 -68 -164 11l-426 517l-8 -513q-2 -104 -110 -102q-90 2 -87 104l33 1385q2 87 94 89z" />
    <glyph glyph-name="L" unicode="L" horiz-adv-x="1012" 
d="M171 -44q-90 -1 -87 105l33 1385q2 87 94 89q98 0 96 -95l-24 -1278l575 15q99 2 99 -103q0 -104 -96 -105l-669 -13h-21z" />
    <glyph glyph-name="M" unicode="M" horiz-adv-x="1358" 
d="M639 -19q-59 6 -83 163l-137 856l-141 -935q-34 -157 -140 -97q-94 53 -58 209l254 1178q21 135 80 149q60 14 77 -94l156 -1027l191 977q33 166 97 163q59 -2 82 -170l248 -1250q30 -143 -78 -156q-115 -14 -149 160l-114 906l-188 -857q-39 -182 -97 -175z" />
    <glyph glyph-name="N" unicode="N" horiz-adv-x="1245" 
d="M928 331l28 1115q2 86 93 87q104 1 102 -93l-31 -1351q-2 -103 -110 -100q-144 3 -181 72l-534 984l-15 -987q-1 -102 -109 -100q-90 2 -88 102l34 1355q2 85 92 87q62 1 79 -29z" />
    <glyph glyph-name="O" unicode="O" horiz-adv-x="1231" 
d="M687 1313q-143 15 -248 -143q-155 -234 -155 -595q0 -182 71 -297q83 -135 224 -135q137 0 215 147q142 265 144 588q6 408 -251 435zM679 1512q461 -7 460 -633q-1 -404 -228 -694q-131 -248 -332 -248q-208 0 -361 223q-144 159 -144 413q0 397 242 701
q134 242 363 238z" />
    <glyph glyph-name="P" unicode="P" horiz-adv-x="967" 
d="M277 1518q23 0 41 -4q117 14 185 4q264 -35 361 -286q98 -255 -84 -484q-107 -133 -388 -156q-20 -2 -36 1l-8 -535q-2 -104 -110 -102q-90 2 -88 104l34 1370q2 88 93 88zM372 1317l-8 -535q227 -37 283 115q83 149 15 280q-56 152 -200 150q-38 -1 -90 -10z" />
    <glyph glyph-name="Q" unicode="Q" horiz-adv-x="1344" 
d="M703 1505q461 -7 460 -619q-1 -380 -228 -679q-11 -21 -23 -39l130 -150q100 -95 39 -161q-73 -79 -154 14l-119 172q-92 -78 -205 -78q-207 0 -362 221q-144 155 -144 401q0 388 243 685q134 237 363 233zM710 1310q-143 15 -247 -140q-156 -231 -156 -581
q0 -178 71 -291q84 -132 225 -132q56 0 102 25l-93 134q-69 99 0 179q43 49 110 -52l95 -143l1 1q141 259 144 575q6 399 -252 425z" />
    <glyph glyph-name="R" unicode="R" horiz-adv-x="1030" 
d="M848 20q-78 -43 -181 72l-323 360q-10 -1 -21 -2q-20 -2 -36 1l-6 -404q-1 -104 -110 -102q-90 2 -88 104l34 1375q2 88 93 88q23 0 41 -4q92 11 172 1q225 -26 326 -291q130 -343 -88 -616q-65 -81 -159 -116l361 -288q127 -102 -15 -178zM305 1317l-10 -677
q218 -36 287 121q93 209 13 418q-50 132 -201 135q-44 1 -89 3z" />
    <glyph glyph-name="S" unicode="S" horiz-adv-x="1132" 
d="M239 1238q63 106 189 196q98 70 199 64q74 -5 166 -51q146 -72 149 -126q3 -51 -54 -79q-45 -22 -125 20q-102 53 -159 48q-106 -10 -164 -80q-61 -75 -66 -164q-14 -285 93 -309q51 -11 193 -17q147 -7 232 -95q120 -125 116 -186q-15 -253 -239 -406q-139 -95 -261 -96
q-103 -1 -205 49q-96 47 -136 82q-80 71 -72 131q9 66 60 81q61 17 142 -59q66 -62 119 -82q83 -30 152 -11q115 32 167 100q78 105 63 181q-25 128 -272 122q-274 -6 -336 274q-53 241 49 413z" />
    <glyph glyph-name="T" unicode="T" horiz-adv-x="1175" 
d="M210 1500h843q130 0 132 -98q2 -92 -132 -92l-311 -1l-19 -1259q-2 -102 -109 -100q-89 2 -88 102l25 1256q-156 -1 -350 -1q-126 0 -126 105q0 88 135 88z" />
    <glyph glyph-name="U" unicode="U" horiz-adv-x="1168" 
d="M-645 1999zM936 1485q110 -2 105 -174l-15 -567q-21 -785 -463 -784q-466 1 -461 802l3 537q1 199 102 199q99 -1 98 -174l-2 -547q-4 -645 263 -638q248 6 256 626l12 567q3 155 102 153z" />
    <glyph glyph-name="V" unicode="V" horiz-adv-x="1075" 
d="M488 -41q-49 29 -79 184l-291 1117q-74 252 75 252q72 0 93 -70l220 -1118l221 1118q20 70 92 70q150 0 76 -252l-291 -1117q-30 -159 -80 -184q-18 -9 -36 0z" />
    <glyph glyph-name="W" unicode="W" horiz-adv-x="1583" 
d="M1008 -55q-51 31 -80 186l-164 879l-164 -878q-30 -164 -80 -186q-17 -8 -35 0q-50 23 -80 186l-291 1131q-74 255 75 256q72 0 93 -72l221 -1132l201 1132q13 71 59 72q49 0 61 -73l201 -1132l221 1132q22 71 94 72q148 0 74 -256l-291 -1131q-31 -164 -80 -186
q-18 -8 -35 0z" />
    <glyph glyph-name="X" unicode="X" horiz-adv-x="1155" 
d="M157 1498q81 47 173 -90l235 -481l235 481q92 137 173 90q105 -61 33 -154l-357 -589l393 -642q59 -77 -12 -131q-90 -68 -150 8l-315 596l-315 -596q-60 -77 -150 -8q-71 54 -12 131l393 642l-357 589q-72 93 33 154z" />
    <glyph glyph-name="Y" unicode="Y" horiz-adv-x="1017" 
d="M905 1496q86 -46 48 -126l-484 -1323q-40 -134 -111 -77q-52 39 -2 200l102 330l-422 858q-49 79 30 133q86 59 150 -45l308 -735l243 730q50 103 138 55z" />
    <glyph glyph-name="Z" unicode="Z" horiz-adv-x="1114" 
d="M992 1242l-646 -1073l592 -3q124 0 123 -113q0 -106 -124 -105l-756 6q-122 1 -122 105q0 57 41 106l671 1120l-590 5q-122 1 -122 105q0 111 116 111l763 -4q124 0 123 -113q0 -66 -69 -147z" />
    <glyph glyph-name="bracketleft" unicode="[" horiz-adv-x="738" 
d="M515 1518q86 1 86 -99q0 -95 -109 -95l-178 -1l-21 -1548q127 1 254 3q91 1 91 -100q0 -93 -109 -93q-8 0 -318 1q-100 1 -99 127l12 1680q1 122 99 123z" />
    <glyph glyph-name="backslash" unicode="\" horiz-adv-x="937" 
d="M130 1609q75 38 106 -27l582 -1542q39 -82 -43 -118q-83 -37 -120 46l-564 1541q-30 65 39 100z" />
    <glyph glyph-name="bracketright" unicode="]" horiz-adv-x="739" 
d="M237 1518l292 -2q98 0 99 -123l12 -1680q1 -125 -99 -127q-316 -5 -318 -3q-109 -1 -109 95q0 101 91 100q127 -1 254 -3l-21 1548l-178 1q-109 0 -109 95q0 100 86 99z" />
    <glyph glyph-name="asciicircum" unicode="^" horiz-adv-x="1004" 
d="M480 1647q28 1 56 -48l252 -306q70 -77 20 -129q-76 -80 -146 -3l-182 262l-180 -262q-70 -77 -148 3q-48 52 22 129l250 306q29 49 56 48z" />
    <glyph glyph-name="underscore" unicode="_" horiz-adv-x="987" 
d="M1024 -160v-185h-1046v185h1046z" />
    <glyph glyph-name="grave" unicode="`" horiz-adv-x="929" 
d="M135 1636q74 60 131 -11l208 -260q81 -102 28 -155q-56 -56 -144 40l-237 260q-61 67 14 126z" />
    <glyph glyph-name="a" unicode="a" horiz-adv-x="836" 
d="M573 45q-159 -105 -214 -105q-171 -2 -257 48q-87 50 -114 184q-17 80 -15 145q19 135 63 195q97 132 288 183q92 24 162 -9q4 53 8 107l-40 62l-92 16q-21 0 -124 -40q-139 -54 -153 -9q-35 107 35 143q85 43 184 64q235 51 302 -50l48 -80l22 -124l-10 -154
q-11 -91 24 -262q25 -126 52 -252q42 -78 34 -121.5t-77 -50.5q-107 -16 -126 110zM343 117q72 -3 133 62q6 7 20 25q17 21 18 22q0 35 -34 242q6 25 -39 47l-14 7q-78 27 -166 -20q-38 -19 -59 -47q-67 -91 -64 -172q0 -7 2 -20q1 -14 2 -19q11 -87 70 -110q26 -11 74 -14
q43 -3 57 -3z" />
    <glyph glyph-name="b" unicode="b" horiz-adv-x="982" 
d="M214 1610q94 0 93 -99l-7 -551q17 17 36 34q57 51 134 51q138 0 271 -171q153 -178 138 -447q-11 -202 -156 -345q-119 -131 -228 -132q-111 -1 -211 100q-8 -95 -108 -93q-90 2 -88 109l34 1451q2 93 92 93zM495 145q87 18 129 105q74 108 77 225q4 172 -79 270
q-47 80 -115 106q-105 39 -211 -122l-6 -458q123 -143 205 -126z" />
    <glyph glyph-name="c" unicode="c" horiz-adv-x="838" 
d="M620 211q88 59 144 -35q33 -56 -52 -131q-110 -94 -288 -93q-119 1 -207 120q-153 148 -153 371q0 246 109 403q110 191 240 206q76 9 153 -23q121 -41 161 -103q61 -96 -7 -145q-47 -34 -144 38q-92 87 -187 40q-53 -26 -96 -122q-49 -110 -51 -252q-3 -134 50 -245
q48 -99 132 -104q87 -5 196 75z" />
    <glyph glyph-name="d" unicode="d" horiz-adv-x="945" 
d="M749 1610q104 0 102 -99l-31 -1447q-1 -109 -109 -107q-80 2 -85 86q-95 -94 -203 -93q-110 1 -203 132q-148 148 -156 345q-9 266 138 447q103 171 246 171q77 0 135 -51l60 -54l14 577q2 91 92 93zM627 269q11 208 11 441q-117 183 -227 141q-80 -31 -116 -100
q-51 -99 -53 -276q-2 -114 53 -225q43 -90 128 -105q90 -16 204 124z" />
    <glyph glyph-name="e" unicode="e" horiz-adv-x="833" 
d="M195 361q3 -79 38 -126q72 -99 162 -98q127 2 194 80q63 74 110 84q48 10 68 -30q47 -93 -44 -174q-162 -144 -336 -140q-94 2 -214 120q-162 160 -162 317q0 285 99 446q125 203 253 215q140 13 269 -139q129 -153 125 -327q-4 -117 -111 -138zM211 561l385 65
q-15 118 -96 194q-76 72 -119 55q-89 -34 -134 -131q-36 -76 -36 -183z" />
    <glyph glyph-name="f" unicode="f" horiz-adv-x="940" 
d="M55 946q1 99 119 99h147q5 296 103 436q77 111 238 118q213 7 193 -105q-17 -96 -137 -85q-158 18 -187 -144q-18 -94 -17 -220h175q133 0 139 -90q7 -108 -126 -108h-191l-10 -793q-1 -109 -110 -107q-84 2 -83 109l8 791h-154q-108 0 -107 99z" />
    <glyph glyph-name="g" unicode="g" horiz-adv-x="849" 
d="M569 600q16 93 12 121q-5 127 -115 128q-83 0 -152 -67q-81 -75 -105 -309q-28 -266 122 -283q139 -18 192 166q13 34 46 244zM703 933q83 -16 80 -136l-19 -831q-13 -577 -485 -531q-167 16 -224 43q-71 34 -54 112q19 86 113 64q172 -42 332 -3q86 21 108 303l12 153
q-55 -138 -256 -115q-404 47 -280 628q83 392 385 433q204 28 265 -118q10 0 23 -2z" />
    <glyph glyph-name="h" unicode="h" horiz-adv-x="948" 
d="M221 1611q92 0 91 -100l-7 -592q80 116 213 116q316 -1 312 -456l-4 -507q-1 -121 -96 -129q-107 -9 -106 111l3 479q2 266 -104 279q-118 16 -218 -171l-14 -577q-4 -109 -110 -107q-89 2 -87 109l33 1451q2 92 94 94z" />
    <glyph glyph-name="i" unicode="i" horiz-adv-x="501" 
d="M261 1501h4q34 0 63 -17q31 -18 47 -50q14 -27 14 -58v-10q-3 -36 -25 -65q-20 -26 -44 -37q-25 -13 -56 -12h-6q-31 1 -57 17q-27 16 -44 44q-17 29 -17 63q0 32 16 60q17 29 43 47q28 18 62 18zM242 1047q95 -2 93 -130l-14 -832q-2 -135 -96 -135q-107 1 -104 127
l17 839q3 133 104 131z" />
    <glyph glyph-name="j" unicode="j" horiz-adv-x="668" 
d="M475 1508h4q34 0 63 -17q31 -18 47 -50q14 -27 14 -58v-10q-3 -36 -25 -65q-20 -26 -44 -37q-25 -13 -56 -12h-6q-31 1 -57 17q-27 16 -44 44q-17 29 -17 63q0 32 16 60q17 29 43 47q28 18 62 18zM482 1049q103 0 101 -110l-17 -1170v-7q0 -365 -267 -365h-16
q-207 10 -303 231q-43 98 -43 158q0 69 58 85q25 7 46 7q90 0 116 -127q28 -138 128 -138q74 0 77 156l22 1170q2 110 98 110z" />
    <glyph glyph-name="k" unicode="k" horiz-adv-x="921" 
d="M233 1610q94 0 92 -99l-13 -885l294 420q108 98 172 26q68 -78 -16 -152l-250 -273l292 -475q82 -113 22 -172q-94 -93 -174 23l-235 490l-108 -153l-6 -296q-2 -109 -110 -107q-90 2 -87 109l33 1451q2 91 94 93z" />
    <glyph glyph-name="l" unicode="l" horiz-adv-x="438" 
d="M180 1610q104 0 102 -99l-31 -1447q-1 -109 -109 -107q-90 2 -88 109l34 1451q2 91 92 93z" />
    <glyph glyph-name="m" unicode="m" horiz-adv-x="1270" 
d="M191 1094q94 0 93 -99l-1 -41q57 80 139 81q157 2 230 -147q86 148 217 147q320 -1 313 -456l-8 -497q-2 -121 -96 -129q-107 -10 -106 111l6 461q4 296 -100 300q-117 5 -160 -167q-2 -3 -2 -61l-8 -501q-3 -121 -96 -129q-102 -9 -100 111l10 459q6 285 -98 290
q-111 6 -145 -202l-11 -553q-3 -109 -107 -107q-90 2 -87 109l23 927q2 93 94 93z" />
    <glyph glyph-name="n" unicode="n" horiz-adv-x="891" 
d="M219 1094q96 0 94 -99q0 -29 -1 -59q70 99 179 99q320 -1 313 -456l-8 -500q-2 -121 -96 -129q-108 -10 -106 111l12 474q7 276 -106 288q-89 10 -191 -149l-10 -605q-3 -109 -110 -107q-90 2 -87 109l23 930q2 93 94 93z" />
    <glyph glyph-name="o" unicode="o" horiz-adv-x="807" 
d="M399 845q-83 -3 -125 -91q-64 -136 -64 -299q0 -157 46 -235q48 -80 109 -80q70 0 117 80q94 157 95 281q1 350 -178 344zM388 1032q381 -3 378 -546q-1 -253 -117 -390q-101 -147 -300 -145q-106 1 -223 148q-112 142 -112 374q0 209 134 404q107 156 240 155z" />
    <glyph glyph-name="p" unicode="p" horiz-adv-x="840" 
d="M143 -571q-104 0 -102 100l32 1447q2 109 109 107q52 -1 74 -58q32 39 150 37q114 -1 215 -143q130 -139 130 -325q1 -269 -117 -416q-107 -164 -234 -178q-111 -13 -155 54q0 1 -1 2l-8 -533q-2 -94 -93 -94zM261 808l-14 -518q64 -108 137 -100q96 10 145 123
q43 95 44 233q2 129 -48 225q-42 82 -124 99q-87 18 -140 -62z" />
    <glyph glyph-name="q" unicode="q" horiz-adv-x="841" 
d="M611 -570q-94 0 -92 99l6 451q-27 -24 -119 -23q-120 1 -218 134q-146 145 -146 355q0 268 137 428q110 172 248 172q77 0 117 -36q17 75 106 73q90 -2 88 -109l-34 -1451q-2 -93 -93 -93zM528 216l8 578q-38 70 -125 60q-80 -8 -128 -111q-54 -115 -57 -243
q-2 -142 48 -234q52 -98 144 -107q69 -7 110 57z" />
    <glyph glyph-name="r" unicode="r" horiz-adv-x="777" 
d="M151 1094q93 0 93 -99v-37q72 85 141 87q97 2 183 -41q152 -76 125 -157q-44 -128 -159 -50q-88 61 -162 38q-72 -22 -132 -115l-11 -656q-3 -109 -108 -107q-90 2 -87 109l23 935q2 93 94 93z" />
    <glyph glyph-name="s" unicode="s" horiz-adv-x="790" 
d="M305 144q140 -14 176 58q40 82 16 119q-41 63 -162 87q-217 43 -243 157q-32 143 5.5 239t128.5 175q86 75 151 84q90 13 195 -41q144 -73 157 -161q9 -60 -37 -97q-60 -49 -173 65q-56 57 -121 52q-88 -7 -115 -74q-32 -79 -14 -146q14 -55 129 -74q43 -7 113 -48
q111 -66 142 -103q59 -73 41 -214q-15 -124 -140 -212q-95 -67 -195 -68q-82 -1 -160 24q-63 20 -132 60q-70 40 -74 100q-4 66 42 96q58 38 128 -12q83 -60 142 -66z" />
    <glyph glyph-name="t" unicode="t" horiz-adv-x="712" 
d="M281 1531q91 0 91 -99v-339l174 1q123 1 123 -100q0 -102 -117 -102h-184l-16 -828q-2 -109 -109 -107q-116 3 -110 115l45 820l-39 4q-86 0 -86 98q0 105 95 101q21 -1 35 -3l6 346q1 93 92 93z" />
    <glyph glyph-name="u" unicode="u" horiz-adv-x="883" 
d="M677 -76q-103 0 -102 99l1 59q-70 -99 -179 -99q-315 1 -311 456l4 491q2 120 96 129q105 9 103 -111l-1 -437q-2 -242 48 -295q66 -70 158 2q85 66 90 230l12 505q3 109 109 108q90 -2 88 -110l-24 -934q-2 -93 -92 -93z" />
    <glyph glyph-name="v" unicode="v" horiz-adv-x="835" 
d="M96 1046q106 47 145 -85l172 -591l184 591q41 129 145 85q82 -34 37 -162l-283 -820q-38 -109 -76 -109q-40 0 -77 109l-284 820q-44 126 37 162z" />
    <glyph glyph-name="w" unicode="w" horiz-adv-x="1099" 
d="M631 919l60 -535l156 531q42 142 119 130q102 -16 61 -140l-268 -833q-40 -123 -81 -122q-88 2 -105 120l-54 377l-89 -375q-29 -122 -105 -122q-87 0 -110 122l-158 833q-24 125 68 140q90 15 99 -40l107 -621l119 532q29 130 96 130q71 0 85 -127z" />
    <glyph glyph-name="x" unicode="x" horiz-adv-x="975" 
d="M91 1027q89 72 166 -43l212 -315l209 315q77 118 166 43q65 -56 -2 -155l-250 -365l223 -360q76 -124 20 -174q-85 -75 -166 44l-201 293l-202 -293q-82 -119 -166 -44q-60 54 20 174l240 357l-267 368q-71 98 -2 155z" />
    <glyph glyph-name="y" unicode="y" horiz-adv-x="869" 
d="M782 1029q96 -41 45 -159l-448 -1317q-44 -160 -100 -124q-93 43 -24 202l128 460l-345 770q-64 118 24 165q93 50 156 -69l228 -637l189 631q51 118 147 78z" />
    <glyph glyph-name="z" unicode="z" horiz-adv-x="922" 
d="M802 858l-436 -719h337q114 0 111 -96q-3 -89 -118 -89h-513q-88 0 -101 77q-6 36 54 111l428 706h-342q-115 0 -111 110q3 89 118 89h513q77 0 101 -77q14 -43 -41 -112z" />
    <glyph glyph-name="braceleft" unicode="{" horiz-adv-x="709" 
d="M210 798l-3 426q-3 396 322 396q145 0 144 -83q0 -115 -159 -103q-123 10 -121 -216l2 -423q0 -105 -134 -227q134 -123 134 -228l-2 -321q-2 -218 122 -216q142 2 142 -86q0 -100 -128 -100q-326 0 -322 396l3 324q0 48 -111 112q-100 59 -96 119q-4 61 96 118
q111 64 111 112z" />
    <glyph glyph-name="bar" unicode="|" horiz-adv-x="729" 
d="M317 1715q86 1 86 -77l2 -1885q0 -114 -88 -114q-84 1 -85 115l-5 1884q0 76 90 77z" />
    <glyph glyph-name="braceright" unicode="}" horiz-adv-x="710" 
d="M468 798q0 -48 111 -112q100 -58 96 -118q4 -61 -96 -119q-111 -64 -111 -112l3 -324q4 -396 -323 -396q-126 0 -128 100q-2 88 143 86q124 -2 122 216l-2 321q-1 104 134 228q-135 123 -134 227l2 423q2 226 -122 216q-158 -12 -159 103q-1 83 144 83q326 0 323 -396z
" />
    <glyph glyph-name="asciitilde" unicode="~" horiz-adv-x="943" 
d="M236 576q-43 -84 -122 -49q-67 30 -40 121q35 118 135 203q74 85 141 84q87 -1 126 -113q51 -138 118 -142q51 -3 82 139q31 94 98 91q91 -3 85 -138q-5 -114 -100 -202q-80 -73 -158 -74q-103 -1 -158 128q-65 154 -107 132q-49 -24 -100 -180z" />
    <glyph glyph-name="nonbreakingspace" unicode="&#xa0;" horiz-adv-x="391" 
 />
    <glyph glyph-name="exclamdown" unicode="&#xa1;" horiz-adv-x="311" 
d="M290 1362q-15 -4 -31 -3q-17 0 -33 4q-31 9 -54 32q-27 25 -33 55q-3 16 -4 33q0 20 3 31q10 37 37 62q28 25 67 30q8 1 17 2q29 0 54 -13q34 -16 53 -49q17 -29 17 -63q0 -25 -9 -48q-11 -27 -34 -46q-20 -19 -50 -27zM249 -63q-89 0 -89 90l1 1122q0 80 91 80h4
q81 2 81 -86l1 -1118v-2q1 -88 -85 -86h-4z" />
    <glyph glyph-name="cent" unicode="&#xa2;" horiz-adv-x="1196" 
d="M579 1740q80 0 79 -111q-1 -76 -1 -152q72 -1 121 -21q130 -56 168 -88q103 -85 57 -152q-55 -77 -143 -14q-134 96 -182 101l-22 2l-7 -840q74 11 130 46q137 85 173 90q113 14 91 -112q-12 -51 -191 -145q-103 -54 -205 -66l-1 -118q-1 -129 -81 -127q-91 1 -90 129
q1 62 1 123q-174 36 -301 190q-95 113 -95 399q0 198 105 353q125 189 302 231l2 170q1 111 90 112zM485 1280q-99 -52 -156 -149q-81 -138 -81 -289q0 -164 60 -244q72 -99 170 -127q3 404 7 809z" />
    <glyph glyph-name="sterling" unicode="&#xa3;" horiz-adv-x="1229" 
d="M285 924q-13 271 90 483q90 188 240 201q213 18 318 -156q82 -112 48 -168q-44 -72 -106 -55q-22 8 -58 105q-41 110 -188 100q-192 -11 -227 -399q-5 -54 -1 -138l355 7q67 1 67 -90q0 -86 -63 -87l-344 -6q12 -111 34 -253q22 -144 -22 -325q19 4 32 3q59 -7 155 -72
q69 -47 144 -44q85 4 130 56q29 25 48 144q14 79 94 70q88 -10 80 -104q-13 -169 -108 -246q-129 -106 -250 -100q-82 4 -147 50q-105 73 -185 66q-34 -3 -82 -41q-106 -73 -140 7q-22 52 10 89q10 15 29 32q138 174 91 487q-15 99 -25 180q-81 -1 -179 -2q-101 -1 -99 85
q3 90 104 91q82 1 157 1q-1 15 -2 29z" />
    <glyph glyph-name="currency" unicode="&#xa4;" horiz-adv-x="1100" 
d="M527 908h-2q-25 0 -47 -19q-23 -19 -36 -54q-15 -37 -15 -80q0 -40 11 -71q12 -36 32 -56q19 -20 46 -25q5 -1 8 0q24 0 43 14q20 15 34 43q18 34 21 77q1 9 1 18q0 34 -10 65q-12 39 -34 63q-23 24 -52 25zM98 1290q74 66 140 -8l182 -201q3 2 6 3q47 32 96 33
q6 0 12 -1q52 -4 101 -43l189 209q66 74 140 8q73 -65 6 -138l-195 -214q5 -8 10 -17q40 -77 39 -165v-17q-4 -92 -52 -169l180 -200q87 -96 19 -163q-69 -68 -157 29l-182 201q-12 -7 -20 -12q-44 -29 -91 -29q-22 0 -45 7q-27 8 -53 26l-175 -193q-88 -97 -157 -29
q-68 67 19 163l166 184q-42 62 -56 138q-6 31 -6 62q0 66 23 129q14 38 36 71l-181 198q-67 73 6 138z" />
    <glyph glyph-name="yen" unicode="&#xa5;" horiz-adv-x="1110" 
d="M129 1443q64 35 102 -27l305 -634l307 634q38 62 102 27q66 -36 30 -99l-323 -644h99q106 0 112 -79q6 -86 -100 -86h-143v-63h131q106 0 112 -79q6 -86 -100 -86h-143v-272q0 -90 -76 -90q-84 -1 -84 89v273h-123q-108 0 -106 80q2 85 108 85h121v63h-123
q-108 0 -106 80q2 85 108 85h83l-323 644q-36 63 30 99z" />
    <glyph glyph-name="brokenbar" unicode="&#xa6;" horiz-adv-x="690" 
d="M289 754q75 0 75 -75l1 -641q0 -81 -70 -81q-81 0 -81 81v641q0 75 75 75zM289 1696q75 0 75 -75l1 -641q0 -81 -70 -81q-81 0 -81 81v641q0 75 75 75z" />
    <glyph glyph-name="section" unicode="&#xa7;" horiz-adv-x="1047" 
d="M364 1012q-43 -72 -34 -136q13 -104 86 -156q28 -20 165 -77q37 -16 71 -34q37 55 27 83q-32 83 -116 162q-93 92 -119 108q-44 29 -74 58zM790 512q102 -150 91 -257q-16 -159 -126 -243q-112 -86 -265 -87q-115 -1 -205 49q-80 33 -136 82q-78 69 -72 136q5 50 55 60
q66 15 126 -45q75 -80 134 -101q96 -32 155 -18q91 23 128 97q77 148 -56 244q-52 55 -227 131q-150 53 -209 191q-49 116 -14 247q22 82 106 147q-53 82 -56 150q-6 158 120 264q66 82 144 83q105 1 178 -42q80 -33 136 -82q78 -69 72 -136q-5 -50 -55 -60q-63 -14 -126 45
q-72 77 -107 94q-51 26 -121 -7q-64 -29 -80 -102q-18 -80 59 -177q44 -56 157 -126q130 -61 225 -186q97 -129 43 -255q-17 -44 -74 -96z" />
    <glyph glyph-name="dieresis" unicode="&#xa8;" horiz-adv-x="976" 
d="M673 1370q123 0 123 -93q0 -91 -125 -91q-116 0 -116 88q0 96 118 96zM260 1370q123 0 123 -93q0 -91 -125 -91q-116 0 -116 88q0 96 118 96z" />
    <glyph glyph-name="copyright" unicode="&#xa9;" horiz-adv-x="1206" 
d="M699 800q53 62 84 -16q24 -59 -38 -141q-70 -94 -155 -87q-130 10 -183 144q-48 121 -48 211q0 153 45 253q48 108 131 142q76 32 133 -6q78 -51 105 -111q30 -66 0 -123q-32 -60 -100 28q-55 72 -112 42q-62 -33 -74 -96q-14 -76 -13 -116q2 -55 25 -104q39 -85 91 -93
q43 -5 109 73zM585 1452h-1q-85 0 -164 -67q-79 -68 -124 -185q-44 -118 -46 -257v-13q0 -131 39 -246q45 -128 120 -201q73 -72 169 -75q3 0 6 -1q88 0 164 67q80 69 125 192q46 122 46 264q0 139 -45 259q-46 125 -121 193q-77 70 -168 70zM575 1629h8q109 0 209 -80
q105 -84 193 -234q98 -150 114 -331q3 -30 2 -61q0 -152 -59 -284q-45 -97 -104 -171q-43 -70 -103 -132q-110 -115 -242 -120h-10q-121 0 -234 102q-58 52 -101 126q-70 80 -112 165q-73 148 -73 314v30q9 191 100 338q94 157 194 247q98 88 218 91z" />
    <glyph glyph-name="ordfeminine" unicode="&#xaa;" horiz-adv-x="911" 
d="M359 918q-258 20 -271 351q-7 198 109 333q117 135 315 87q27 25 88 11q102 -23 97 -155q-4 -108 -6 -233q-3 -186 32 -245q85 -146 -24 -168q-125 -26 -145 106q-110 -97 -195 -87zM420 1126q61 22 82 60l-7 298q-32 41 -95 29q-54 -10 -102 -87q-41 -56 -33 -160
q8 -109 66 -135q36 -24 89 -5z" />
    <glyph glyph-name="guillemotleft" unicode="&#xab;" horiz-adv-x="756" 
d="M517 695l382 332q86 75 148 -3q52 -66 -35 -140l-313 -266l325 -270q67 -56 5 -126q-54 -61 -122 -6l-383 309q-56 45 -56 80q1 48 49 90zM62 695l382 332q86 75 148 -3q52 -66 -35 -140l-313 -266l325 -270q67 -56 5 -126q-54 -61 -122 -6l-383 309q-56 45 -56 80
q1 48 49 90z" />
    <glyph glyph-name="logicalnot" unicode="&#xac;" horiz-adv-x="795" 
d="M31 646q-1 87 107 87h459q137 0 138 -87v-5q1 -6 1 -13v-294q0 -85 -79 -86q-94 -1 -94 84v229h-436q-95 0 -96 85z" />
    <glyph glyph-name="hyphenminus" unicode="&#xad;" horiz-adv-x="545" 
d="M144 620l480 2q94 0 94 -76q0 -78 -89 -78l-491 1q-66 0 -66 74q0 77 72 77z" />
    <glyph glyph-name="registered" unicode="&#xae;" horiz-adv-x="1233" 
d="M582 1183l-8 -191q47 -7 66 4q29 17 31 93q1 78 -37 84zM706 1304q61 -70 69 -174q5 -72 -2 -116q-17 -99 -93 -134l79 -168q52 -110 0 -156q-42 -36 -90 81l-95 228q-1 -2 -3 1l-7 -220q-5 -109 -64 -107q-73 2 -69 109l26 602q3 79 74 93q117 27 175 -39zM601 1629h8
q110 0 210 -80q104 -84 192 -234q98 -150 114 -331q3 -30 2 -61q0 -152 -59 -284q-45 -97 -104 -171q-42 -70 -103 -132q-109 -115 -241 -120h-10q-140 0 -261 102q-58 52 -101 126q-70 80 -112 165q-73 148 -73 314v30q9 191 100 338q94 157 194 247q104 88 244 91z
M612 1452h-1q-95 0 -191 -67q-79 -68 -124 -185q-44 -118 -46 -257v-13q0 -131 39 -246q45 -128 120 -201q86 -72 196 -75q3 0 6 -1q88 0 164 67q79 69 125 192q45 122 45 264q0 139 -44 259q-46 125 -121 193q-77 70 -168 70z" />
    <glyph glyph-name="overscore" unicode="&#xaf;" horiz-adv-x="987" 
d="M1024 1887v-185h-1046v185h1046z" />
    <glyph glyph-name="degree" unicode="&#xb0;" horiz-adv-x="734" 
d="M226 1210q32 -42 65 -61q24 -21 57 -24h6q28 0 54 18q31 18 60 51q40 45 48 105q2 14 2 29q0 45 -18 85q-25 55 -77 87q-32 31 -69 31h-2q-37 -1 -70 -31q-47 -30 -72 -81q-22 -43 -22 -91q0 -8 1 -16q4 -59 37 -102zM350 1680h6q63 0 146 -52q89 -54 133 -148
q34 -72 34 -151q0 -23 -3 -46q-15 -110 -81 -182q-40 -47 -95 -78t-100 -41q-17 -4 -33 -4q-65 0 -149 54q-98 62 -140 170q-24 61 -24 128q0 47 12 92q31 112 121 183q91 72 173 75z" />
    <glyph glyph-name="plusminus" unicode="&#xb1;" horiz-adv-x="894" 
d="M147 52l534 2q114 0 114 -82q0 -84 -109 -84l-548 1q-80 0 -80 80q1 83 89 83zM436 1044q86 -1 86 -102v-206l187 1q100 0 100 -89q0 -86 -101 -87q-105 -1 -186 -2v-241q0 -90 -90 -88q-91 1 -90 92q1 117 2 235q-90 -1 -209 -2q-90 -1 -88 89q0 91 91 91l207 1
q1 104 1 208q0 101 90 100z" />
    <glyph glyph-name="twosuperior" unicode="&#xb2;" horiz-adv-x="1192" 
d="M431 1054l314 7q108 2 108 -72q0 -79 -108 -79h-383q-127 0 -111 128q22 172 220 278q186 100 196 165q15 87 -71 117q-63 22 -118 -9q-51 -29 -94 -89q-44 -62 -103 -30q-73 39 -30 105q61 96 140 142q66 39 202 25q99 -10 176 -96q58 -64 48 -180q-14 -154 -202 -255
q-182 -99 -184 -157z" />
    <glyph glyph-name="threesuperior" unicode="&#xb3;" horiz-adv-x="1176" 
d="M761 1466q-2 -92 -88 -165q125 -69 125 -218q0 -114 -112 -177q-107 -59 -217 -51q-208 16 -203 95q7 100 132 64q70 -20 168 3q89 21 83 89q-8 101 -109 103q-141 3 -137 78q4 55 108 85q136 39 98 117q-48 99 -198 57q-80 -23 -95 33q-26 98 132 118q129 17 233 -60
q83 -61 80 -171z" />
    <glyph glyph-name="acute" unicode="&#xb4;" horiz-adv-x="955" 
d="M533 1636q75 -59 14 -126l-237 -260q-87 -96 -144 -40q-54 53 28 155l208 260q57 71 131 11z" />
    <glyph glyph-name="mu1" unicode="&#xb5;" horiz-adv-x="864" 
d="M641 -77q-76 0 -66 90q-51 -31 -114 -31q-111 1 -170 65l-77 -358q-24 -93 -94 -93q-128 0 -102 99l176 683l21 79l91 472q21 124 58 129q85 12 66 -111l-66 -437q-5 -29 -8 -55q0 -14 -3 -32q-12 -206 106 -210q111 -4 165 127l107 612q26 109 110 108q113 -3 87 -110
l-221 -934q-21 -93 -66 -93z" />
    <glyph glyph-name="paragraph" unicode="&#xb6;" horiz-adv-x="1355" 
d="M1121 1635q104 0 102 -99l-38 -1602q-4 -109 -110 -107q-90 2 -87 109l39 1606q2 93 94 93zM743 1635q104 0 102 -99l-37 -1602q-3 -109 -109 -107q-90 2 -88 109l11 463q-581 40 -581 596q0 640 702 640z" />
    <glyph glyph-name="periodcentered" unicode="&#xb7;" horiz-adv-x="208" 
d="M213 841h4q34 0 63 -17q31 -18 47 -50q14 -27 14 -58v-10q-3 -36 -25 -65q-20 -26 -44 -37q-25 -13 -56 -12h-6q-31 1 -57 17q-27 16 -44 44q-17 29 -17 63q0 32 16 60q17 29 43 47q28 18 62 18z" />
    <glyph glyph-name="periodcentered" unicode="&#x2219;" horiz-adv-x="208" 
d="M213 841h4q34 0 63 -17q31 -18 47 -50q14 -27 14 -58v-10q-3 -36 -25 -65q-20 -26 -44 -37q-25 -13 -56 -12h-6q-31 1 -57 17q-27 16 -44 44q-17 29 -17 63q0 32 16 60q17 29 43 47q28 18 62 18z" />
    <glyph glyph-name="cedilla" unicode="&#xb8;" horiz-adv-x="1026" 
d="M320 73q10 39 66 41q126 5 252 -114q154 -143 66 -337q-46 -101 -210 -108q-106 -5 -206 57q-60 37 -52 103q4 36 62 42q24 2 91 -28q69 -31 125 -18q62 15 62 80q2 86 -100 138q-48 25 -106 42q-72 19 -50 102z" />
    <glyph glyph-name="onesuperior" unicode="&#xb9;" horiz-adv-x="1180" 
d="M613 1622q-5 -208 -6 -587h101q103 0 103 -61q0 -71 -100 -71h-363q-90 0 -91 65q0 68 100 68h99l2 470l-26 -23q-85 -75 -137 -26q-64 61 27 124l120 83q94 65 117 60q56 -12 54 -102z" />
    <glyph glyph-name="ordmasculine" unicode="&#xba;" horiz-adv-x="881" 
d="M293 1676q43 23 88 23q24 0 46 -6q79 -20 159 -90q84 -72 120 -172q22 -59 24 -141q1 -35 -5 -69q-19 -111 -92 -197q-70 -83 -168 -121q-41 -22 -85 -22q-27 0 -53 9q-82 23 -164 99q-79 73 -113 175q-20 61 -20 127q0 41 8 81q22 109 92 187q73 82 163 117zM383 1084
q37 0 68 30q32 31 57 80q25 46 25 100q0 4 -1 8q-3 60 -33 106q-18 33 -41 58q-22 23 -48 32q-14 5 -28 5q-39 0 -72 -33q-40 -38 -65 -103q-13 -35 -13 -74q0 -30 8 -59q20 -67 62 -109q35 -41 80 -41h1z" />
    <glyph glyph-name="guillemotright" unicode="&#xbb;" horiz-adv-x="756" 
d="M988 723q48 -42 49 -90q0 -35 -56 -80l-383 -309q-68 -55 -122 6q-63 71 5 126l325 270l-313 266q-87 74 -35 140q62 78 148 3zM535 723q48 -42 49 -90q0 -35 -56 -80l-383 -309q-68 -55 -122 6q-63 71 5 126l325 270l-313 266q-87 74 -35 140q62 78 148 3z" />
    <glyph glyph-name="onequarter" unicode="&#xbc;" horiz-adv-x="852" 
d="M219 735l577 2q151 0 152 -76q0 -77 -144 -77h-596q-106 0 -106 74q0 77 117 77zM524 247l-143 -231h144zM630 469q8 -14 7 -30q3 -20 32 -46q0 -189 1 -377q48 0 96 -1q77 0 77 -66q0 -58 -77 -58h-96v-140q0 -93 -72 -93t-72 93v140l-260 -1q-19 0 -33 3q-13 0 -24 8
q-10 6 -17 14q-52 53 17 130l304 408q47 81 91 44q17 -4 26 -28zM613 1622q-5 -208 -6 -587h101q103 0 103 -61q0 -71 -100 -71h-363q-90 0 -91 65q0 68 100 68h99l2 470l-26 -23q-85 -75 -137 -26q-64 61 27 124l120 83q94 65 117 60q56 -12 54 -102z" />
    <glyph glyph-name="onehalf" unicode="&#xbd;" horiz-adv-x="852" 
d="M431 -208l314 7q108 2 108 -72q0 -79 -108 -79h-383q-127 0 -111 128q22 172 220 278q186 100 196 165q15 87 -71 117q-63 22 -118 -9q-51 -29 -94 -89q-44 -62 -103 -30q-73 39 -30 105q61 96 140 142q66 39 202 25q99 -10 176 -96q58 -64 48 -180q-14 -154 -202 -255
q-182 -99 -184 -157zM613 1622q-5 -208 -6 -587h101q103 0 103 -61q0 -71 -100 -71h-363q-90 0 -91 65q0 68 100 68h99l2 470l-26 -23q-85 -75 -137 -26q-64 61 27 124l120 83q94 65 117 60q56 -12 54 -102zM219 735l577 2q151 0 152 -76q0 -77 -144 -77h-596
q-106 0 -106 74q0 77 117 77z" />
    <glyph glyph-name="threequarters" unicode="&#xbe;" horiz-adv-x="852" 
d="M524 247l-143 -231h144zM630 469q8 -14 7 -30q3 -20 32 -46q0 -189 1 -377q48 0 96 -1q77 0 77 -66q0 -58 -77 -58h-96v-140q0 -93 -72 -93t-72 93v140l-260 -1q-19 0 -33 3q-13 0 -24 8q-10 6 -17 14q-52 53 17 130l304 408q47 81 91 44q17 -4 26 -28zM219 735l577 2
q151 0 152 -76q0 -77 -144 -77h-596q-106 0 -106 74q0 77 117 77zM761 1466q-2 -92 -88 -165q125 -69 125 -218q0 -114 -112 -177q-107 -59 -217 -51q-208 16 -203 95q7 100 132 64q70 -20 168 3q89 21 83 89q-8 101 -109 103q-141 3 -137 78q4 55 108 85q136 39 98 117
q-48 99 -198 57q-80 -23 -95 33q-26 98 132 118q129 17 233 -60q83 -61 80 -171z" />
    <glyph glyph-name="questiondown" unicode="&#xbf;" horiz-adv-x="686" 
d="M710 1229q-15 -4 -31 -3q-17 0 -33 4q-31 9 -54 32q-27 25 -33 55q-2 16 -3 33q0 20 2 31q10 37 37 62q28 25 67 30q8 1 17 2q29 0 54 -13q34 -16 53 -49q17 -29 17 -63q0 -25 -9 -48q-11 -27 -34 -46q-20 -19 -50 -27zM930 66q-118 -133 -376 -138q-290 -7 -336 321
q-56 386 210 459q130 51 130 135q4 199 94 204q136 7 108 -222q-25 -207 -220 -271q-156 -63 -115 -269q27 -135 124 -153q133 -17 213 54q124 111 178 69q92 -72 -10 -189z" />
    <glyph glyph-name="Agrave" unicode="&#xc0;" 
d="M198 2098q74 60 131 -11l208 -260q81 -102 28 -155q-56 -56 -144 40l-237 260q-61 67 14 126zM657 1363l368 -1241q39 -133 -50 -166q-85 -32 -144 110l-89 214l-380 -10l-65 -204q-44 -139 -144 -110q-91 27 -50 166l368 1241q49 166 93 166t93 -166zM559 1100
l-162 -645l310 8z" />
    <glyph glyph-name="Aacute" unicode="&#xc1;" 
d="M903 2098q75 -59 14 -126l-237 -260q-87 -96 -144 -40q-54 53 28 155l208 260q57 71 131 11zM657 1363l368 -1241q39 -133 -50 -166q-85 -32 -144 110l-89 214l-380 -10l-65 -204q-44 -139 -144 -110q-91 27 -50 166l368 1241q49 166 93 166t93 -166zM559 1100l-162 -645
l310 8z" />
    <glyph glyph-name="Acircumflex" unicode="&#xc2;" 
d="M485 2175q28 1 56 -48l252 -306q70 -77 20 -129q-76 -80 -146 -3l-182 262l-180 -262q-70 -77 -148 3q-48 52 22 129l250 306q29 49 56 48zM657 1363l368 -1241q39 -133 -50 -166q-85 -32 -144 110l-89 214l-380 -10l-65 -204q-44 -139 -144 -110q-91 27 -50 166
l368 1241q49 166 93 166t93 -166zM559 1100l-162 -645l310 8z" />
    <glyph glyph-name="Atilde" unicode="&#xc3;" 
d="M278.897 1716.45q-37.8799 -75.6074 -107.473 -44.1045q-59.0215 27.0029 -35.2363 108.911q30.832 106.21 118.924 182.717q65.1885 76.5078 124.21 75.6074q76.6396 -0.900391 110.996 -101.71q44.9268 -124.212 103.948 -127.812q44.9268 -2.70117 72.2354 125.111
q27.3086 84.6084 86.3301 81.9082q80.1641 -2.7002 74.8789 -124.212q-4.40527 -102.61 -88.0928 -181.817q-70.4736 -65.7061 -139.185 -66.6064q-90.7354 -0.900391 -139.186 115.211q-57.2598 138.613 -94.2588 118.812q-43.165 -21.6025 -88.0918 -162.016zM657 1363
l368 -1241q39 -133 -50 -166q-85 -32 -144 110l-89 214l-380 -10l-65 -204q-44 -139 -144 -110q-91 27 -50 166l368 1241q49 166 93 166t93 -166zM559 1100l-162 -645l310 8z" />
    <glyph glyph-name="Adieresis" unicode="&#xc4;" 
d="M696 1835q123 0 123 -93q0 -91 -125 -91q-116 0 -116 88q0 96 118 96zM283 1835q123 0 123 -93q0 -91 -125 -91q-116 0 -116 88q0 96 118 96zM657 1363l368 -1241q39 -133 -50 -166q-85 -32 -144 110l-89 214l-380 -10l-65 -204q-44 -139 -144 -110q-91 27 -50 166
l368 1241q49 166 93 166t93 -166zM559 1100l-162 -645l310 8z" />
    <glyph glyph-name="Aring" unicode="&#xc5;" 
d="M413 1618q32 -42 65 -61q24 -21 57 -24h6q28 0 54 18q31 18 60 51q40 45 48 105q2 14 2 29q0 45 -18 85q-25 55 -77 87q-32 31 -69 31h-2q-37 -1 -70 -31q-47 -30 -72 -81q-22 -43 -22 -91q0 -8 1 -16q4 -59 37 -102zM537 2088h6q63 0 146 -52q89 -54 133 -148
q34 -72 34 -151q0 -23 -3 -46q-15 -110 -81 -182q-40 -47 -95 -78t-100 -41q-17 -4 -33 -4q-65 0 -149 54q-98 62 -140 170q-24 61 -24 128q0 47 12 92q31 112 121 183q91 72 173 75zM657 1363l368 -1241q39 -133 -50 -166q-85 -32 -144 110l-89 214l-380 -10l-65 -204
q-44 -139 -144 -110q-91 27 -50 166l368 1241q49 166 93 166t93 -166zM559 1100l-162 -645l310 8z" />
    <glyph glyph-name="AE" unicode="&#xc6;" horiz-adv-x="1687" 
d="M1019 1507l490 4q141 1 144 -116q3 -93 -138 -94q-251 -2 -463 -4l-5 -363l354 4q138 1 141 -117q3 -93 -137 -93q-181 -2 -362 -3l-7 -571l411 4q141 1 144 -116q3 -93 -138 -94l-491 -4q-12 0 -22 2h-16q-89 2 -87 103l12 672h-250l-378 -649q-72 -83 -153 -17
q-75 62 -3 144l761 1234q50 71 112 74q11 1 21 1q21 0 37 -3q11 2 23 2zM717 936h137l6 249z" />
    <glyph glyph-name="Ccedilla" unicode="&#xc7;" horiz-adv-x="1019" 
d="M307 110q10 39 66 41q126 5 252 -114q154 -143 66 -337q-46 -101 -210 -108q-106 -5 -206 57q-60 37 -52 103q4 36 62 42q24 2 91 -28q69 -31 125 -18q62 15 62 80q2 86 -100 138q-48 25 -106 42q-72 19 -50 102zM466 1244q-61 -63 -108 -188q-52 -141 -52 -383
q0 -223 61 -369q48 -115 130 -121q115 -9 178 55q129 91 185 79q97 -18 82 -153q-8 -76 -201 -155q-117 -66 -235 -59q-155 8 -273 198q-146 192 -145 501q0 369 134 560q156 276 295 311q133 33 273 -52q127 -65 131 -122q4 -73 -35 -111q-71 -66 -146 -14q-59 47 -116 68
q-85 30 -158 -45z" />
    <glyph glyph-name="Egrave" unicode="&#xc8;" horiz-adv-x="1036" 
d="M530 2081q74 60 131 -11l208 -260q81 -102 28 -155q-56 -56 -144 40l-237 260q-61 67 14 126zM293 1501l490 4q141 1 144 -115q3 -91 -138 -92q-250 -2 -461 -4l-8 -606l354 3q136 1 141 -114q3 -92 -137 -93l-361 -3l-12 -314l416 3q141 1 144 -114q3 -92 -138 -93
l-496 -4q-12 2 -22 2h-16q-90 2 -87 102l33 1353q2 87 94 86q18 0 37 -3q6 -1 23 2z" />
    <glyph glyph-name="Eacute" unicode="&#xc9;" horiz-adv-x="1036" 
d="M917 2084q75 -59 14 -126l-237 -260q-87 -96 -144 -40q-54 53 28 155l208 260q57 71 131 11zM293 1501l490 4q141 1 144 -115q3 -91 -138 -92q-250 -2 -461 -4l-8 -606l354 3q136 1 141 -114q3 -92 -137 -93l-361 -3l-12 -314l416 3q141 1 144 -114q3 -92 -138 -93
l-496 -4q-12 2 -22 2h-16q-90 2 -87 102l33 1353q2 87 94 86q18 0 37 -3q6 -1 23 2z" />
    <glyph glyph-name="Ecircumflex" unicode="&#xca;" horiz-adv-x="1036" 
d="M503 2164q28 1 56 -48l252 -306q70 -77 20 -129q-76 -80 -146 -3l-182 262l-180 -262q-70 -77 -148 3q-48 52 22 129l250 306q29 49 56 48zM293 1501l490 4q141 1 144 -115q3 -91 -138 -92q-250 -2 -461 -4l-8 -606l354 3q136 1 141 -114q3 -92 -137 -93l-361 -3
l-12 -314l416 3q141 1 144 -114q3 -92 -138 -93l-496 -4q-12 2 -22 2h-16q-90 2 -87 102l33 1353q2 87 94 86q18 0 37 -3q6 -1 23 2z" />
    <glyph glyph-name="Edieresis" unicode="&#xcb;" horiz-adv-x="1036" 
d="M768 1821q123 0 123 -93q0 -91 -125 -91q-116 0 -116 88q0 96 118 96zM355 1821q123 0 123 -93q0 -91 -125 -91q-116 0 -116 88q0 96 118 96zM293 1501l490 4q141 1 144 -115q3 -91 -138 -92q-250 -2 -461 -4l-8 -606l354 3q136 1 141 -114q3 -92 -137 -93l-361 -3
l-12 -314l416 3q141 1 144 -114q3 -92 -138 -93l-496 -4q-12 2 -22 2h-16q-90 2 -87 102l33 1353q2 87 94 86q18 0 37 -3q6 -1 23 2z" />
    <glyph glyph-name="Igrave" unicode="&#xcc;" horiz-adv-x="985" 
d="M266 2066q74 60 131 -11l208 -260q81 -102 28 -155q-56 -56 -144 40l-237 260q-61 67 14 126zM192 1494h616q121 0 123 -108q2 -99 -129 -99h-234l-18 -1122h244q121 0 123 -108q2 -99 -129 -99h-619q-126 0 -126 113q0 95 135 94h176l29 1122h-200q-126 0 -126 112
q0 95 135 95z" />
    <glyph glyph-name="Iacute" unicode="&#xcd;" horiz-adv-x="985" 
d="M677 2072q75 -59 14 -126l-237 -260q-87 -96 -144 -40q-54 53 28 155l208 260q57 71 131 11zM192 1494h616q121 0 123 -108q2 -99 -129 -99h-234l-18 -1122h244q121 0 123 -108q2 -99 -129 -99h-619q-126 0 -126 113q0 95 135 94h176l29 1122h-200q-126 0 -126 112
q0 95 135 95z" />
    <glyph glyph-name="Icircumflex" unicode="&#xce;" horiz-adv-x="985" 
d="M397 2158q28 1 56 -48l252 -306q70 -77 20 -129q-76 -80 -146 -3l-182 262l-180 -262q-70 -77 -148 3q-48 52 22 129l250 306q29 49 56 48zM192 1494h616q121 0 123 -108q2 -99 -129 -99h-234l-18 -1122h244q121 0 123 -108q2 -99 -129 -99h-619q-126 0 -126 113
q0 95 135 94h176l29 1122h-200q-126 0 -126 112q0 95 135 95z" />
    <glyph glyph-name="Idieresis" unicode="&#xcf;" horiz-adv-x="985" 
d="M608 1818q123 0 123 -93q0 -91 -125 -91q-116 0 -116 88q0 96 118 96zM195 1818q123 0 123 -93q0 -91 -125 -91q-116 0 -116 88q0 96 118 96zM192 1494h616q121 0 123 -108q2 -99 -129 -99h-234l-18 -1122h244q121 0 123 -108q2 -99 -129 -99h-619q-126 0 -126 113
q0 95 135 94h176l29 1122h-200q-126 0 -126 112q0 95 135 95z" />
    <glyph glyph-name="Eth" unicode="&#xd0;" horiz-adv-x="1175" 
d="M80 583q-111 0 -108 97q3 103 114 103h487q71 0 73 -109q0 -92 -72 -92zM323 1525q24 0 44 -5q12 -1 24 -3q235 -41 410 -274q346 -333 323 -704q-15 -271 -270 -487q-80 -100 -309 -105q-135 -3 -222 2q-15 -3 -35 -3q-91 2 -88 105l31 1385q2 89 92 89zM417 1290
l-18 -1152l138 -3q212 8 277 120q99 151 108 294q17 249 -202 532q-133 195 -303 209z" />
    <glyph glyph-name="Ntilde" unicode="&#xd1;" horiz-adv-x="1245" 
d="M345.897 1723.45q-37.8799 -75.6074 -107.473 -44.1045q-59.0215 27.0029 -35.2363 108.911q30.832 106.21 118.924 182.717q65.1885 76.5078 124.21 75.6074q76.6396 -0.900391 110.996 -101.71q44.9268 -124.212 103.948 -127.812q44.9268 -2.70117 72.2354 125.111
q27.3086 84.6084 86.3301 81.9082q80.1641 -2.7002 74.8789 -124.212q-4.40527 -102.61 -88.0928 -181.817q-70.4736 -65.7061 -139.185 -66.6064q-90.7354 -0.900391 -139.186 115.211q-57.2598 138.613 -94.2588 118.812q-43.165 -21.6025 -88.0918 -162.016zM928 331
l28 1115q2 86 93 87q104 1 102 -93l-31 -1351q-2 -103 -110 -100q-144 3 -181 72l-534 984l-15 -987q-1 -102 -109 -100q-90 2 -88 102l34 1355q2 85 92 87q62 1 79 -29z" />
    <glyph glyph-name="Ograve" unicode="&#xd2;" horiz-adv-x="1231" 
d="M338 2081q74 60 131 -11l208 -260q81 -102 28 -155q-56 -56 -144 40l-237 260q-61 67 14 126zM682 1313q-143 15 -248 -143q-155 -234 -155 -595q0 -182 71 -297q83 -135 224 -135q137 0 215 147q142 265 144 588q6 408 -251 435zM674 1512q461 -7 460 -633
q-1 -404 -228 -694q-131 -248 -332 -248q-208 0 -361 223q-144 159 -144 413q0 397 242 701q134 242 363 238z" />
    <glyph glyph-name="Oacute" unicode="&#xd3;" horiz-adv-x="1231" 
d="M1043 2081q75 -59 14 -126l-237 -260q-87 -96 -144 -40q-54 53 28 155l208 260q57 71 131 11zM687 1313q-143 15 -248 -143q-155 -234 -155 -595q0 -182 71 -297q83 -135 224 -135q137 0 215 147q142 265 144 588q6 408 -251 435zM679 1512q461 -7 460 -633
q-1 -404 -228 -694q-131 -248 -332 -248q-208 0 -361 223q-144 159 -144 413q0 397 242 701q134 242 363 238z" />
    <glyph glyph-name="Ocircumflex" unicode="&#xd4;" horiz-adv-x="1231" 
d="M625 2158q28 1 56 -48l252 -306q70 -77 20 -129q-76 -80 -146 -3l-182 262l-180 -262q-70 -77 -148 3q-48 52 22 129l250 306q29 49 56 48zM687 1313q-143 15 -248 -143q-155 -234 -155 -595q0 -182 71 -297q83 -135 224 -135q137 0 215 147q142 265 144 588
q6 408 -251 435zM679 1512q461 -7 460 -633q-1 -404 -228 -694q-131 -248 -332 -248q-208 0 -361 223q-144 159 -144 413q0 397 242 701q134 242 363 238z" />
    <glyph glyph-name="Otilde" unicode="&#xd5;" horiz-adv-x="1231" 
d="M418.897 1699.45q-37.8799 -75.6074 -107.473 -44.1045q-59.0215 27.0029 -35.2363 108.911q30.832 106.21 118.924 182.717q65.1885 76.5078 124.21 75.6074q76.6396 -0.900391 110.996 -101.71q44.9268 -124.212 103.948 -127.812q44.9268 -2.70117 72.2354 125.111
q27.3086 84.6084 86.3301 81.9082q80.1641 -2.7002 74.8789 -124.212q-4.40527 -102.61 -88.0928 -181.817q-70.4736 -65.7061 -139.185 -66.6064q-90.7354 -0.900391 -139.186 115.211q-57.2598 138.613 -94.2588 118.812q-43.165 -21.6025 -88.0918 -162.016zM687 1313
q-143 15 -248 -143q-155 -234 -155 -595q0 -182 71 -297q83 -135 224 -135q137 0 215 147q142 265 144 588q6 408 -251 435zM679 1512q461 -7 460 -633q-1 -404 -228 -694q-131 -248 -332 -248q-208 0 -361 223q-144 159 -144 413q0 397 242 701q134 242 363 238z" />
    <glyph glyph-name="Odieresis" unicode="&#xd6;" horiz-adv-x="1231" 
d="M837 1818q123 0 123 -93q0 -91 -125 -91q-116 0 -116 88q0 96 118 96zM424 1818q123 0 123 -93q0 -91 -125 -91q-116 0 -116 88q0 96 118 96zM687 1313q-143 15 -248 -143q-155 -234 -155 -595q0 -182 71 -297q83 -135 224 -135q137 0 215 147q142 265 144 588
q6 408 -251 435zM679 1512q461 -7 460 -633q-1 -404 -228 -694q-131 -248 -332 -248q-208 0 -361 223q-144 159 -144 413q0 397 242 701q134 242 363 238z" />
    <glyph glyph-name="multiply" unicode="&#xd7;" horiz-adv-x="835" 
d="M90 973q66 52 134 -15l160 -201l159 201q69 68 134 15q74 -59 -24 -156l-187 -186l183 -180q93 -91 28 -160q-60 -64 -121 -3l-172 216l-173 -216q-61 -61 -121 3q-65 69 28 160l183 180l-187 186q-98 97 -24 156z" />
    <glyph glyph-name="Oslash" unicode="&#xd8;" horiz-adv-x="1263" 
d="M228 -48q-73 -78 -147 -6q-68 66 6 144l960 1402q83 88 153 33q80 -62 0 -147zM713 1313q-143 15 -248 -143q-156 -234 -156 -595q0 -182 72 -297q83 -135 224 -135q137 0 215 147q142 265 144 588q6 408 -251 435zM705 1512q461 -7 460 -633q-1 -404 -228 -694
q-132 -248 -332 -248q-208 0 -362 223q-144 159 -144 413q0 397 243 701q134 242 363 238z" />
    <glyph glyph-name="Ugrave" unicode="&#xd9;" horiz-adv-x="1168" 
d="M301 2087q74 60 131 -11l208 -260q81 -102 28 -155q-56 -56 -144 40l-237 260q-61 67 14 126zM-645 1999zM936 1485q110 -2 105 -174l-15 -567q-21 -785 -463 -784q-466 1 -461 802l3 537q1 199 102 199q99 -1 98 -174l-2 -547q-4 -645 263 -638q248 6 256 626l12 567
q3 155 102 153z" />
    <glyph glyph-name="Uacute" unicode="&#xda;" horiz-adv-x="1168" 
d="M733 2081q75 -59 14 -126l-237 -260q-87 -96 -144 -40q-54 53 28 155l208 260q57 71 131 11zM-645 1999zM936 1485q110 -2 105 -174l-15 -567q-21 -785 -463 -784q-466 1 -461 802l3 537q1 199 102 199q99 -1 98 -174l-2 -547q-4 -645 263 -638q248 6 256 626l12 567
q3 155 102 153z" />
    <glyph glyph-name="Ucircumflex" unicode="&#xdb;" horiz-adv-x="1168" 
d="M475 2164q28 1 56 -48l252 -306q70 -77 20 -129q-76 -80 -146 -3l-182 262l-180 -262q-70 -77 -148 3q-48 52 22 129l250 306q29 49 56 48zM-645 1999zM936 1485q110 -2 105 -174l-15 -567q-21 -785 -463 -784q-466 1 -461 802l3 537q1 199 102 199q99 -1 98 -174
l-2 -547q-4 -645 263 -638q248 6 256 626l12 567q3 155 102 153z" />
    <glyph glyph-name="Udieresis" unicode="&#xdc;" horiz-adv-x="1168" 
d="M695 1818q123 0 123 -93q0 -91 -125 -91q-116 0 -116 88q0 96 118 96zM282 1818q123 0 123 -93q0 -91 -125 -91q-116 0 -116 88q0 96 118 96zM-645 1999zM936 1485q110 -2 105 -174l-15 -567q-21 -785 -463 -784q-466 1 -461 802l3 537q1 199 102 199q99 -1 98 -174
l-2 -547q-4 -645 263 -638q248 6 256 626l12 567q3 155 102 153z" />
    <glyph glyph-name="Yacute" unicode="&#xdd;" horiz-adv-x="1017" 
d="M654 2087q75 -59 14 -126l-237 -260q-87 -96 -144 -40q-54 53 28 155l208 260q57 71 131 11zM905 1496q86 -46 48 -126l-484 -1323q-40 -134 -111 -77q-52 39 -2 200l102 330l-422 858q-49 79 30 133q86 59 150 -45l308 -735l243 730q50 103 138 55z" />
    <glyph glyph-name="Thorn" unicode="&#xde;" horiz-adv-x="858" 
d="M210 1638q82 2 80 -152q-2 -76 -4 -153q511 75 503 -515q-6 -454 -535 -433q2 -1 -8 -291q-4 -117 -96 -117q-90 0 -86 117l42 1388q4 154 104 156zM280 1158l-20 -583q345 1 349 261q6 351 -329 322z" />
    <glyph glyph-name="germandbls" unicode="&#xdf;" horiz-adv-x="762" 
d="M108 -156q-80 7 -76 138l32 951q18 563 263 621q329 83 363 -393q8 -108 -203 -339q173 -153 215 -330q65 -269 -8 -407q-97 -182 -278 -159q-144 22 -150 183q-4 132 99 42q87 -76 143 6q66 73 16 289q-34 141 -151 268q-41 44 -38 78q-8 59 40 123q108 144 112 228
q13 215 -76 237q-91 24 -135 -171q-27 -115 -30 -282l-20 -963q-4 -131 -118 -120z" />
    <glyph glyph-name="agrave" unicode="&#xe0;" horiz-adv-x="836" 
d="M110 1618q74 60 131 -11l208 -260q81 -102 28 -155q-56 -56 -144 40l-237 260q-61 67 14 126zM607 45q-159 -105 -214 -105q-171 -2 -257 48q-87 50 -114 184q-17 80 -15 145q19 135 63 195q97 132 288 183q92 24 162 -9q4 53 8 107l-40 62l-92 16q-21 0 -124 -40
q-139 -54 -153 -9q-35 107 35 143q85 43 184 64q235 51 302 -50l48 -80l22 -124l-10 -154q-11 -91 24 -262q25 -126 52 -252q42 -78 34 -121.5t-77 -50.5q-107 -16 -126 110zM377 117q72 -3 133 62q6 7 20 25q17 21 18 22q0 35 -34 242q6 25 -39 47l-14 7q-78 27 -166 -20
q-38 -19 -59 -47q-67 -91 -64 -172q0 -7 2 -20q1 -14 2 -19q11 -87 70 -110q26 -11 74 -14q43 -3 57 -3z" />
    <glyph glyph-name="aacute" unicode="&#xe1;" horiz-adv-x="836" 
d="M781 1618q75 -59 14 -126l-237 -260q-87 -96 -144 -40q-54 53 28 155l208 260q57 71 131 11zM573 45q-159 -105 -214 -105q-171 -2 -257 48q-87 50 -114 184q-17 80 -15 145q19 135 63 195q97 132 288 183q92 24 162 -9q4 53 8 107l-40 62l-92 16q-21 0 -124 -40
q-139 -54 -153 -9q-35 107 35 143q85 43 184 64q235 51 302 -50l48 -80l22 -124l-10 -154q-11 -91 24 -262q25 -126 52 -252q42 -78 34 -121.5t-77 -50.5q-107 -16 -126 110zM343 117q72 -3 133 62q6 7 20 25q17 21 18 22q0 35 -34 242q6 25 -39 47l-14 7q-78 27 -166 -20
q-38 -19 -59 -47q-67 -91 -64 -172q0 -7 2 -20q1 -14 2 -19q11 -87 70 -110q26 -11 74 -14q43 -3 57 -3z" />
    <glyph glyph-name="acircumflex" unicode="&#xe2;" horiz-adv-x="836" 
d="M364 1695q28 1 56 -48l252 -306q70 -77 20 -129q-76 -80 -146 -3l-182 262l-180 -262q-70 -77 -148 3q-48 52 22 129l250 306q29 49 56 48zM573 45q-159 -105 -214 -105q-171 -2 -257 48q-87 50 -114 184q-17 80 -15 145q19 135 63 195q97 132 288 183q92 24 162 -9
q4 53 8 107l-40 62l-92 16q-21 0 -124 -40q-139 -54 -153 -9q-35 107 35 143q85 43 184 64q235 51 302 -50l48 -80l22 -124l-10 -154q-11 -91 24 -262q25 -126 52 -252q42 -78 34 -121.5t-77 -50.5q-107 -16 -126 110zM343 117q72 -3 133 62q6 7 20 25q17 21 18 22
q0 35 -34 242q6 25 -39 47l-14 7q-78 27 -166 -20q-38 -19 -59 -47q-67 -91 -64 -172q0 -7 2 -20q1 -14 2 -19q11 -87 70 -110q26 -11 74 -14q43 -3 57 -3z" />
    <glyph glyph-name="atilde" unicode="&#xe3;" horiz-adv-x="836" 
d="M157.897 1236.45q-37.8799 -75.6074 -107.473 -44.1045q-59.0215 27.0029 -35.2363 108.911q30.832 106.21 118.924 182.717q65.1885 76.5078 124.21 75.6074q76.6396 -0.900391 110.996 -101.71q44.9268 -124.212 103.948 -127.812q44.9268 -2.70117 72.2354 125.111
q27.3086 84.6084 86.3301 81.9082q80.1641 -2.7002 74.8789 -124.212q-4.40527 -102.61 -88.0928 -181.817q-70.4736 -65.7061 -139.185 -66.6064q-90.7354 -0.900391 -139.186 115.211q-57.2598 138.613 -94.2588 118.812q-43.165 -21.6025 -88.0918 -162.016zM573 45
q-159 -105 -214 -105q-171 -2 -257 48q-87 50 -114 184q-17 80 -15 145q19 135 63 195q97 132 288 183q92 24 162 -9q4 53 8 107l-40 62l-92 16q-21 0 -124 -40q-139 -54 -153 -9q-35 107 35 143q85 43 184 64q235 51 302 -50l48 -80l22 -124l-10 -154q-11 -91 24 -262
q25 -126 52 -252q42 -78 34 -121.5t-77 -50.5q-107 -16 -126 110zM343 117q72 -3 133 62q6 7 20 25q17 21 18 22q0 35 -34 242q6 25 -39 47l-14 7q-78 27 -166 -20q-38 -19 -59 -47q-67 -91 -64 -172q0 -7 2 -20q1 -14 2 -19q11 -87 70 -110q26 -11 74 -14q43 -3 57 -3z" />
    <glyph glyph-name="adieresis" unicode="&#xe4;" horiz-adv-x="836" 
d="M575 1355q123 0 123 -93q0 -91 -125 -91q-116 0 -116 88q0 96 118 96zM162 1355q123 0 123 -93q0 -91 -125 -91q-116 0 -116 88q0 96 118 96zM573 45q-159 -105 -214 -105q-171 -2 -257 48q-87 50 -114 184q-17 80 -15 145q19 135 63 195q97 132 288 183q92 24 162 -9
q4 53 8 107l-40 62l-92 16q-21 0 -124 -40q-139 -54 -153 -9q-35 107 35 143q85 43 184 64q235 51 302 -50l48 -80l22 -124l-10 -154q-11 -91 24 -262q25 -126 52 -252q42 -78 34 -121.5t-77 -50.5q-107 -16 -126 110zM343 117q72 -3 133 62q6 7 20 25q17 21 18 22
q0 35 -34 242q6 25 -39 47l-14 7q-78 27 -166 -20q-38 -19 -59 -47q-67 -91 -64 -172q0 -7 2 -20q1 -14 2 -19q11 -87 70 -110q26 -11 74 -14q43 -3 57 -3z" />
    <glyph glyph-name="aring" unicode="&#xe5;" horiz-adv-x="836" 
d="M310 1381q32 -42 65 -61q24 -21 57 -24h6q28 0 54 18q31 18 60 51q40 45 48 105q2 14 2 29q0 45 -18 85q-25 55 -77 87q-32 31 -69 31h-2q-37 -1 -70 -31q-47 -30 -72 -81q-22 -43 -22 -91q0 -8 1 -16q4 -59 37 -102zM434 1851h6q63 0 146 -52q89 -54 133 -148
q34 -72 34 -151q0 -23 -3 -46q-15 -110 -81 -182q-40 -47 -95 -78t-100 -41q-17 -4 -33 -4q-65 0 -149 54q-98 62 -140 170q-24 61 -24 128q0 47 12 92q31 112 121 183q91 72 173 75zM573 45q-159 -105 -214 -105q-171 -2 -257 48q-87 50 -114 184q-17 80 -15 145
q19 135 63 195q97 132 288 183q92 24 162 -9q4 53 8 107l-40 62l-92 16q-21 0 -124 -40q-139 -54 -153 -9q-35 107 35 143q85 43 184 64q235 51 302 -50l48 -80l22 -124l-10 -154q-11 -91 24 -262q25 -126 52 -252q42 -78 34 -121.5t-77 -50.5q-107 -16 -126 110zM343 117
q72 -3 133 62q6 7 20 25q17 21 18 22q0 35 -34 242q6 25 -39 47l-14 7q-78 27 -166 -20q-38 -19 -59 -47q-67 -91 -64 -172q0 -7 2 -20q1 -14 2 -19q11 -87 70 -110q26 -11 74 -14q43 -3 57 -3z" />
    <glyph glyph-name="ae" unicode="&#xe6;" horiz-adv-x="1194" 
d="M908 361q3 -79 38 -126q72 -99 162 -98q127 2 194 80q63 74 110 84q48 10 68 -30q47 -93 -44 -174q-162 -144 -336 -140q-94 2 -214 120q-162 160 -162 317q0 285 99 446q125 203 253 215q140 13 269 -139q129 -153 125 -327q-4 -117 -111 -138zM924 561l385 65
q-15 118 -96 194q-76 72 -119 55q-89 -34 -134 -131q-36 -76 -36 -183zM587 45q-159 -105 -214 -105q-171 -2 -257 48q-87 50 -114 184q-17 80 -15 145q19 135 63 195q97 132 288 183q92 24 162 -9q4 53 8 107l-40 62l-92 16q-21 0 -124 -40q-139 -54 -153 -9
q-35 107 35 143q85 43 184 64q235 51 302 -50l48 -80l22 -124l-10 -154q-11 -91 24 -262q25 -126 52 -252q42 -78 34 -121.5t-77 -50.5q-107 -16 -126 110zM357 117q72 -3 133 62q6 7 20 25q17 21 18 22q0 35 -34 242q6 25 -39 47l-14 7q-78 27 -166 -20q-38 -19 -59 -47
q-67 -91 -64 -172q0 -7 2 -20q1 -14 2 -19q11 -87 70 -110q26 -11 74 -14q43 -3 57 -3z" />
    <glyph glyph-name="ccedilla" unicode="&#xe7;" horiz-adv-x="838" 
d="M203 97q10 39 66 41q126 5 252 -114q154 -143 66 -337q-46 -101 -210 -108q-106 -5 -206 57q-60 37 -52 103q4 36 62 42q24 2 91 -28q69 -31 125 -18q62 15 62 80q2 86 -100 138q-48 25 -106 42q-72 19 -50 102zM620 211q88 59 144 -35q33 -56 -52 -131
q-110 -94 -288 -93q-119 1 -207 120q-153 148 -153 371q0 246 109 403q110 191 240 206q76 9 153 -23q121 -41 161 -103q61 -96 -7 -145q-47 -34 -144 38q-92 87 -187 40q-53 -26 -96 -122q-49 -110 -51 -252q-3 -134 50 -245q48 -99 132 -104q87 -5 196 75z" />
    <glyph glyph-name="egrave" unicode="&#xe8;" horiz-adv-x="833" 
d="M30 1625q74 60 131 -11l208 -260q81 -102 28 -155q-56 -56 -144 40l-237 260q-61 67 14 126zM195 361q3 -79 38 -126q72 -99 162 -98q127 2 194 80q63 74 110 84q48 10 68 -30q47 -93 -44 -174q-162 -144 -336 -140q-94 2 -214 120q-162 160 -162 317q0 285 99 446
q125 203 253 215q140 13 269 -139q129 -153 125 -327q-4 -117 -111 -138zM211 561l385 65q-15 118 -96 194q-76 72 -119 55q-89 -34 -134 -131q-36 -76 -36 -183z" />
    <glyph glyph-name="eacute" unicode="&#xe9;" horiz-adv-x="833" 
d="M735 1625q75 -59 14 -126l-237 -260q-87 -96 -144 -40q-54 53 28 155l208 260q57 71 131 11zM195 361q3 -79 38 -126q72 -99 162 -98q127 2 194 80q63 74 110 84q48 10 68 -30q47 -93 -44 -174q-162 -144 -336 -140q-94 2 -214 120q-162 160 -162 317q0 285 99 446
q125 203 253 215q140 13 269 -139q129 -153 125 -327q-4 -117 -111 -138zM211 561l385 65q-15 118 -96 194q-76 72 -119 55q-89 -34 -134 -131q-36 -76 -36 -183z" />
    <glyph glyph-name="ecircumflex" unicode="&#xea;" horiz-adv-x="833" 
d="M318 1702q28 1 56 -48l252 -306q70 -77 20 -129q-76 -80 -146 -3l-182 262l-180 -262q-70 -77 -148 3q-48 52 22 129l250 306q29 49 56 48zM195 361q3 -79 38 -126q72 -99 162 -98q127 2 194 80q63 74 110 84q48 10 68 -30q47 -93 -44 -174q-162 -144 -336 -140
q-94 2 -214 120q-162 160 -162 317q0 285 99 446q125 203 253 215q140 13 269 -139q129 -153 125 -327q-4 -117 -111 -138zM211 561l385 65q-15 118 -96 194q-76 72 -119 55q-89 -34 -134 -131q-36 -76 -36 -183z" />
    <glyph glyph-name="edieresis" unicode="&#xeb;" horiz-adv-x="833" 
d="M529 1362q123 0 123 -93q0 -91 -125 -91q-116 0 -116 88q0 96 118 96zM116 1362q123 0 123 -93q0 -91 -125 -91q-116 0 -116 88q0 96 118 96zM195 361q3 -79 38 -126q72 -99 162 -98q127 2 194 80q63 74 110 84q48 10 68 -30q47 -93 -44 -174q-162 -144 -336 -140
q-94 2 -214 120q-162 160 -162 317q0 285 99 446q125 203 253 215q140 13 269 -139q129 -153 125 -327q-4 -117 -111 -138zM211 561l385 65q-15 118 -96 194q-76 72 -119 55q-89 -34 -134 -131q-36 -76 -36 -183z" />
    <glyph glyph-name="igrave" unicode="&#xec;" horiz-adv-x="502" 
d="M-1 1612q74 60 131 -11l208 -260q81 -102 28 -155q-56 -56 -144 40l-237 260q-61 67 14 126zM239 1047q95 -2 93 -130l-14 -832q-2 -135 -96 -135q-107 1 -104 127l17 839q3 133 104 131z" />
    <glyph glyph-name="iacute" unicode="&#xed;" horiz-adv-x="502" 
d="M443 1618q75 -59 14 -126l-237 -260q-87 -96 -144 -40q-54 53 28 155l208 260q57 71 131 11zM239 1047q95 -2 93 -130l-14 -832q-2 -135 -96 -135q-107 1 -104 127l17 839q3 133 104 131z" />
    <glyph glyph-name="icircumflex" unicode="&#xee;" horiz-adv-x="502" 
d="M176 1695q28 1 56 -48l252 -306q70 -77 20 -129q-76 -80 -146 -3l-182 262l-180 -262q-70 -77 -148 3q-48 52 22 129l250 306q29 49 56 48zM239 1047q95 -2 93 -130l-14 -832q-2 -135 -96 -135q-107 1 -104 127l17 839q3 133 104 131z" />
    <glyph glyph-name="idieresis" unicode="&#xef;" horiz-adv-x="502" 
d="M387 1355q123 0 123 -93q0 -91 -125 -91q-116 0 -116 88q0 96 118 96zM-26 1355q123 0 123 -93q0 -91 -125 -91q-116 0 -116 88q0 96 118 96zM239 1047q95 -2 93 -130l-14 -832q-2 -135 -96 -135q-107 1 -104 127l17 839q3 133 104 131z" />
    <glyph glyph-name="eth" unicode="&#xf0;" horiz-adv-x="902" 
d="M256 1491q58 83 132 14q51 -63 99 -146l83 68q132 70 179 -15q43 -79 -89 -150l-99 -55q27 -44 56 -92q234 -386 189 -692q-40 -275 -189 -384q-164 -165 -326 -10q-271 199 -118 560q110 259 356 330q-33 110 -71 201l-100 -83q-119 -64 -163 12q-52 89 67 153l120 70
q-34 47 -82 87q-86 72 -44 132zM571 763q-19 -11 -42 -21q-130 -55 -174 -165q-96 -167 -31 -326q40 -100 133 -110.5t154 209.5q48 150 -15 342q-12 36 -25 71z" />
    <glyph glyph-name="ntilde" unicode="&#xf1;" horiz-adv-x="891" 
d="M187.897 1281.45q-37.8799 -75.6074 -107.473 -44.1045q-59.0215 27.0029 -35.2363 108.911q30.832 106.21 118.924 182.717q65.1885 76.5078 124.21 75.6074q76.6396 -0.900391 110.996 -101.71q44.9268 -124.212 103.948 -127.812q44.9268 -2.70117 72.2354 125.111
q27.3086 84.6084 86.3301 81.9082q80.1641 -2.7002 74.8789 -124.212q-4.40527 -102.61 -88.0928 -181.817q-70.4736 -65.7061 -139.185 -66.6064q-90.7354 -0.900391 -139.186 115.211q-57.2598 138.613 -94.2588 118.812q-43.165 -21.6025 -88.0918 -162.016zM219 1094
q96 0 94 -99q0 -29 -1 -59q70 99 179 99q320 -1 313 -456l-8 -500q-2 -121 -96 -129q-108 -10 -106 111l12 474q7 276 -106 288q-89 10 -191 -149l-10 -605q-3 -109 -110 -107q-90 2 -87 109l23 930q2 93 94 93z" />
    <glyph glyph-name="ograve" unicode="&#xf2;" horiz-adv-x="807" 
d="M18 1618q74 60 131 -11l208 -260q81 -102 28 -155q-56 -56 -144 40l-237 260q-61 67 14 126zM399 845q-83 -3 -125 -91q-64 -136 -64 -299q0 -157 46 -235q48 -80 109 -80q70 0 117 80q94 157 95 281q1 350 -178 344zM388 1032q381 -3 378 -546q-1 -253 -117 -390
q-101 -147 -300 -145q-106 1 -223 148q-112 142 -112 374q0 209 134 404q107 156 240 155z" />
    <glyph glyph-name="oacute" unicode="&#xf3;" horiz-adv-x="807" 
d="M723 1618q75 -59 14 -126l-237 -260q-87 -96 -144 -40q-54 53 28 155l208 260q57 71 131 11zM399 845q-83 -3 -125 -91q-64 -136 -64 -299q0 -157 46 -235q48 -80 109 -80q70 0 117 80q94 157 95 281q1 350 -178 344zM388 1032q381 -3 378 -546q-1 -253 -117 -390
q-101 -147 -300 -145q-106 1 -223 148q-112 142 -112 374q0 209 134 404q107 156 240 155z" />
    <glyph glyph-name="ocircumflex" unicode="&#xf4;" horiz-adv-x="807" 
d="M306 1695q28 1 56 -48l252 -306q70 -77 20 -129q-76 -80 -146 -3l-182 262l-180 -262q-70 -77 -148 3q-48 52 22 129l250 306q29 49 56 48zM399 845q-83 -3 -125 -91q-64 -136 -64 -299q0 -157 46 -235q48 -80 109 -80q70 0 117 80q94 157 95 281q1 350 -178 344z
M388 1032q381 -3 378 -546q-1 -253 -117 -390q-101 -147 -300 -145q-106 1 -223 148q-112 142 -112 374q0 209 134 404q107 156 240 155z" />
    <glyph glyph-name="otilde" unicode="&#xf5;" horiz-adv-x="807" 
d="M98.8975 1236.45q-37.8799 -75.6074 -107.473 -44.1045q-59.0215 27.0029 -35.2363 108.911q30.832 106.21 118.924 182.717q65.1885 76.5078 124.21 75.6074q76.6396 -0.900391 110.996 -101.71q44.9268 -124.212 103.948 -127.812q44.9268 -2.70117 72.2354 125.111
q27.3086 84.6084 86.3301 81.9082q80.1641 -2.7002 74.8789 -124.212q-4.40527 -102.61 -88.0928 -181.817q-70.4736 -65.7061 -139.185 -66.6064q-90.7354 -0.900391 -139.186 115.211q-57.2598 138.613 -94.2588 118.812q-43.165 -21.6025 -88.0918 -162.016zM399 845
q-83 -3 -125 -91q-64 -136 -64 -299q0 -157 46 -235q48 -80 109 -80q70 0 117 80q94 157 95 281q1 350 -178 344zM388 1032q381 -3 378 -546q-1 -253 -117 -390q-101 -147 -300 -145q-106 1 -223 148q-112 142 -112 374q0 209 134 404q107 156 240 155z" />
    <glyph glyph-name="odieresis" unicode="&#xf6;" horiz-adv-x="807" 
d="M517 1355q123 0 123 -93q0 -91 -125 -91q-116 0 -116 88q0 96 118 96zM104 1355q123 0 123 -93q0 -91 -125 -91q-116 0 -116 88q0 96 118 96zM399 845q-83 -3 -125 -91q-64 -136 -64 -299q0 -157 46 -235q48 -80 109 -80q70 0 117 80q94 157 95 281q1 350 -178 344z
M388 1032q381 -3 378 -546q-1 -253 -117 -390q-101 -147 -300 -145q-106 1 -223 148q-112 142 -112 374q0 209 134 404q107 156 240 155z" />
    <glyph glyph-name="divide" unicode="&#xf7;" horiz-adv-x="822" 
d="M128 733l504 2q124 0 125 -92q0 -95 -119 -95l-519 1q-87 0 -87 90q0 94 96 94zM400 367q12 3 24 3q13 0 25 -3q24 -6 42 -24q21 -19 25 -41q3 -12 3 -24q0 -15 -2 -23q-8 -27 -29 -46q-19 -17 -51 -22q-7 -1 -13 -1q-22 0 -42 9q-26 12 -41 37q-13 21 -13 46q0 19 7 35
q8 20 26 34q16 14 39 20zM374 1139q8 3 15 3q9 0 16 -3q16 -6 27 -24q14 -19 16 -41q2 -12 2 -24q0 -15 -1 -23q-5 -27 -19 -46q-12 -17 -32 -22q-5 -1 -9 -1q-14 0 -27 9q-16 12 -26 37q-8 21 -8 46q0 19 4 35q5 20 17 34q10 14 25 20z" />
    <glyph glyph-name="oslash" unicode="&#xf8;" horiz-adv-x="879" 
d="M156 -23q-48 -54 -92 -15q-60 53 -12 106l670 958q38 42 86 2q53 -46 16 -88zM450 845q-84 -3 -126 -91q-64 -136 -64 -299q0 -157 47 -235q47 -80 108 -80q70 0 118 80q51 85 51 273q1 356 -134 352zM445 1049q326 -3 325 -576q-1 -244 -108 -371q-105 -153 -262 -151
q-114 1 -224 148q-112 133 -112 374q0 228 134 404q107 174 247 172z" />
    <glyph glyph-name="ugrave" unicode="&#xf9;" horiz-adv-x="883" 
d="M276 1630q74 60 131 -11l208 -260q81 -102 28 -155q-56 -56 -144 40l-237 260q-61 67 14 126zM677 -76q-103 0 -102 99l1 59q-70 -99 -179 -99q-315 1 -311 456l4 491q2 120 96 129q105 9 103 -111l-1 -437q-2 -242 48 -295q66 -70 158 2q85 66 90 230l12 505
q3 109 109 108q90 -2 88 -110l-24 -934q-2 -93 -92 -93z" />
    <glyph glyph-name="uacute" unicode="&#xfa;" horiz-adv-x="883" 
d="M627 1624q75 -59 14 -126l-237 -260q-87 -96 -144 -40q-54 53 28 155l208 260q57 71 131 11zM677 -76q-103 0 -102 99l1 59q-70 -99 -179 -99q-315 1 -311 456l4 491q2 120 96 129q105 9 103 -111l-1 -437q-2 -242 48 -295q66 -70 158 2q85 66 90 230l12 505
q3 109 109 108q90 -2 88 -110l-24 -934q-2 -93 -92 -93z" />
    <glyph glyph-name="ucircumflex" unicode="&#xfb;" horiz-adv-x="883" 
d="M359 1710q28 1 56 -48l252 -306q70 -77 20 -129q-76 -80 -146 -3l-182 262l-180 -262q-70 -77 -148 3q-48 52 22 129l250 306q29 49 56 48zM677 -76q-103 0 -102 99l1 59q-70 -99 -179 -99q-315 1 -311 456l4 491q2 120 96 129q105 9 103 -111l-1 -437q-2 -242 48 -295
q66 -70 158 2q85 66 90 230l12 505q3 109 109 108q90 -2 88 -110l-24 -934q-2 -93 -92 -93z" />
    <glyph glyph-name="udieresis" unicode="&#xfc;" horiz-adv-x="883" 
d="M559 1367q123 0 123 -93q0 -91 -125 -91q-116 0 -116 88q0 96 118 96zM146 1367q123 0 123 -93q0 -91 -125 -91q-116 0 -116 88q0 96 118 96zM677 -76q-103 0 -102 99l1 59q-70 -99 -179 -99q-315 1 -311 456l4 491q2 120 96 129q105 9 103 -111l-1 -437q-2 -242 48 -295
q66 -70 158 2q85 66 90 230l12 505q3 109 109 108q90 -2 88 -110l-24 -934q-2 -93 -92 -93z" />
    <glyph glyph-name="yacute" unicode="&#xfd;" horiz-adv-x="869" 
d="M544 1618q75 -59 14 -126l-237 -260q-87 -96 -144 -40q-54 53 28 155l208 260q57 71 131 11zM782 1029q96 -41 45 -159l-448 -1317q-44 -160 -100 -124q-93 43 -24 202l128 460l-345 770q-64 118 24 165q93 50 156 -69l228 -637l189 631q51 118 147 78z" />
    <glyph glyph-name="thorn" unicode="&#xfe;" horiz-adv-x="888" 
d="M229 1324q83 2 80 -152q-4 -142 -4 -243q487 75 479 -515q-6 -454 -511 -433q14 -1 4 -433q-4 -117 -96 -117q-88 0 -86 117l30 1620q2 154 104 156zM299 754l-21 -583q324 1 326 261q6 351 -305 322z" />
    <glyph glyph-name="ydieresis" unicode="&#xff;" horiz-adv-x="869" 
d="M500 1361q123 0 123 -93q0 -91 -125 -91q-116 0 -116 88q0 96 118 96zM87 1361q123 0 123 -93q0 -91 -125 -91q-116 0 -116 88q0 96 118 96zM782 1029q96 -41 45 -159l-448 -1317q-44 -160 -100 -124q-93 43 -24 202l128 460l-345 770q-64 118 24 165q93 50 156 -69
l228 -637l189 631q51 118 147 78z" />
    <glyph glyph-name="Amacron" unicode="&#x100;" 
d="M249 1803l473 2q100 0 101 -76q0 -78 -96 -78l-485 1q-70 0 -70 74q0 77 77 77zM657 1363l368 -1241q39 -133 -50 -166q-85 -32 -144 110l-89 214l-380 -10l-65 -204q-44 -139 -144 -110q-91 27 -50 166l368 1241q49 166 93 166t93 -166zM559 1100l-162 -645l310 8z" />
    <glyph glyph-name="amacron" unicode="&#x101;" horiz-adv-x="836" 
d="M127 1323l473 2q100 0 101 -76q0 -78 -96 -78l-485 1q-70 0 -70 74q0 77 77 77zM573 45q-159 -105 -214 -105q-171 -2 -257 48q-87 50 -114 184q-17 80 -15 145q19 135 63 195q97 132 288 183q92 24 162 -9q4 53 8 107l-40 62l-92 16q-21 0 -124 -40q-139 -54 -153 -9
q-35 107 35 143q85 43 184 64q235 51 302 -50l48 -80l22 -124l-10 -154q-11 -91 24 -262q25 -126 52 -252q42 -78 34 -121.5t-77 -50.5q-107 -16 -126 110zM343 117q72 -3 133 62q6 7 20 25q17 21 18 22q0 35 -34 242q6 25 -39 47l-14 7q-78 27 -166 -20q-38 -19 -59 -47
q-67 -91 -64 -172q0 -7 2 -20q1 -14 2 -19q11 -87 70 -110q26 -11 74 -14q43 -3 57 -3z" />
    <glyph glyph-name="Abreve" unicode="&#x102;" 
d="M477 1796q147 -5 197 145q45 137 116 112q76 -27 36 -144q-90 -260 -352 -258q-244 2 -335 233q-60 151 29 168q90 17 111 -93q29 -157 198 -163zM657 1363l368 -1241q39 -133 -50 -166q-85 -32 -144 110l-89 214l-380 -10l-65 -204q-44 -139 -144 -110q-91 27 -50 166
l368 1241q49 166 93 166t93 -166zM559 1100l-162 -645l310 8z" />
    <glyph glyph-name="abreve" unicode="&#x103;" horiz-adv-x="836" 
d="M287 1316q147 -5 197 145q45 137 116 112q76 -27 36 -144q-90 -260 -352 -258q-244 2 -335 233q-60 151 29 168q90 17 111 -93q29 -157 198 -163zM573 45q-159 -105 -214 -105q-171 -2 -257 48q-87 50 -114 184q-17 80 -15 145q19 135 63 195q97 132 288 183
q92 24 162 -9q4 53 8 107l-40 62l-92 16q-21 0 -124 -40q-139 -54 -153 -9q-35 107 35 143q85 43 184 64q235 51 302 -50l48 -80l22 -124l-10 -154q-11 -91 24 -262q25 -126 52 -252q42 -78 34 -121.5t-77 -50.5q-107 -16 -126 110zM343 117q72 -3 133 62q6 7 20 25
q17 21 18 22q0 35 -34 242q6 25 -39 47l-14 7q-78 27 -166 -20q-38 -19 -59 -47q-67 -91 -64 -172q0 -7 2 -20q1 -14 2 -19q11 -87 70 -110q26 -11 74 -14q43 -3 57 -3z" />
    <glyph glyph-name="Aogonek" unicode="&#x104;" horiz-adv-x="846" 
d="M1144 53q30 -75 -37 -96q-59 -18 -84 -34q-88 -54 -88 -103q0 -82 80 -97q63 -12 126 17q68 31 90 29q58 -6 62 -42q9 -66 -51 -103q-100 -62 -207 -57q-164 7 -209 108q-82 186 54 324q65 68 160 83q87 14 104 -29zM657 1363l368 -1241q39 -133 -50 -166
q-85 -32 -144 110l-89 214l-380 -10l-65 -204q-44 -139 -144 -110q-91 27 -50 166l368 1241q49 166 93 166t93 -166zM559 1100l-162 -645l310 8z" />
    <glyph glyph-name="aogonek" unicode="&#x105;" horiz-adv-x="601" 
d="M829 54q30 -75 -37 -96q-59 -18 -84 -34q-88 -54 -88 -103q0 -82 80 -97q63 -12 126 17q68 31 90 29q58 -6 62 -42q9 -66 -51 -103q-100 -62 -207 -57q-164 7 -209 108q-82 186 54 324q65 68 160 83q87 14 104 -29zM573 45q-159 -105 -214 -105q-171 -2 -257 48
q-87 50 -114 184q-17 80 -15 145q19 135 63 195q97 132 288 183q92 24 162 -9q4 53 8 107l-40 62l-92 16q-21 0 -124 -40q-139 -54 -153 -9q-35 107 35 143q85 43 184 64q235 51 302 -50l48 -80l22 -124l-10 -154q-11 -91 24 -262q25 -126 52 -252q42 -78 34 -121.5
t-77 -50.5q-107 -16 -126 110zM343 117q72 -3 133 62q6 7 20 25q17 21 18 22q0 35 -34 242q6 25 -39 47l-14 7q-78 27 -166 -20q-38 -19 -59 -47q-67 -91 -64 -172q0 -7 2 -20q1 -14 2 -19q11 -87 70 -110q26 -11 74 -14q43 -3 57 -3z" />
    <glyph glyph-name="Cacute" unicode="&#x106;" horiz-adv-x="1019" 
d="M956 2098q75 -59 14 -126l-237 -260q-87 -96 -144 -40q-54 53 28 155l208 260q57 71 131 11zM466 1244q-61 -63 -108 -188q-52 -141 -52 -383q0 -223 61 -369q48 -115 130 -121q115 -9 178 55q129 91 185 79q97 -18 82 -153q-8 -76 -201 -155q-117 -66 -235 -59
q-155 8 -273 198q-146 192 -145 501q0 369 134 560q156 276 295 311q133 33 273 -52q127 -65 131 -122q4 -73 -35 -111q-71 -66 -146 -14q-59 47 -116 68q-85 30 -158 -45z" />
    <glyph glyph-name="cacute" unicode="&#x107;" horiz-adv-x="838" 
d="M804 1623q75 -59 14 -126l-237 -260q-87 -96 -144 -40q-54 53 28 155l208 260q57 71 131 11zM620 211q88 59 144 -35q33 -56 -52 -131q-110 -94 -288 -93q-119 1 -207 120q-153 148 -153 371q0 246 109 403q110 191 240 206q76 9 153 -23q121 -41 161 -103
q61 -96 -7 -145q-47 -34 -144 38q-92 87 -187 40q-53 -26 -96 -122q-49 -110 -51 -252q-3 -134 50 -245q48 -99 132 -104q87 -5 196 75z" />
    <glyph glyph-name="Ccircumflex" unicode="&#x108;" horiz-adv-x="1019" 
d="M538 2175q28 1 56 -48l252 -306q70 -77 20 -129q-76 -80 -146 -3l-182 262l-180 -262q-70 -77 -148 3q-48 52 22 129l250 306q29 49 56 48zM466 1244q-61 -63 -108 -188q-52 -141 -52 -383q0 -223 61 -369q48 -115 130 -121q115 -9 178 55q129 91 185 79q97 -18 82 -153
q-8 -76 -201 -155q-117 -66 -235 -59q-155 8 -273 198q-146 192 -145 501q0 369 134 560q156 276 295 311q133 33 273 -52q127 -65 131 -122q4 -73 -35 -111q-71 -66 -146 -14q-59 47 -116 68q-85 30 -158 -45z" />
    <glyph glyph-name="ccircumflex" unicode="&#x109;" horiz-adv-x="838" 
d="M386 1700q28 1 56 -48l252 -306q70 -77 20 -129q-76 -80 -146 -3l-182 262l-180 -262q-70 -77 -148 3q-48 52 22 129l250 306q29 49 56 48zM620 211q88 59 144 -35q33 -56 -52 -131q-110 -94 -288 -93q-119 1 -207 120q-153 148 -153 371q0 246 109 403q110 191 240 206
q76 9 153 -23q121 -41 161 -103q61 -96 -7 -145q-47 -34 -144 38q-92 87 -187 40q-53 -26 -96 -122q-49 -110 -51 -252q-3 -134 50 -245q48 -99 132 -104q87 -5 196 75z" />
    <glyph glyph-name="Cdot" unicode="&#x10a;" horiz-adv-x="1019" 
d="M618 1899h4q34 0 63 -17q31 -18 47 -50q14 -27 14 -58v-10q-3 -36 -25 -65q-20 -26 -44 -37q-25 -13 -56 -12h-6q-31 1 -57 17q-27 16 -44 44q-17 29 -17 63q0 32 16 60q17 29 43 47q28 18 62 18zM466 1244q-61 -63 -108 -188q-52 -141 -52 -383q0 -223 61 -369
q48 -115 130 -121q115 -9 178 55q129 91 185 79q97 -18 82 -153q-8 -76 -201 -155q-117 -66 -235 -59q-155 8 -273 198q-146 192 -145 501q0 369 134 560q156 276 295 311q133 33 273 -52q127 -65 131 -122q4 -73 -35 -111q-71 -66 -146 -14q-59 47 -116 68q-85 30 -158 -45
z" />
    <glyph glyph-name="cdot" unicode="&#x10b;" horiz-adv-x="838" 
d="M466 1424h4q34 0 63 -17q31 -18 47 -50q14 -27 14 -58v-10q-3 -36 -25 -65q-20 -26 -44 -37q-25 -13 -56 -12h-6q-31 1 -57 17q-27 16 -44 44q-17 29 -17 63q0 32 16 60q17 29 43 47q28 18 62 18zM620 211q88 59 144 -35q33 -56 -52 -131q-110 -94 -288 -93
q-119 1 -207 120q-153 148 -153 371q0 246 109 403q110 191 240 206q76 9 153 -23q121 -41 161 -103q61 -96 -7 -145q-47 -34 -144 38q-92 87 -187 40q-53 -26 -96 -122q-49 -110 -51 -252q-3 -134 50 -245q48 -99 132 -104q87 -5 196 75z" />
    <glyph glyph-name="Ccaron" unicode="&#x10c;" horiz-adv-x="1019" 
d="M546 1651q-23 -1 -48 41l-228 262q-60 66 -18 111q66 69 126 2l168 -224l168 224q61 66 127 -2q42 -44 -19 -111l-228 -262q-24 -42 -48 -41zM466 1244q-61 -63 -108 -188q-52 -141 -52 -383q0 -223 61 -369q48 -115 130 -121q115 -9 178 55q129 91 185 79
q97 -18 82 -153q-8 -76 -201 -155q-117 -66 -235 -59q-155 8 -273 198q-146 192 -145 501q0 369 134 560q156 276 295 311q133 33 273 -52q127 -65 131 -122q4 -73 -35 -111q-71 -66 -146 -14q-59 47 -116 68q-85 30 -158 -45z" />
    <glyph glyph-name="ccaron" unicode="&#x10d;" horiz-adv-x="838" 
d="M394 1176q-23 -1 -48 41l-228 262q-60 66 -18 111q66 69 126 2l168 -224l168 224q61 66 127 -2q42 -44 -19 -111l-228 -262q-24 -42 -48 -41zM620 211q88 59 144 -35q33 -56 -52 -131q-110 -94 -288 -93q-119 1 -207 120q-153 148 -153 371q0 246 109 403
q110 191 240 206q76 9 153 -23q121 -41 161 -103q61 -96 -7 -145q-47 -34 -144 38q-92 87 -187 40q-53 -26 -96 -122q-49 -110 -51 -252q-3 -134 50 -245q48 -99 132 -104q87 -5 196 75z" />
    <glyph glyph-name="Dcaron" unicode="&#x10e;" horiz-adv-x="1174" 
d="M561 1647q-23 -1 -48 41l-228 262q-60 66 -18 111q66 69 126 2l168 -224l168 224q61 66 127 -2q42 -44 -19 -111l-228 -262q-24 -42 -48 -41zM244 1525q24 0 44 -5q12 -1 24 -3q240 -41 415 -274q346 -333 323 -704q-15 -271 -271 -487q-80 -100 -314 -105
q-137 -3 -224 2q-15 -3 -35 -3q-91 2 -88 105l34 1385q2 89 92 89zM343 1290l-26 -1152l140 -3q215 8 281 120q101 151 110 294q17 249 -202 532q-134 195 -303 209z" />
    <glyph glyph-name="dcaron" unicode="&#x10f;" horiz-adv-x="1086" 
d="M1132 1487q0 116 129 116q128 0 128 -162q0 -42 -11 -86q-33 -134 -85.5 -193t-99.5 -59q-21 0 -48 20t-27 58t32 89t53 89q-66 40 -71 116v12zM749 1610q104 0 102 -99l-31 -1447q-1 -109 -109 -107q-80 2 -85 86q-95 -94 -203 -93q-110 1 -203 132q-148 148 -156 345
q-9 266 138 447q103 171 246 171q77 0 135 -51l60 -54l14 577q2 91 92 93zM627 269q11 208 11 441q-117 183 -227 141q-80 -31 -116 -100q-51 -99 -53 -276q-2 -114 53 -225q43 -90 128 -105q90 -16 204 124z" />
    <glyph glyph-name="Dslash" unicode="&#x110;" horiz-adv-x="1111" 
d="M80 583q-111 0 -108 97q3 103 114 103h487q71 0 73 -109q0 -92 -72 -92zM323 1525q24 0 44 -5q12 -1 24 -3q235 -41 410 -274q346 -333 323 -704q-15 -271 -270 -487q-80 -100 -309 -105q-135 -3 -222 2q-15 -3 -35 -3q-91 2 -88 105l31 1385q2 89 92 89zM417 1290
l-18 -1152l138 -3q212 8 277 120q99 151 108 294q17 249 -202 532q-133 195 -303 209z" />
    <glyph glyph-name="dcroat" unicode="&#x111;" horiz-adv-x="916" 
d="M453 1188q-50 1 -50 72q2 85 52 84l437 -6q77 -1 75 -84q-1 -73 -78 -72zM749 1610q104 0 102 -99l-31 -1447q-1 -109 -109 -107q-80 2 -85 86q-95 -94 -203 -93q-110 1 -203 132q-148 148 -156 345q-9 266 138 447q103 171 246 171q77 0 135 -51l60 -54l14 577
q2 91 92 93zM627 269q11 208 11 441q-117 183 -227 141q-80 -31 -116 -100q-51 -99 -53 -276q-2 -114 53 -225q43 -90 128 -105q90 -16 204 124z" />
    <glyph glyph-name="Emacron" unicode="&#x112;" horiz-adv-x="1036" 
d="M362 1789l473 2q100 0 101 -76q0 -78 -96 -78l-485 1q-70 0 -70 74q0 77 77 77zM293 1501l490 4q141 1 144 -115q3 -91 -138 -92q-250 -2 -461 -4l-8 -606l354 3q136 1 141 -114q3 -92 -137 -93l-361 -3l-12 -314l416 3q141 1 144 -114q3 -92 -138 -93l-496 -4
q-12 2 -22 2h-16q-90 2 -87 102l33 1353q2 87 94 86q18 0 37 -3q6 -1 23 2z" />
    <glyph glyph-name="emacron" unicode="&#x113;" horiz-adv-x="833" 
d="M81 1330l473 2q100 0 101 -76q0 -78 -96 -78l-485 1q-70 0 -70 74q0 77 77 77zM195 361q3 -79 38 -126q72 -99 162 -98q127 2 194 80q63 74 110 84q48 10 68 -30q47 -93 -44 -174q-162 -144 -336 -140q-94 2 -214 120q-162 160 -162 317q0 285 99 446q125 203 253 215
q140 13 269 -139q129 -153 125 -327q-4 -117 -111 -138zM211 561l385 65q-15 118 -96 194q-76 72 -119 55q-89 -34 -134 -131q-36 -76 -36 -183z" />
    <glyph glyph-name="Ebreve" unicode="&#x114;" horiz-adv-x="1036" 
d="M500 1782q147 -5 197 145q45 137 116 112q76 -27 36 -144q-90 -260 -352 -258q-244 2 -335 233q-60 151 29 168q90 17 111 -93q29 -157 198 -163zM293 1501l490 4q141 1 144 -115q3 -91 -138 -92q-250 -2 -461 -4l-8 -606l354 3q136 1 141 -114q3 -92 -137 -93l-361 -3
l-12 -314l416 3q141 1 144 -114q3 -92 -138 -93l-496 -4q-12 2 -22 2h-16q-90 2 -87 102l33 1353q2 87 94 86q18 0 37 -3q6 -1 23 2z" />
    <glyph glyph-name="ebreve" unicode="&#x115;" horiz-adv-x="833" 
d="M310 1323q147 -5 197 145q45 137 116 112q76 -27 36 -144q-90 -260 -352 -258q-244 2 -335 233q-60 151 29 168q90 17 111 -93q29 -157 198 -163zM195 361q3 -79 38 -126q72 -99 162 -98q127 2 194 80q63 74 110 84q48 10 68 -30q47 -93 -44 -174q-162 -144 -336 -140
q-94 2 -214 120q-162 160 -162 317q0 285 99 446q125 203 253 215q140 13 269 -139q129 -153 125 -327q-4 -117 -111 -138zM211 561l385 65q-15 118 -96 194q-76 72 -119 55q-89 -34 -134 -131q-36 -76 -36 -183z" />
    <glyph glyph-name="Edot" unicode="&#x116;" horiz-adv-x="1036" 
d="M633 1885h4q34 0 63 -17q31 -18 47 -50q14 -27 14 -58v-10q-3 -36 -25 -65q-20 -26 -44 -37q-25 -13 -56 -12h-6q-31 1 -57 17q-27 16 -44 44q-17 29 -17 63q0 32 16 60q17 29 43 47q28 18 62 18zM285 1509l490 4q141 1 144 -115q3 -91 -138 -92q-250 -2 -461 -4l-8 -606
l354 3q136 1 141 -114q3 -92 -137 -93l-361 -3l-12 -314l416 3q141 1 144 -114q3 -92 -138 -93l-496 -4q-12 2 -22 2h-16q-90 2 -87 102l33 1353q2 87 94 86q18 0 37 -3q6 -1 23 2z" />
    <glyph glyph-name="edot" unicode="&#x117;" horiz-adv-x="833" 
d="M397 1426h4q34 0 63 -17q31 -18 47 -50q14 -27 14 -58v-10q-3 -36 -25 -65q-20 -26 -44 -37q-25 -13 -56 -12h-6q-31 1 -57 17q-27 16 -44 44q-17 29 -17 63q0 32 16 60q17 29 43 47q28 18 62 18zM195 361q3 -79 38 -126q72 -99 162 -98q127 2 194 80q63 74 110 84
q48 10 68 -30q47 -93 -44 -174q-162 -144 -336 -140q-94 2 -214 120q-162 160 -162 317q0 285 99 446q125 203 253 215q140 13 269 -139q129 -153 125 -327q-4 -117 -111 -138zM211 561l385 65q-15 118 -96 194q-76 72 -119 55q-89 -34 -134 -131q-36 -76 -36 -183z" />
    <glyph glyph-name="Eogonek" unicode="&#x118;" horiz-adv-x="733" 
d="M938 79q30 -75 -37 -96q-59 -18 -84 -34q-88 -54 -88 -103q0 -82 80 -97q63 -12 126 17q68 31 90 29q58 -6 62 -42q9 -66 -51 -103q-100 -62 -207 -57q-164 7 -209 108q-82 186 54 324q65 68 160 83q87 14 104 -29zM293 1501l490 4q141 1 144 -115q3 -91 -138 -92
q-250 -2 -461 -4l-8 -606l354 3q136 1 141 -114q3 -92 -137 -93l-361 -3l-12 -314l416 3q141 1 144 -114q3 -92 -138 -93l-496 -4q-12 2 -22 2h-16q-90 2 -87 102l33 1353q2 87 94 86q18 0 37 -3q6 -1 23 2z" />
    <glyph glyph-name="eogonek" unicode="&#x119;" horiz-adv-x="833" 
d="M674 125q30 -75 -37 -96q-59 -18 -84 -34q-88 -54 -88 -103q0 -82 80 -97q63 -12 126 17q68 31 90 29q58 -6 62 -42q9 -66 -51 -103q-100 -62 -207 -57q-164 7 -209 108q-82 186 54 324q65 68 160 83q87 14 104 -29zM195 361q3 -79 38 -126q72 -99 162 -98q127 2 194 80
q63 74 110 84q48 10 68 -30q47 -93 -44 -174q-162 -144 -336 -140q-94 2 -214 120q-162 160 -162 317q0 285 99 446q125 203 253 215q140 13 269 -139q129 -153 125 -327q-4 -117 -111 -138zM211 561l385 65q-15 118 -96 194q-76 72 -119 55q-89 -34 -134 -131
q-36 -76 -36 -183z" />
    <glyph glyph-name="Ecaron" unicode="&#x11a;" horiz-adv-x="1036" 
d="M531 1643q-23 -1 -48 41l-228 262q-60 66 -18 111q66 69 126 2l168 -224l168 224q61 66 127 -2q42 -44 -19 -111l-228 -262q-24 -42 -48 -41zM293 1501l490 4q141 1 144 -115q3 -91 -138 -92q-250 -2 -461 -4l-8 -606l354 3q136 1 141 -114q3 -92 -137 -93l-361 -3
l-12 -314l416 3q141 1 144 -114q3 -92 -138 -93l-496 -4q-12 2 -22 2h-16q-90 2 -87 102l33 1353q2 87 94 86q18 0 37 -3q6 -1 23 2z" />
    <glyph glyph-name="ecaron" unicode="&#x11b;" horiz-adv-x="833" 
d="M325 1178q-23 -1 -48 41l-228 262q-60 66 -18 111q66 69 126 2l168 -224l168 224q61 66 127 -2q42 -44 -19 -111l-228 -262q-24 -42 -48 -41zM195 361q3 -79 38 -126q72 -99 162 -98q127 2 194 80q63 74 110 84q48 10 68 -30q47 -93 -44 -174q-162 -144 -336 -140
q-94 2 -214 120q-162 160 -162 317q0 285 99 446q125 203 253 215q140 13 269 -139q129 -153 125 -327q-4 -117 -111 -138zM211 561l385 65q-15 118 -96 194q-76 72 -119 55q-89 -34 -134 -131q-36 -76 -36 -183z" />
    <glyph glyph-name="Gcircumflex" unicode="&#x11c;" horiz-adv-x="1088" 
d="M502 2167q28 1 56 -48l252 -306q70 -77 20 -129q-76 -80 -146 -3l-182 262l-180 -262q-70 -77 -148 3q-48 52 22 129l250 306q29 49 56 48zM682 276q73 99 94 279l-245 -4q-80 -1 -82 107q-2 99 93 101l394 8q95 1 87 -99q-30 -381 -224 -557q-136 -169 -335 -160
q-153 7 -269 199q-147 192 -146 500q0 368 152 592q116 222 274 266q161 42 270 -56q158 -100 184 -190q26 -91 -36 -135q-68 -48 -167 73q-58 97 -161 104q-63 4 -135 -54q-76 -61 -121 -193q-53 -152 -53 -383q0 -252 58 -369q66 -134 148 -141q137 -12 220 112z" />
    <glyph glyph-name="gcircumflex" unicode="&#x11d;" horiz-adv-x="849" 
d="M404 1703q28 1 56 -48l252 -306q70 -77 20 -129q-76 -80 -146 -3l-182 262l-180 -262q-70 -77 -148 3q-48 52 22 129l250 306q29 49 56 48zM569 600q16 93 12 121q-5 127 -115 128q-83 0 -152 -67q-81 -75 -105 -309q-28 -266 122 -283q139 -18 192 166q13 34 46 244z
M703 933q83 -16 80 -136l-19 -831q-13 -577 -485 -531q-167 16 -224 43q-71 34 -54 112q19 86 113 64q172 -42 332 -3q86 21 108 303l12 153q-55 -138 -256 -115q-404 47 -280 628q83 392 385 433q204 28 265 -118q10 0 23 -2z" />
    <glyph glyph-name="Gbreve" unicode="&#x11e;" horiz-adv-x="1088" 
d="M494 1788q147 -5 197 145q45 137 116 112q76 -27 36 -144q-90 -260 -352 -258q-244 2 -335 233q-60 151 29 168q90 17 111 -93q29 -157 198 -163zM682 276q73 99 94 279l-245 -4q-80 -1 -82 107q-2 99 93 101l394 8q95 1 87 -99q-30 -381 -224 -557q-136 -169 -335 -160
q-153 7 -269 199q-147 192 -146 500q0 368 152 592q116 222 274 266q161 42 270 -56q158 -100 184 -190q26 -91 -36 -135q-68 -48 -167 73q-58 97 -161 104q-63 4 -135 -54q-76 -61 -121 -193q-53 -152 -53 -383q0 -252 58 -369q66 -134 148 -141q137 -12 220 112z" />
    <glyph glyph-name="gbreve" unicode="&#x11f;" horiz-adv-x="849" 
d="M395 1325q147 -5 197 145q45 137 116 112q76 -27 36 -144q-90 -260 -352 -258q-244 2 -335 233q-60 151 29 168q90 17 111 -93q29 -157 198 -163zM569 600q16 93 12 121q-5 127 -115 128q-83 0 -152 -67q-81 -75 -105 -309q-28 -266 122 -283q139 -18 192 166
q13 34 46 244zM703 933q83 -16 80 -136l-19 -831q-13 -577 -485 -531q-167 16 -224 43q-71 34 -54 112q19 86 113 64q172 -42 332 -3q86 21 108 303l12 153q-55 -138 -256 -115q-404 47 -280 628q83 392 385 433q204 28 265 -118q10 0 23 -2z" />
    <glyph glyph-name="Gdot" unicode="&#x120;" horiz-adv-x="1088" 
d="M582 1891h4q34 0 63 -17q31 -18 47 -50q14 -27 14 -58v-10q-3 -36 -25 -65q-20 -26 -44 -37q-25 -13 -56 -12h-6q-31 1 -57 17q-27 16 -44 44q-17 29 -17 63q0 32 16 60q17 29 43 47q28 18 62 18zM682 276q73 99 94 279l-245 -4q-80 -1 -82 107q-2 99 93 101l394 8
q95 1 87 -99q-30 -381 -224 -557q-136 -169 -335 -160q-153 7 -269 199q-147 192 -146 500q0 368 152 592q116 222 274 266q161 42 270 -56q158 -100 184 -190q26 -91 -36 -135q-68 -48 -167 73q-58 97 -161 104q-63 4 -135 -54q-76 -61 -121 -193q-53 -152 -53 -383
q0 -252 58 -369q66 -134 148 -141q137 -12 220 112z" />
    <glyph glyph-name="gdot" unicode="&#x121;" horiz-adv-x="849" 
d="M483 1428h4q34 0 63 -17q31 -18 47 -50q14 -27 14 -58v-10q-3 -36 -25 -65q-20 -26 -44 -37q-25 -13 -56 -12h-6q-31 1 -57 17q-27 16 -44 44q-17 29 -17 63q0 32 16 60q17 29 43 47q28 18 62 18zM569 600q16 93 12 121q-5 127 -115 128q-83 0 -152 -67
q-81 -75 -105 -309q-28 -266 122 -283q139 -18 192 166q13 34 46 244zM703 933q83 -16 80 -136l-19 -831q-13 -577 -485 -531q-167 16 -224 43q-71 34 -54 112q19 86 113 64q172 -42 332 -3q86 21 108 303l12 153q-55 -138 -256 -115q-404 47 -280 628q83 392 385 433
q204 28 265 -118q10 0 23 -2z" />
    <glyph glyph-name="Gcedilla" unicode="&#x122;" horiz-adv-x="1088" 
d="M178 109q10 39 66 41q126 5 252 -114q154 -143 66 -337q-46 -101 -210 -108q-106 -5 -206 57q-60 37 -52 103q4 36 62 42q24 2 91 -28q69 -31 125 -18q62 15 62 80q2 86 -100 138q-48 25 -106 42q-72 19 -50 102zM682 276q73 99 94 279l-245 -4q-80 -1 -82 107
q-2 99 93 101l394 8q95 1 87 -99q-30 -381 -224 -557q-136 -169 -335 -160q-153 7 -269 199q-147 192 -146 500q0 368 152 592q116 222 274 266q161 42 270 -56q158 -100 184 -190q26 -91 -36 -135q-68 -48 -167 73q-58 97 -161 104q-63 4 -135 -54q-76 -61 -121 -193
q-53 -152 -53 -383q0 -252 58 -369q66 -134 148 -141q137 -12 220 112z" />
    <glyph glyph-name="gcedilla" unicode="&#x123;" horiz-adv-x="626" 
d="M371 1627q86 98 146 53q68 -50 5 -151q-33 -53 -54 -91q66 -40 71 -115q6 -113 -96 -126q-128 -16 -153 90q-18 73 3 155q33 135 78 185zM569 600q16 93 12 121q-5 127 -115 128q-83 0 -152 -67q-81 -75 -105 -309q-28 -266 122 -283q139 -18 192 166q13 34 46 244z
M703 933q83 -16 80 -136l-19 -831q-13 -577 -485 -531q-167 16 -224 43q-71 34 -54 112q19 86 113 64q172 -42 332 -3q86 21 108 303l12 153q-55 -138 -256 -115q-404 47 -280 628q83 392 385 433q204 28 265 -118q10 0 23 -2z" />
    <glyph glyph-name="Hcircumflex" unicode="&#x124;" horiz-adv-x="1207" 
d="M544 2162q28 1 56 -48l252 -306q70 -77 20 -129q-76 -80 -146 -3l-182 262l-180 -262q-70 -77 -148 3q-48 52 22 129l250 306q29 49 56 48zM229 1513q98 0 97 -93l-9 -580h553l12 584q2 86 92 88q104 0 102 -93l-27 -1364q-1 -103 -109 -101q-90 2 -88 103l14 574h-559
l-8 -575q-2 -103 -110 -102q-90 2 -87 103l33 1368q2 86 94 88z" />
    <glyph glyph-name="hcircumflex" unicode="&#x125;" horiz-adv-x="948" 
d="M478 2153q28 1 56 -48l252 -306q70 -77 20 -129q-76 -80 -146 -3l-182 262l-180 -262q-70 -77 -148 3q-48 52 22 129l250 306q29 49 56 48zM221 1611q92 0 91 -100l-7 -592q80 116 213 116q316 -1 312 -456l-4 -507q-1 -121 -96 -129q-107 -9 -106 111l3 479
q2 266 -104 279q-118 16 -218 -171l-14 -577q-4 -109 -110 -107q-89 2 -87 109l33 1451q2 92 94 94z" />
    <glyph glyph-name="Hbar" unicode="&#x126;" horiz-adv-x="1271" 
d="M94 1106q-117 0 -117 96q0 99 135 99l1058 3q135 0 136 -98q0 -100 -125 -100h-1087zM299 1513q98 0 97 -93l-9 -580h554l12 584q2 86 92 88q104 0 102 -93l-28 -1364q-1 -103 -109 -101q-89 2 -88 103l14 574h-559l-8 -575q-2 -103 -110 -102q-90 2 -87 103l33 1368
q2 86 94 88z" />
    <glyph glyph-name="hbar" unicode="&#x127;" horiz-adv-x="954" 
d="M76 1183q-77 1 -77 84q0 88 86 88l456 2q71 0 71 -86q0 -89 -68 -89q-2 -3 -468 1zM275 1611q91 0 90 -100l-6 -592q80 116 213 116q316 -1 312 -456l-4 -507q-1 -121 -96 -129q-107 -9 -106 111l3 479q2 266 -104 279q-118 16 -218 -171l-14 -577q-4 -109 -110 -107
q-89 2 -87 109l33 1451q2 92 94 94z" />
    <glyph glyph-name="Itilde" unicode="&#x128;" horiz-adv-x="985" 
d="M190.897 1699.45q-37.8799 -75.6074 -107.473 -44.1045q-59.0215 27.0029 -35.2363 108.911q30.832 106.21 118.924 182.717q65.1885 76.5078 124.21 75.6074q76.6396 -0.900391 110.996 -101.71q44.9268 -124.212 103.948 -127.812q44.9268 -2.70117 72.2354 125.111
q27.3086 84.6084 86.3301 81.9082q80.1641 -2.7002 74.8789 -124.212q-4.40527 -102.61 -88.0928 -181.817q-70.4736 -65.7061 -139.185 -66.6064q-90.7354 -0.900391 -139.186 115.211q-57.2598 138.613 -94.2588 118.812q-43.165 -21.6025 -88.0918 -162.016zM192 1494
h616q121 0 123 -108q2 -99 -129 -99h-234l-18 -1122h244q121 0 123 -108q2 -99 -129 -99h-619q-126 0 -126 113q0 95 135 94h176l29 1122h-200q-126 0 -126 112q0 95 135 95z" />
    <glyph glyph-name="itilde" unicode="&#x129;" horiz-adv-x="502" 
d="M-30.1025 1236.45q-37.8799 -75.6074 -107.473 -44.1045q-59.0215 27.0029 -35.2363 108.911q30.832 106.21 118.924 182.717q65.1885 76.5078 124.21 75.6074q76.6396 -0.900391 110.996 -101.71q44.9268 -124.212 103.948 -127.812q44.9268 -2.70117 72.2354 125.111
q27.3086 84.6084 86.3301 81.9082q80.1641 -2.7002 74.8789 -124.212q-4.40527 -102.61 -88.0928 -181.817q-70.4736 -65.7061 -139.185 -66.6064q-90.7354 -0.900391 -139.186 115.211q-57.2598 138.613 -94.2588 118.812q-43.165 -21.6025 -88.0918 -162.016zM239 1047
q95 -2 93 -130l-14 -832q-2 -135 -96 -135q-107 1 -104 127l17 839q3 133 104 131z" />
    <glyph glyph-name="Imacron" unicode="&#x12a;" horiz-adv-x="985" 
d="M161 1786l473 2q100 0 101 -76q0 -78 -96 -78l-485 1q-70 0 -70 74q0 77 77 77zM192 1494h616q121 0 123 -108q2 -99 -129 -99h-234l-18 -1122h244q121 0 123 -108q2 -99 -129 -99h-619q-126 0 -126 113q0 95 135 94h176l29 1122h-200q-126 0 -126 112q0 95 135 95z" />
    <glyph glyph-name="imacron" unicode="&#x12b;" horiz-adv-x="502" 
d="M-61 1323l473 2q100 0 101 -76q0 -78 -96 -78l-485 1q-70 0 -70 74q0 77 77 77zM239 1047q95 -2 93 -130l-14 -832q-2 -135 -96 -135q-107 1 -104 127l17 839q3 133 104 131z" />
    <glyph glyph-name="Ibreve" unicode="&#x12c;" horiz-adv-x="985" 
d="M389 1779q147 -5 197 145q45 137 116 112q76 -27 36 -144q-90 -260 -352 -258q-244 2 -335 233q-60 151 29 168q90 17 111 -93q29 -157 198 -163zM192 1494h616q121 0 123 -108q2 -99 -129 -99h-234l-18 -1122h244q121 0 123 -108q2 -99 -129 -99h-619q-126 0 -126 113
q0 95 135 94h176l29 1122h-200q-126 0 -126 112q0 95 135 95z" />
    <glyph glyph-name="ibreve" unicode="&#x12d;" horiz-adv-x="502" 
d="M168 1316q147 -5 197 145q45 137 116 112q76 -27 36 -144q-90 -260 -352 -258q-244 2 -335 233q-60 151 29 168q90 17 111 -93q29 -157 198 -163zM239 1047q95 -2 93 -130l-14 -832q-2 -135 -96 -135q-107 1 -104 127l17 839q3 133 104 131z" />
    <glyph glyph-name="Iogonek" unicode="&#x12e;" horiz-adv-x="985" 
d="M458 142q30 -75 -37 -96q-59 -18 -84 -34q-88 -54 -88 -103q0 -82 80 -97q63 -12 126 17q68 31 90 29q58 -6 62 -42q9 -66 -51 -103q-100 -62 -207 -57q-164 7 -209 108q-82 186 54 324q65 68 160 83q87 14 104 -29zM192 1494h616q121 0 123 -108q2 -99 -129 -99h-234
l-18 -1122h244q121 0 123 -108q2 -99 -129 -99h-619q-126 0 -126 113q0 95 135 94h176l29 1122h-200q-126 0 -126 112q0 95 135 95z" />
    <glyph glyph-name="iogonek" unicode="&#x12f;" horiz-adv-x="501" 
d="M243 142q30 -75 -37 -96q-59 -18 -84 -34q-88 -54 -88 -103q0 -82 80 -97q63 -12 126 17q68 31 90 29q58 -6 62 -42q9 -66 -51 -103q-100 -62 -207 -57q-164 7 -209 108q-82 186 54 324q65 68 160 83q87 14 104 -29zM261 1501h4q34 0 63 -17q31 -18 47 -50q14 -27 14 -58
v-10q-3 -36 -25 -65q-20 -26 -44 -37q-25 -13 -56 -12h-6q-31 1 -57 17q-27 16 -44 44q-17 29 -17 63q0 32 16 60q17 29 43 47q28 18 62 18zM242 1047q95 -2 93 -130l-14 -832q-2 -135 -96 -135q-107 1 -104 127l17 839q3 133 104 131z" />
    <glyph glyph-name="Idotaccent" unicode="&#x130;" horiz-adv-x="985" 
d="M477 1882h4q34 0 63 -17q31 -18 47 -50q14 -27 14 -58v-10q-3 -36 -25 -65q-20 -26 -44 -37q-25 -13 -56 -12h-6q-31 1 -57 17q-27 16 -44 44q-17 29 -17 63q0 32 16 60q17 29 43 47q28 18 62 18zM192 1494h616q121 0 123 -108q2 -99 -129 -99h-234l-18 -1122h244
q121 0 123 -108q2 -99 -129 -99h-619q-126 0 -126 113q0 95 135 94h176l29 1122h-200q-126 0 -126 112q0 95 135 95z" />
    <glyph glyph-name="dotlessi" unicode="&#x131;" horiz-adv-x="502" 
d="M239 1047q95 -2 93 -130l-14 -832q-2 -135 -96 -135q-107 1 -104 127l17 839q3 133 104 131z" />
    <glyph glyph-name="IJ" unicode="&#x132;" horiz-adv-x="1476" 
d="M1363 1498h729q121 0 123 -103q2 -95 -129 -94h-234v-998q0 -379 -372 -361q-511 24 -480 458q6 88 104 89q97 -1 97 -94q0 -255 276 -255q171 0 171 157v1004h-294q-126 0 -126 107q0 90 135 90zM192 1494h616q121 0 123 -108q2 -99 -129 -99h-234l-18 -1122h244
q121 0 123 -108q2 -99 -129 -99h-619q-126 0 -126 113q0 95 135 94h176l29 1122h-200q-126 0 -126 112q0 95 135 95z" />
    <glyph glyph-name="ij" unicode="&#x133;" horiz-adv-x="694" 
d="M728 1508h4q34 0 63 -17q31 -18 47 -50q14 -27 14 -58v-10q-3 -36 -25 -65q-20 -26 -44 -37q-25 -13 -56 -12h-6q-31 1 -57 17q-27 16 -44 44q-17 29 -17 63q0 32 16 60q17 29 43 47q28 18 62 18zM735 1049q103 0 101 -110l-17 -1170v-7q0 -365 -267 -365h-16
q-207 10 -303 231q-43 98 -43 158q0 69 58 85q25 7 46 7q90 0 116 -127q28 -138 128 -138q74 0 77 156l22 1170q2 110 98 110zM261 1501h4q34 0 63 -17q31 -18 47 -50q14 -27 14 -58v-10q-3 -36 -25 -65q-20 -26 -44 -37q-25 -13 -56 -12h-6q-31 1 -57 17q-27 16 -44 44
q-17 29 -17 63q0 32 16 60q17 29 43 47q28 18 62 18zM242 1047q95 -2 93 -130l-14 -832q-2 -135 -96 -135q-107 1 -104 127l17 839q3 133 104 131z" />
    <glyph glyph-name="Jcircumflex" unicode="&#x134;" horiz-adv-x="1340" 
d="M700 2158q28 1 56 -48l252 -306q70 -77 20 -129q-76 -80 -146 -3l-182 262l-180 -262q-70 -77 -148 3q-48 52 22 129l250 306q29 49 56 48zM428 1498h729q121 0 123 -103q2 -95 -129 -94h-234v-998q0 -379 -372 -361q-511 24 -480 458q6 88 104 89q97 -1 97 -94
q0 -255 276 -255q171 0 171 157v1004h-294q-126 0 -126 107q0 90 135 90z" />
    <glyph glyph-name="jcircumflex" unicode="&#x135;" horiz-adv-x="528" 
d="M397 1647q28 1 56 -48l252 -306q70 -77 20 -129q-76 -80 -146 -3l-182 262l-180 -262q-70 -77 -148 3q-48 52 22 129l250 306q29 49 56 48zM500 1049q103 0 101 -110l-17 -1170v-7q0 -365 -267 -365h-16q-207 10 -303 231q-43 98 -43 158q0 69 58 85q25 7 46 7
q90 0 116 -127q28 -138 128 -138q74 0 77 156l22 1170q2 110 98 110z" />
    <glyph glyph-name="Kcedilla" unicode="&#x136;" horiz-adv-x="1034" 
d="M297 109q10 39 66 41q126 5 252 -114q154 -143 66 -337q-46 -101 -210 -108q-106 -5 -206 57q-60 37 -52 103q4 36 62 42q24 2 91 -28q69 -31 125 -18q62 15 62 80q2 86 -100 138q-48 25 -106 42q-72 19 -50 102zM263 1521q99 0 97 -94l-9 -584l370 611q79 85 154 12
q74 -73 2 -147l-444 -620l470 -526q93 -78 28 -143q-68 -68 -164 11l-426 517l-8 -513q-2 -104 -110 -102q-90 2 -87 104l33 1385q2 87 94 89z" />
    <glyph glyph-name="kcedilla" unicode="&#x137;" horiz-adv-x="921" 
d="M231 109q10 39 66 41q126 5 252 -114q154 -143 66 -337q-46 -101 -210 -108q-106 -5 -206 57q-60 37 -52 103q4 36 62 42q24 2 91 -28q69 -31 125 -18q62 15 62 80q2 86 -100 138q-48 25 -106 42q-72 19 -50 102zM233 1610q94 0 92 -99l-13 -885l294 420q108 98 172 26
q68 -78 -16 -152l-250 -273l292 -475q82 -113 22 -172q-94 -93 -174 23l-235 490l-108 -153l-6 -296q-2 -109 -110 -107q-90 2 -87 109l33 1451q2 91 94 93z" />
    <glyph glyph-name="kgreenlandic" unicode="&#x138;" horiz-adv-x="910" 
d="M197 1161q98 0 98 -99l-4 -436l293 420q108 98 172 26q68 -78 -16 -152l-250 -273l292 -475q82 -113 22 -172q-94 -94 -174 22l-234 491l-109 -153l-6 -296q-2 -109 -110 -107q-90 2 -87 109l20 1002q2 91 93 93z" />
    <glyph glyph-name="Lacute" unicode="&#x139;" horiz-adv-x="1012" 
d="M825 2104q75 -59 14 -126l-237 -260q-87 -96 -144 -40q-54 53 28 155l208 260q57 71 131 11zM171 -44q-90 -1 -87 105l33 1385q2 87 94 89q98 0 96 -95l-24 -1278l575 15q99 2 99 -103q0 -104 -96 -105l-669 -13h-21z" />
    <glyph glyph-name="lacute" unicode="&#x13a;" horiz-adv-x="438" 
d="M615 2179q75 -59 14 -126l-237 -260q-87 -96 -144 -40q-54 53 28 155l208 260q57 71 131 11zM180 1610q104 0 102 -99l-31 -1447q-1 -109 -109 -107q-90 2 -88 109l34 1451q2 91 92 93z" />
    <glyph glyph-name="Lcedilla" unicode="&#x13b;" horiz-adv-x="1012" 
d="M224 73q10 39 66 41q126 5 252 -114q154 -143 66 -337q-46 -101 -210 -108q-106 -5 -206 57q-60 37 -52 103q4 36 62 42q24 2 91 -28q69 -31 125 -18q62 15 62 80q2 86 -100 138q-48 25 -106 42q-72 19 -50 102zM171 -44q-90 -1 -87 105l33 1385q2 87 94 89q98 0 96 -95
l-24 -1278l575 15q99 2 99 -103q0 -104 -96 -105l-669 -13h-21z" />
    <glyph glyph-name="lcedilla" unicode="&#x13c;" horiz-adv-x="438" 
d="M84 64q10 39 66 41q126 5 252 -114q154 -143 66 -337q-46 -101 -210 -108q-106 -5 -206 57q-60 37 -52 103q4 36 62 42q24 2 91 -28q69 -31 125 -18q62 15 62 80q2 86 -100 138q-48 25 -106 42q-72 19 -50 102zM180 1610q104 0 102 -99l-31 -1447q-1 -109 -109 -107
q-90 2 -88 109l34 1451q2 91 92 93z" />
    <glyph glyph-name="Lcaron" unicode="&#x13d;" horiz-adv-x="647" 
d="M353 1388q0 116 129 116q128 0 128 -162q0 -42 -11 -86q-33 -134 -85.5 -193t-99.5 -59q-21 0 -48 20t-27 58t32 89t53 89q-66 40 -71 116v12zM171 -44q-90 -1 -87 105l33 1385q2 87 94 89q98 0 96 -95l-24 -1278l575 15q99 2 99 -103q0 -104 -96 -105l-669 -13h-21z" />
    <glyph glyph-name="lcaron" unicode="&#x13e;" horiz-adv-x="608" 
d="M421 1486q0 116 129 116q128 0 128 -162q0 -42 -11 -86q-33 -134 -85.5 -193t-99.5 -59q-21 0 -48 20t-27 58t32 89t53 89q-66 40 -71 116v12zM180 1610q104 0 102 -99l-31 -1447q-1 -109 -109 -107q-90 2 -88 109l34 1451q2 91 92 93z" />
    <glyph glyph-name="Ldot" unicode="&#x13f;" horiz-adv-x="1012" 
d="M620 735h4q34 0 63 -17q31 -18 47 -50q14 -27 14 -58v-10q-3 -36 -25 -65q-20 -26 -44 -37q-25 -13 -56 -12h-6q-31 1 -57 17q-27 16 -44 44q-17 29 -17 63q0 32 16 60q17 29 43 47q28 18 62 18zM171 -44q-90 -1 -87 105l33 1385q2 87 94 89q98 0 96 -95l-24 -1278
l575 15q99 2 99 -103q0 -104 -96 -105l-669 -13h-21z" />
    <glyph glyph-name="ldot" unicode="&#x140;" horiz-adv-x="517" 
d="M630 840h4q34 0 63 -17q31 -18 47 -50q14 -27 14 -58v-10q-3 -36 -25 -65q-20 -26 -44 -37q-25 -13 -56 -12h-6q-31 1 -57 17q-27 16 -44 44q-17 29 -17 63q0 32 16 60q17 29 43 47q28 18 62 18zM180 1610q104 0 102 -99l-31 -1447q-1 -109 -109 -107q-90 2 -88 109
l34 1451q2 91 92 93z" />
    <glyph glyph-name="Lslash" unicode="&#x141;" horiz-adv-x="924" 
d="M68 528q-85 -55 -126 12q-58 94 27 150l471 345q67 69 96 -18q30 -89 -36 -156zM238 -44q-90 -1 -87 105l33 1385q2 87 94 89q92 0 91 -95l-19 -1278l489 15q99 2 99 -103q0 -104 -96 -105l-583 -13h-21z" />
    <glyph glyph-name="lslash" unicode="&#x142;" horiz-adv-x="499" 
d="M114 495q-82 -70 -144 0q-61 69 20 140l432 378q84 74 139 -4q58 -83 -27 -156zM283 1610q104 0 102 -99l-31 -1447q-1 -109 -109 -107q-90 2 -88 109l34 1451q2 91 92 93z" />
    <glyph glyph-name="Nacute" unicode="&#x143;" horiz-adv-x="1245" 
d="M829 2087q75 -59 14 -126l-237 -260q-87 -96 -144 -40q-54 53 28 155l208 260q57 71 131 11zM928 331l28 1115q2 86 93 87q104 1 102 -93l-31 -1351q-2 -103 -110 -100q-144 3 -181 72l-534 984l-15 -987q-1 -102 -109 -100q-90 2 -88 102l34 1355q2 85 92 87
q62 1 79 -29z" />
    <glyph glyph-name="nacute" unicode="&#x144;" horiz-adv-x="891" 
d="M812 1663q75 -59 14 -126l-237 -260q-87 -96 -144 -40q-54 53 28 155l208 260q57 71 131 11zM219 1094q96 0 94 -99q0 -29 -1 -59q70 99 179 99q320 -1 313 -456l-8 -500q-2 -121 -96 -129q-108 -10 -106 111l12 474q7 276 -106 288q-89 10 -191 -149l-10 -605
q-3 -109 -110 -107q-90 2 -87 109l23 930q2 93 94 93z" />
    <glyph glyph-name="Ncedilla" unicode="&#x145;" horiz-adv-x="1245" 
d="M252 172q10 39 66 41q126 5 252 -114q154 -143 66 -337q-46 -101 -210 -108q-106 -5 -206 57q-60 37 -52 103q4 36 62 42q24 2 91 -28q69 -31 125 -18q62 15 62 80q2 86 -100 138q-48 25 -106 42q-72 19 -50 102zM928 331l28 1115q2 86 93 87q104 1 102 -93l-31 -1351
q-2 -103 -110 -100q-144 3 -181 72l-534 984l-15 -987q-1 -102 -109 -100q-90 2 -88 102l34 1355q2 85 92 87q62 1 79 -29z" />
    <glyph glyph-name="ncedilla" unicode="&#x146;" horiz-adv-x="891" 
d="M194 106q10 39 66 41q126 5 252 -114q154 -143 66 -337q-46 -101 -210 -108q-106 -5 -206 57q-60 37 -52 103q4 36 62 42q24 2 91 -28q69 -31 125 -18q62 15 62 80q2 86 -100 138q-48 25 -106 42q-72 19 -50 102zM219 1094q96 0 94 -99q0 -29 -1 -59q70 99 179 99
q320 -1 313 -456l-8 -500q-2 -121 -96 -129q-108 -10 -106 111l12 474q7 276 -106 288q-89 10 -191 -149l-10 -605q-3 -109 -110 -107q-90 2 -87 109l23 930q2 93 94 93z" />
    <glyph glyph-name="Ncaron" unicode="&#x147;" horiz-adv-x="1245" 
d="M587 1637q-23 -1 -48 41l-228 262q-60 66 -18 111q66 69 126 2l168 -224l168 224q61 66 127 -2q42 -44 -19 -111l-228 -262q-24 -42 -48 -41zM928 331l28 1115q2 86 93 87q104 1 102 -93l-31 -1351q-2 -103 -110 -100q-144 3 -181 72l-534 984l-15 -987
q-1 -102 -109 -100q-90 2 -88 102l34 1355q2 85 92 87q62 1 79 -29z" />
    <glyph glyph-name="ncaron" unicode="&#x148;" horiz-adv-x="891" 
d="M402 1216q-23 -1 -48 41l-228 262q-60 66 -18 111q66 69 126 2l168 -224l168 224q61 66 127 -2q42 -44 -19 -111l-228 -262q-24 -42 -48 -41zM219 1094q96 0 94 -99q0 -29 -1 -59q70 99 179 99q320 -1 313 -456l-8 -500q-2 -121 -96 -129q-108 -10 -106 111l12 474
q7 276 -106 288q-89 10 -191 -149l-10 -605q-3 -109 -110 -107q-90 2 -87 109l23 930q2 93 94 93z" />
    <glyph glyph-name="napostrophe" unicode="&#x149;" horiz-adv-x="813" 
d="M66 1593q92 3 92 -106v-309q0 -103 -85 -103q-89 -1 -91 102l-6 308q-2 104 90 108zM413 1094q96 0 94 -99q0 -29 -1 -59q70 99 179 99q320 -1 313 -456l-8 -500q-2 -121 -96 -129q-108 -10 -106 111l12 474q7 276 -106 288q-89 10 -191 -149l-10 -605q-3 -109 -110 -107
q-90 2 -87 109l23 930q2 93 94 93z" />
    <glyph glyph-name="Eng" unicode="&#x14a;" horiz-adv-x="1249" 
d="M921 45l-618 1100l-23 -1087q-2 -102 -109 -100q-91 2 -88 102l34 1355q2 85 92 87q53 1 79 -29l641 -1139l30 1112q2 85 93 87q104 0 102 -89l-32 -1369q-13 -570 -264 -590q-95 -11 -160 20q-59 27 -37 120q19 87 84 57q74 -34 127 30q47 60 49 333z" />
    <glyph glyph-name="eng" unicode="&#x14b;" horiz-adv-x="872" 
d="M577 61l9 474q7 276 -103 288q-89 10 -191 -149l-10 -605q-3 -109 -110 -107q-90 2 -87 109l23 930q2 93 94 93q96 0 94 -99q0 -29 -1 -59q70 99 179 99q317 -1 310 -456l-8 -500l3 -300q4 -368 -272 -365q-84 1 -145 102q-47 78 -49 170q-2 94 48 104q34 7 71 -90
q42 -109 97 -88q53 20 53 144q-1 44 -5 305z" />
    <glyph glyph-name="Omacron" unicode="&#x14c;" horiz-adv-x="1231" 
d="M389 1786l473 2q100 0 101 -76q0 -78 -96 -78l-485 1q-70 0 -70 74q0 77 77 77zM687 1313q-143 15 -248 -143q-155 -234 -155 -595q0 -182 71 -297q83 -135 224 -135q137 0 215 147q142 265 144 588q6 408 -251 435zM679 1512q461 -7 460 -633q-1 -404 -228 -694
q-131 -248 -332 -248q-208 0 -361 223q-144 159 -144 413q0 397 242 701q134 242 363 238z" />
    <glyph glyph-name="omacron" unicode="&#x14d;" horiz-adv-x="807" 
d="M69 1323l473 2q100 0 101 -76q0 -78 -96 -78l-485 1q-70 0 -70 74q0 77 77 77zM399 845q-83 -3 -125 -91q-64 -136 -64 -299q0 -157 46 -235q48 -80 109 -80q70 0 117 80q94 157 95 281q1 350 -178 344zM388 1032q381 -3 378 -546q-1 -253 -117 -390q-101 -147 -300 -145
q-106 1 -223 148q-112 142 -112 374q0 209 134 404q107 156 240 155z" />
    <glyph glyph-name="Obreve" unicode="&#x14e;" horiz-adv-x="1231" 
d="M617 1779q147 -5 197 145q45 137 116 112q76 -27 36 -144q-90 -260 -352 -258q-244 2 -335 233q-60 151 29 168q90 17 111 -93q29 -157 198 -163zM687 1313q-143 15 -248 -143q-155 -234 -155 -595q0 -182 71 -297q83 -135 224 -135q137 0 215 147q142 265 144 588
q6 408 -251 435zM679 1512q461 -7 460 -633q-1 -404 -228 -694q-131 -248 -332 -248q-208 0 -361 223q-144 159 -144 413q0 397 242 701q134 242 363 238z" />
    <glyph glyph-name="obreve" unicode="&#x14f;" horiz-adv-x="807" 
d="M298 1316q147 -5 197 145q45 137 116 112q76 -27 36 -144q-90 -260 -352 -258q-244 2 -335 233q-60 151 29 168q90 17 111 -93q29 -157 198 -163zM399 845q-83 -3 -125 -91q-64 -136 -64 -299q0 -157 46 -235q48 -80 109 -80q70 0 117 80q94 157 95 281q1 350 -178 344z
M388 1032q381 -3 378 -546q-1 -253 -117 -390q-101 -147 -300 -145q-106 1 -223 148q-112 142 -112 374q0 209 134 404q107 156 240 155z" />
    <glyph glyph-name="Odblacute" unicode="&#x150;" horiz-adv-x="1231" 
d="M803 1648q-46 56 -11 112l184 242q70 72 124 22q58 -54 -12 -126l-221 -232q-34 -54 -64 -18zM510 1648q-70 56 -18 112l231 242q43 72 78 22q37 -54 -8 -126l-185 -232q-52 -54 -98 -18zM687 1313q-143 15 -248 -143q-155 -234 -155 -595q0 -182 71 -297
q83 -135 224 -135q137 0 215 147q142 265 144 588q6 408 -251 435zM679 1512q461 -7 460 -633q-1 -404 -228 -694q-131 -248 -332 -248q-208 0 -361 223q-144 159 -144 413q0 397 242 701q134 242 363 238z" />
    <glyph glyph-name="odblacute" unicode="&#x151;" horiz-adv-x="807" 
d="M483 1185q-46 56 -11 112l184 242q70 72 124 22q58 -54 -12 -126l-221 -232q-34 -54 -64 -18zM190 1185q-70 56 -18 112l231 242q43 72 78 22q37 -54 -8 -126l-185 -232q-52 -54 -98 -18zM399 845q-83 -3 -125 -91q-64 -136 -64 -299q0 -157 46 -235q48 -80 109 -80
q70 0 117 80q94 157 95 281q1 350 -178 344zM388 1032q381 -3 378 -546q-1 -253 -117 -390q-101 -147 -300 -145q-106 1 -223 148q-112 142 -112 374q0 209 134 404q107 156 240 155z" />
    <glyph glyph-name="OE" unicode="&#x152;" horiz-adv-x="1564" 
d="M1534 1501l490 4q141 1 144 -115q3 -91 -138 -92q-250 -2 -461 -4l-8 -606l354 3q136 1 141 -114q3 -92 -137 -93l-361 -3l-12 -314l416 3q141 1 144 -114q3 -92 -138 -93l-496 -4q-12 2 -22 2h-16q-90 2 -87 102l33 1353q2 87 94 86q18 0 37 -3q6 -1 23 2zM703 1313
q-143 15 -248 -143q-155 -234 -155 -595q0 -182 71 -297q83 -135 224 -135q137 0 215 147q142 265 144 588q6 408 -251 435zM695 1512q461 -7 460 -633q-1 -404 -228 -694q-131 -248 -332 -248q-208 0 -361 223q-144 159 -144 413q0 397 242 701q134 242 363 238z" />
    <glyph glyph-name="oe" unicode="&#x153;" horiz-adv-x="1175" 
d="M910 361q3 -79 38 -126q72 -99 162 -98q127 2 194 80q63 74 110 84q48 10 68 -30q47 -93 -44 -174q-162 -144 -336 -140q-94 2 -214 120q-162 160 -162 317q0 285 99 446q125 203 253 215q140 13 269 -139q129 -153 125 -327q-4 -117 -111 -138zM926 561l385 65
q-15 118 -96 194q-76 72 -119 55q-89 -34 -134 -131q-36 -76 -36 -183zM399 845q-83 -3 -125 -91q-64 -136 -64 -299q0 -157 46 -235q48 -80 109 -80q70 0 117 80q94 157 95 281q1 350 -178 344zM388 1032q381 -3 378 -546q-1 -253 -117 -390q-101 -147 -300 -145
q-106 1 -223 148q-112 142 -112 374q0 209 134 404q107 156 240 155z" />
    <glyph glyph-name="Racute" unicode="&#x154;" horiz-adv-x="1030" 
d="M608 2082q75 -59 14 -126l-237 -260q-87 -96 -144 -40q-54 53 28 155l208 260q57 71 131 11zM848 20q-78 -43 -181 72l-323 360q-10 -1 -21 -2q-20 -2 -36 1l-6 -404q-1 -104 -110 -102q-90 2 -88 104l34 1375q2 88 93 88q23 0 41 -4q92 11 172 1q225 -26 326 -291
q130 -343 -88 -616q-65 -81 -159 -116l361 -288q127 -102 -15 -178zM305 1317l-10 -677q218 -36 287 121q93 209 13 418q-50 132 -201 135q-44 1 -89 3z" />
    <glyph glyph-name="racute" unicode="&#x155;" horiz-adv-x="777" 
d="M717 1663q75 -59 14 -126l-237 -260q-87 -96 -144 -40q-54 53 28 155l208 260q57 71 131 11zM151 1094q93 0 93 -99v-37q72 85 141 87q97 2 183 -41q152 -76 125 -157q-44 -128 -159 -50q-88 61 -162 38q-72 -22 -132 -115l-11 -656q-3 -109 -108 -107q-90 2 -87 109
l23 935q2 93 94 93z" />
    <glyph glyph-name="Rcedilla" unicode="&#x156;" horiz-adv-x="1030" 
d="M221 109q10 39 66 41q126 5 252 -114q154 -143 66 -337q-46 -101 -210 -108q-106 -5 -206 57q-60 37 -52 103q4 36 62 42q24 2 91 -28q69 -31 125 -18q62 15 62 80q2 86 -100 138q-48 25 -106 42q-72 19 -50 102zM848 20q-78 -43 -181 72l-323 360q-10 -1 -21 -2
q-20 -2 -36 1l-6 -404q-1 -104 -110 -102q-90 2 -88 104l34 1375q2 88 93 88q23 0 41 -4q92 11 172 1q225 -26 326 -291q130 -343 -88 -616q-65 -81 -159 -116l361 -288q127 -102 -15 -178zM305 1317l-10 -677q218 -36 287 121q93 209 13 418q-50 132 -201 135q-44 1 -89 3z
" />
    <glyph glyph-name="rcedilla" unicode="&#x157;" horiz-adv-x="777" 
d="M-91 112q10 39 66 41q126 5 252 -114q154 -143 66 -337q-46 -101 -210 -108q-106 -5 -206 57q-60 37 -52 103q4 36 62 42q24 2 91 -28q69 -31 125 -18q62 15 62 80q2 86 -100 138q-48 25 -106 42q-72 19 -50 102zM151 1094q93 0 93 -99v-37q72 85 141 87q97 2 183 -41
q152 -76 125 -157q-44 -128 -159 -50q-88 61 -162 38q-72 -22 -132 -115l-11 -656q-3 -109 -108 -107q-90 2 -87 109l23 935q2 93 94 93z" />
    <glyph glyph-name="Rcaron" unicode="&#x158;" horiz-adv-x="1030" 
d="M333 1636q-23 -1 -48 41l-228 262q-60 66 -18 111q66 69 126 2l168 -224l168 224q61 66 127 -2q42 -44 -19 -111l-228 -262q-24 -42 -48 -41zM848 20q-78 -43 -181 72l-323 360q-10 -1 -21 -2q-20 -2 -36 1l-6 -404q-1 -104 -110 -102q-90 2 -88 104l34 1375q2 88 93 88
q23 0 41 -4q92 11 172 1q225 -26 326 -291q130 -343 -88 -616q-65 -81 -159 -116l361 -288q127 -102 -15 -178zM305 1317l-10 -677q218 -36 287 121q93 209 13 418q-50 132 -201 135q-44 1 -89 3z" />
    <glyph glyph-name="rcaron" unicode="&#x159;" horiz-adv-x="777" 
d="M307 1216q-23 -1 -48 41l-228 262q-60 66 -18 111q66 69 126 2l168 -224l168 224q61 66 127 -2q42 -44 -19 -111l-228 -262q-24 -42 -48 -41zM151 1094q93 0 93 -99v-37q72 85 141 87q97 2 183 -41q152 -76 125 -157q-44 -128 -159 -50q-88 61 -162 38q-72 -22 -132 -115
l-11 -656q-3 -109 -108 -107q-90 2 -87 109l23 935q2 93 94 93z" />
    <glyph glyph-name="Sacute" unicode="&#x15a;" horiz-adv-x="1132" 
d="M985 2081q75 -59 14 -126l-237 -260q-87 -96 -144 -40q-54 53 28 155l208 260q57 71 131 11zM239 1238q63 106 189 196q98 70 199 64q74 -5 166 -51q146 -72 149 -126q3 -51 -54 -79q-45 -22 -125 20q-102 53 -159 48q-106 -10 -164 -80q-61 -75 -66 -164
q-14 -285 93 -309q51 -11 193 -17q147 -7 232 -95q120 -125 116 -186q-15 -253 -239 -406q-139 -95 -261 -96q-103 -1 -205 49q-96 47 -136 82q-80 71 -72 131q9 66 60 81q61 17 142 -59q66 -62 119 -82q83 -30 152 -11q115 32 167 100q78 105 63 181q-25 128 -272 122
q-274 -6 -336 274q-53 241 49 413z" />
    <glyph glyph-name="sacute" unicode="&#x15b;" horiz-adv-x="790" 
d="M746 1634q75 -59 14 -126l-237 -260q-87 -96 -144 -40q-54 53 28 155l208 260q57 71 131 11zM305 144q140 -14 176 58q40 82 16 119q-41 63 -162 87q-217 43 -243 157q-32 143 5.5 239t128.5 175q86 75 151 84q90 13 195 -41q144 -73 157 -161q9 -60 -37 -97
q-60 -49 -173 65q-56 57 -121 52q-88 -7 -115 -74q-32 -79 -14 -146q14 -55 129 -74q43 -7 113 -48q111 -66 142 -103q59 -73 41 -214q-15 -124 -140 -212q-95 -67 -195 -68q-82 -1 -160 24q-63 20 -132 60q-70 40 -74 100q-4 66 42 96q58 38 128 -12q83 -60 142 -66z" />
    <glyph glyph-name="Scircumflex" unicode="&#x15c;" horiz-adv-x="1132" 
d="M567 2158q28 1 56 -48l252 -306q70 -77 20 -129q-76 -80 -146 -3l-182 262l-180 -262q-70 -77 -148 3q-48 52 22 129l250 306q29 49 56 48zM239 1238q63 106 189 196q98 70 199 64q74 -5 166 -51q146 -72 149 -126q3 -51 -54 -79q-45 -22 -125 20q-102 53 -159 48
q-106 -10 -164 -80q-61 -75 -66 -164q-14 -285 93 -309q51 -11 193 -17q147 -7 232 -95q120 -125 116 -186q-15 -253 -239 -406q-139 -95 -261 -96q-103 -1 -205 49q-96 47 -136 82q-80 71 -72 131q9 66 60 81q61 17 142 -59q66 -62 119 -82q83 -30 152 -11q115 32 167 100
q78 105 63 181q-25 128 -272 122q-274 -6 -336 274q-53 241 49 413z" />
    <glyph glyph-name="scircumflex" unicode="&#x15d;" horiz-adv-x="790" 
d="M329 1711q28 1 56 -48l252 -306q70 -77 20 -129q-76 -80 -146 -3l-182 262l-180 -262q-70 -77 -148 3q-48 52 22 129l250 306q29 49 56 48zM305 144q140 -14 176 58q40 82 16 119q-41 63 -162 87q-217 43 -243 157q-32 143 5.5 239t128.5 175q86 75 151 84q90 13 195 -41
q144 -73 157 -161q9 -60 -37 -97q-60 -49 -173 65q-56 57 -121 52q-88 -7 -115 -74q-32 -79 -14 -146q14 -55 129 -74q43 -7 113 -48q111 -66 142 -103q59 -73 41 -214q-15 -124 -140 -212q-95 -67 -195 -68q-82 -1 -160 24q-63 20 -132 60q-70 40 -74 100q-4 66 42 96
q58 38 128 -12q83 -60 142 -66z" />
    <glyph glyph-name="Scedilla" unicode="&#x15e;" horiz-adv-x="1132" 
d="M219 87q10 39 66 41q126 5 252 -114q154 -143 66 -337q-46 -101 -210 -108q-106 -5 -206 57q-60 37 -52 103q4 36 62 42q24 2 91 -28q69 -31 125 -18q62 15 62 80q2 86 -100 138q-48 25 -106 42q-72 19 -50 102zM239 1238q63 106 189 196q98 70 199 64q74 -5 166 -51
q146 -72 149 -126q3 -51 -54 -79q-45 -22 -125 20q-102 53 -159 48q-106 -10 -164 -80q-61 -75 -66 -164q-14 -285 93 -309q51 -11 193 -17q147 -7 232 -95q120 -125 116 -186q-15 -253 -239 -406q-139 -95 -261 -96q-103 -1 -205 49q-96 47 -136 82q-80 71 -72 131
q9 66 60 81q61 17 142 -59q66 -62 119 -82q83 -30 152 -11q115 32 167 100q78 105 63 181q-25 128 -272 122q-274 -6 -336 274q-53 241 49 413z" />
    <glyph glyph-name="scedilla" unicode="&#x15f;" horiz-adv-x="790" 
d="M42 72q10 39 66 41q126 5 252 -114q154 -143 66 -337q-46 -101 -210 -108q-106 -5 -206 57q-60 37 -52 103q4 36 62 42q24 2 91 -28q69 -31 125 -18q62 15 62 80q2 86 -100 138q-48 25 -106 42q-72 19 -50 102zM305 144q140 -14 176 58q40 82 16 119q-41 63 -162 87
q-217 43 -243 157q-32 143 5.5 239t128.5 175q86 75 151 84q90 13 195 -41q144 -73 157 -161q9 -60 -37 -97q-60 -49 -173 65q-56 57 -121 52q-88 -7 -115 -74q-32 -79 -14 -146q14 -55 129 -74q43 -7 113 -48q111 -66 142 -103q59 -73 41 -214q-15 -124 -140 -212
q-95 -67 -195 -68q-82 -1 -160 24q-63 20 -132 60q-70 40 -74 100q-4 66 42 96q58 38 128 -12q83 -60 142 -66z" />
    <glyph glyph-name="Scaron" unicode="&#x160;" horiz-adv-x="1132" 
d="M575 1634q-23 -1 -48 41l-228 262q-60 66 -18 111q66 69 126 2l168 -224l168 224q61 66 127 -2q42 -44 -19 -111l-228 -262q-24 -42 -48 -41zM239 1238q63 106 189 196q98 70 199 64q74 -5 166 -51q146 -72 149 -126q3 -51 -54 -79q-45 -22 -125 20q-102 53 -159 48
q-106 -10 -164 -80q-61 -75 -66 -164q-14 -285 93 -309q51 -11 193 -17q147 -7 232 -95q120 -125 116 -186q-15 -253 -239 -406q-139 -95 -261 -96q-103 -1 -205 49q-96 47 -136 82q-80 71 -72 131q9 66 60 81q61 17 142 -59q66 -62 119 -82q83 -30 152 -11q115 32 167 100
q78 105 63 181q-25 128 -272 122q-274 -6 -336 274q-53 241 49 413z" />
    <glyph glyph-name="scaron" unicode="&#x161;" horiz-adv-x="790" 
d="M336 1188q-23 -1 -48 41l-228 262q-60 66 -18 111q66 69 126 2l168 -224l168 224q61 66 127 -2q42 -44 -19 -111l-228 -262q-24 -42 -48 -41zM305 144q140 -14 176 58q40 82 16 119q-41 63 -162 87q-217 43 -243 157q-32 143 5.5 239t128.5 175q86 75 151 84
q90 13 195 -41q144 -73 157 -161q9 -60 -37 -97q-60 -49 -173 65q-56 57 -121 52q-88 -7 -115 -74q-32 -79 -14 -146q14 -55 129 -74q43 -7 113 -48q111 -66 142 -103q59 -73 41 -214q-15 -124 -140 -212q-95 -67 -195 -68q-82 -1 -160 24q-63 20 -132 60q-70 40 -74 100
q-4 66 42 96q58 38 128 -12q83 -60 142 -66z" />
    <glyph glyph-name="Tcedilla" unicode="&#x162;" horiz-adv-x="1175" 
d="M448 59q10 39 66 41q126 5 252 -114q154 -143 66 -337q-46 -101 -210 -108q-106 -5 -206 57q-60 37 -52 103q4 36 62 42q24 2 91 -28q69 -31 125 -18q62 15 62 80q2 86 -100 138q-48 25 -106 42q-72 19 -50 102zM210 1500h843q130 0 132 -98q2 -92 -132 -92l-311 -1
l-19 -1259q-2 -102 -109 -100q-89 2 -88 102l25 1256q-156 -1 -350 -1q-126 0 -126 105q0 88 135 88z" />
    <glyph glyph-name="tcedilla" unicode="&#x163;" horiz-adv-x="712" 
d="M56 72q10 39 66 41q126 5 252 -114q154 -143 66 -337q-46 -101 -210 -108q-106 -5 -206 57q-60 37 -52 103q4 36 62 42q24 2 91 -28q69 -31 125 -18q62 15 62 80q2 86 -100 138q-48 25 -106 42q-72 19 -50 102zM281 1531q91 0 91 -99v-339l174 1q123 1 123 -100
q0 -102 -117 -102h-184l-16 -828q-2 -109 -109 -107q-116 3 -110 115l45 820l-39 4q-86 0 -86 98q0 105 95 101q21 -1 35 -3l6 346q1 93 92 93z" />
    <glyph glyph-name="Tcaron" unicode="&#x164;" horiz-adv-x="1175" 
d="M553 1634q-23 -1 -48 41l-228 262q-60 66 -18 111q66 69 126 2l168 -224l168 224q61 66 127 -2q42 -44 -19 -111l-228 -262q-24 -42 -48 -41zM210 1500h843q130 0 132 -98q2 -92 -132 -92l-311 -1l-19 -1259q-2 -102 -109 -100q-89 2 -88 102l25 1256q-156 -1 -350 -1
q-126 0 -126 105q0 88 135 88z" />
    <glyph glyph-name="tcaron" unicode="&#x165;" horiz-adv-x="837" 
d="M867 1274q0 116 129 116q128 0 128 -162q0 -42 -11 -86q-33 -134 -85.5 -193t-99.5 -59q-21 0 -48 20t-27 58t32 89t53 89q-66 40 -71 116v12zM281 1531q91 0 91 -99v-339l174 1q123 1 123 -100q0 -102 -117 -102h-184l-16 -828q-2 -109 -109 -107q-116 3 -110 115
l45 820l-39 4q-86 0 -86 98q0 105 95 101q21 -1 35 -3l6 346q1 93 92 93z" />
    <glyph glyph-name="Tbar" unicode="&#x166;" horiz-adv-x="1149" 
d="M278 762q1 104 52 105l437 4q66 1 66 -103q-1 -100 -67 -100l-438 1q-51 0 -50 93zM158 1500h843q130 0 132 -98q2 -92 -132 -92l-311 -1l-19 -1259q-2 -102 -109 -100q-89 2 -88 102l25 1256q-156 -1 -350 -1q-126 0 -126 105q0 88 135 88z" />
    <glyph glyph-name="tbar" unicode="&#x167;" horiz-adv-x="885" 
d="M136 575q4 77 73 77l423 2q92 0 94 -76q2 -78 -90 -78l-435 1q-69 0 -65 74zM449 1610q91 0 91 -99q-2 -255 -6 -466l174 1q123 1 123 -100q0 -102 -117 -102h-183l-11 -780q-1 -109 -109 -107q-90 2 -88 109l18 778h-215q-86 0 -86 98q0 101 95 101q115 0 211 1l11 473
q2 93 92 93z" />
    <glyph glyph-name="Utilde" unicode="&#x168;" horiz-adv-x="1168" 
d="M303.897 1702.45q-37.8799 -75.6074 -107.473 -44.1045q-59.0215 27.0029 -35.2363 108.911q30.832 106.21 118.924 182.717q65.1885 76.5078 124.21 75.6074q76.6396 -0.900391 110.996 -101.71q44.9268 -124.212 103.948 -127.812q44.9268 -2.70117 72.2354 125.111
q27.3086 84.6084 86.3301 81.9082q80.1641 -2.7002 74.8789 -124.212q-4.40527 -102.61 -88.0928 -181.817q-70.4736 -65.7061 -139.185 -66.6064q-90.7354 -0.900391 -139.186 115.211q-57.2598 138.613 -94.2588 118.812q-43.165 -21.6025 -88.0918 -162.016zM-645 1999z
M936 1485q110 -2 105 -174l-15 -567q-21 -785 -463 -784q-466 1 -461 802l3 537q1 199 102 199q99 -1 98 -174l-2 -547q-4 -645 263 -638q248 6 256 626l12 567q3 155 102 153z" />
    <glyph glyph-name="utilde" unicode="&#x169;" horiz-adv-x="883" 
d="M146.897 1257.45q-37.8799 -75.6074 -107.473 -44.1045q-59.0215 27.0029 -35.2363 108.911q30.832 106.21 118.924 182.717q65.1885 76.5078 124.21 75.6074q76.6396 -0.900391 110.996 -101.71q44.9268 -124.212 103.948 -127.812q44.9268 -2.70117 72.2354 125.111
q27.3086 84.6084 86.3301 81.9082q80.1641 -2.7002 74.8789 -124.212q-4.40527 -102.61 -88.0928 -181.817q-70.4736 -65.7061 -139.185 -66.6064q-90.7354 -0.900391 -139.186 115.211q-57.2598 138.613 -94.2588 118.812q-43.165 -21.6025 -88.0918 -162.016zM677 -76
q-103 0 -102 99l1 59q-70 -99 -179 -99q-315 1 -311 456l4 491q2 120 96 129q105 9 103 -111l-1 -437q-2 -242 48 -295q66 -70 158 2q85 66 90 230l12 505q3 109 109 108q90 -2 88 -110l-24 -934q-2 -93 -92 -93z" />
    <glyph glyph-name="Umacron" unicode="&#x16a;" horiz-adv-x="1168" 
d="M262 1792l473 2q100 0 101 -76q0 -78 -96 -78l-485 1q-70 0 -70 74q0 77 77 77zM-645 1999zM936 1485q110 -2 105 -174l-15 -567q-21 -785 -463 -784q-466 1 -461 802l3 537q1 199 102 199q99 -1 98 -174l-2 -547q-4 -645 263 -638q248 6 256 626l12 567q3 155 102 153z
" />
    <glyph glyph-name="umacron" unicode="&#x16b;" horiz-adv-x="883" 
d="M111 1329l473 2q100 0 101 -76q0 -78 -96 -78l-485 1q-70 0 -70 74q0 77 77 77zM677 -76q-103 0 -102 99l1 59q-70 -99 -179 -99q-315 1 -311 456l4 491q2 120 96 129q105 9 103 -111l-1 -437q-2 -242 48 -295q66 -70 158 2q85 66 90 230l12 505q3 109 109 108
q90 -2 88 -110l-24 -934q-2 -93 -92 -93z" />
    <glyph glyph-name="Ubreve" unicode="&#x16c;" horiz-adv-x="1168" 
d="M478 1779q147 -5 197 145q45 137 116 112q76 -27 36 -144q-90 -260 -352 -258q-244 2 -335 233q-60 151 29 168q90 17 111 -93q29 -157 198 -163zM-645 1999zM936 1485q110 -2 105 -174l-15 -567q-21 -785 -463 -784q-466 1 -461 802l3 537q1 199 102 199q99 -1 98 -174
l-2 -547q-4 -645 263 -638q248 6 256 626l12 567q3 155 102 153z" />
    <glyph glyph-name="ubreve" unicode="&#x16d;" horiz-adv-x="883" 
d="M345 1304q147 -5 197 145q45 137 116 112q76 -27 36 -144q-90 -260 -352 -258q-244 2 -335 233q-60 151 29 168q90 17 111 -93q29 -157 198 -163zM677 -76q-103 0 -102 99l1 59q-70 -99 -179 -99q-315 1 -311 456l4 491q2 120 96 129q105 9 103 -111l-1 -437
q-2 -242 48 -295q66 -70 158 2q85 66 90 230l12 505q3 109 109 108q90 -2 88 -110l-24 -934q-2 -93 -92 -93z" />
    <glyph glyph-name="Uring" unicode="&#x16e;" horiz-adv-x="1168" 
d="M440 1732q32 -42 65 -61q24 -21 57 -24h6q28 0 54 18q31 18 60 51q40 45 48 105q2 14 2 29q0 45 -18 85q-25 55 -77 87q-32 31 -69 31h-2q-37 -1 -70 -31q-47 -30 -72 -81q-22 -43 -22 -91q0 -8 1 -16q4 -59 37 -102zM564 2202h6q63 0 146 -52q89 -54 133 -148
q34 -72 34 -151q0 -23 -3 -46q-15 -110 -81 -182q-40 -47 -95 -78t-100 -41q-17 -4 -33 -4q-65 0 -149 54q-98 62 -140 170q-24 61 -24 128q0 47 12 92q31 112 121 183q91 72 173 75zM-645 1999zM936 1485q110 -2 105 -174l-15 -567q-21 -785 -463 -784q-466 1 -461 802
l3 537q1 199 102 199q99 -1 98 -174l-2 -547q-4 -645 263 -638q248 6 256 626l12 567q3 155 102 153z" />
    <glyph glyph-name="uring" unicode="&#x16f;" horiz-adv-x="883" 
d="M280 1436q32 -42 65 -61q24 -21 57 -24h6q28 0 54 18q31 18 60 51q40 45 48 105q2 14 2 29q0 45 -18 85q-25 55 -77 87q-32 31 -69 31h-2q-37 -1 -70 -31q-47 -30 -72 -81q-22 -43 -22 -91q0 -8 1 -16q4 -59 37 -102zM404 1906h6q63 0 146 -52q89 -54 133 -148
q34 -72 34 -151q0 -23 -3 -46q-15 -110 -81 -182q-40 -47 -95 -78t-100 -41q-17 -4 -33 -4q-65 0 -149 54q-98 62 -140 170q-24 61 -24 128q0 47 12 92q31 112 121 183q91 72 173 75zM677 -76q-103 0 -102 99l1 59q-70 -99 -179 -99q-315 1 -311 456l4 491q2 120 96 129
q105 9 103 -111l-1 -437q-2 -242 48 -295q66 -70 158 2q85 66 90 230l12 505q3 109 109 108q90 -2 88 -110l-24 -934q-2 -93 -92 -93z" />
    <glyph glyph-name="Udblacute" unicode="&#x170;" horiz-adv-x="1168" 
d="M529 1651q-46 56 -11 112l184 242q70 72 124 22q58 -54 -12 -126l-221 -232q-34 -54 -64 -18zM236 1651q-70 56 -18 112l231 242q43 72 78 22q37 -54 -8 -126l-185 -232q-52 -54 -98 -18zM-645 1999zM936 1485q110 -2 105 -174l-15 -567q-21 -785 -463 -784
q-466 1 -461 802l3 537q1 199 102 199q99 -1 98 -174l-2 -547q-4 -645 263 -638q248 6 256 626l12 567q3 155 102 153z" />
    <glyph glyph-name="udblacute" unicode="&#x171;" horiz-adv-x="883" 
d="M480 1200q-46 56 -11 112l184 242q70 72 124 22q58 -54 -12 -126l-221 -232q-34 -54 -64 -18zM187 1200q-70 56 -18 112l231 242q43 72 78 22q37 -54 -8 -126l-185 -232q-52 -54 -98 -18zM677 -76q-103 0 -102 99l1 59q-70 -99 -179 -99q-315 1 -311 456l4 491
q2 120 96 129q105 9 103 -111l-1 -437q-2 -242 48 -295q66 -70 158 2q85 66 90 230l12 505q3 109 109 108q90 -2 88 -110l-24 -934q-2 -93 -92 -93z" />
    <glyph glyph-name="Uogonek" unicode="&#x172;" horiz-adv-x="1168" 
d="M678 80q30 -75 -37 -96q-59 -18 -84 -34q-88 -54 -88 -103q0 -82 80 -97q63 -12 126 17q68 31 90 29q58 -6 62 -42q9 -66 -51 -103q-100 -62 -207 -57q-164 7 -209 108q-82 186 54 324q65 68 160 83q87 14 104 -29zM-645 1999zM936 1485q110 -2 105 -174l-15 -567
q-21 -785 -463 -784q-466 1 -461 802l3 537q1 199 102 199q99 -1 98 -174l-2 -547q-4 -645 263 -638q248 6 256 626l12 567q3 155 102 153z" />
    <glyph glyph-name="uogonek" unicode="&#x173;" horiz-adv-x="612" 
d="M744 77q30 -75 -37 -96q-59 -18 -84 -34q-88 -54 -88 -103q0 -82 80 -97q63 -12 126 17q68 31 90 29q58 -6 62 -42q9 -66 -51 -103q-100 -62 -207 -57q-164 7 -209 108q-82 186 54 324q65 68 160 83q87 14 104 -29zM677 -76q-103 0 -102 99l1 59q-70 -99 -179 -99
q-315 1 -311 456l4 491q2 120 96 129q105 9 103 -111l-1 -437q-2 -242 48 -295q66 -70 158 2q85 66 90 230l12 505q3 109 109 108q90 -2 88 -110l-24 -934q-2 -93 -92 -93z" />
    <glyph glyph-name="Wcircumflex" unicode="&#x174;" horiz-adv-x="1583" 
d="M674 2159q28 1 56 -48l252 -306q70 -77 20 -129q-76 -80 -146 -3l-182 262l-180 -262q-70 -77 -148 3q-48 52 22 129l250 306q29 49 56 48zM1008 -55q-51 31 -80 186l-164 879l-164 -878q-30 -164 -80 -186q-17 -8 -35 0q-50 23 -80 186l-291 1131q-74 255 75 256
q72 0 93 -72l221 -1132l201 1132q13 71 59 72q49 0 61 -73l201 -1132l221 1132q22 71 94 72q148 0 74 -256l-291 -1131q-31 -164 -80 -186q-18 -8 -35 0z" />
    <glyph glyph-name="wcircumflex" unicode="&#x175;" horiz-adv-x="1099" 
d="M435 1641q28 1 56 -48l252 -306q70 -77 20 -129q-76 -80 -146 -3l-182 262l-180 -262q-70 -77 -148 3q-48 52 22 129l250 306q29 49 56 48zM631 919l60 -535l156 531q42 142 119 130q102 -16 61 -140l-268 -833q-40 -123 -81 -122q-88 2 -105 120l-54 377l-89 -375
q-29 -122 -105 -122q-87 0 -110 122l-158 833q-24 125 68 140q90 15 99 -40l107 -621l119 532q29 130 96 130q71 0 85 -127z" />
    <glyph glyph-name="Ycircumflex" unicode="&#x176;" horiz-adv-x="1017" 
d="M372 2158q28 1 56 -48l252 -306q70 -77 20 -129q-76 -80 -146 -3l-182 262l-180 -262q-70 -77 -148 3q-48 52 22 129l250 306q29 49 56 48zM905 1496q86 -46 48 -126l-484 -1323q-40 -134 -111 -77q-52 39 -2 200l102 330l-422 858q-49 79 30 133q86 59 150 -45l308 -735
l243 730q50 103 138 55z" />
    <glyph glyph-name="ycircumflex" unicode="&#x177;" horiz-adv-x="869" 
d="M298 1667q28 1 56 -48l252 -306q70 -77 20 -129q-76 -80 -146 -3l-182 262l-180 -262q-70 -77 -148 3q-48 52 22 129l250 306q29 49 56 48zM782 1029q96 -41 45 -159l-448 -1317q-44 -160 -100 -124q-93 43 -24 202l128 460l-345 770q-64 118 24 165q93 50 156 -69
l228 -637l189 631q51 118 147 78z" />
    <glyph glyph-name="Ydieresis" unicode="&#x178;" horiz-adv-x="1017" 
d="M583 1824q123 0 123 -93q0 -91 -125 -91q-116 0 -116 88q0 96 118 96zM170 1824q123 0 123 -93q0 -91 -125 -91q-116 0 -116 88q0 96 118 96zM905 1496q86 -46 48 -126l-484 -1323q-40 -134 -111 -77q-52 39 -2 200l102 330l-422 858q-49 79 30 133q86 59 150 -45
l308 -735l243 730q50 103 138 55z" />
    <glyph glyph-name="Zacute" unicode="&#x179;" horiz-adv-x="1114" 
d="M669 2084q75 -59 14 -126l-237 -260q-87 -96 -144 -40q-54 53 28 155l208 260q57 71 131 11zM992 1242l-646 -1073l592 -3q124 0 123 -113q0 -106 -124 -105l-756 6q-122 1 -122 105q0 57 41 106l671 1120l-590 5q-122 1 -122 105q0 111 116 111l763 -4q124 0 123 -113
q0 -66 -69 -147z" />
    <glyph glyph-name="zacute" unicode="&#x17a;" horiz-adv-x="922" 
d="M692 1636q75 -59 14 -126l-237 -260q-87 -96 -144 -40q-54 53 28 155l208 260q57 71 131 11zM802 858l-436 -719h337q114 0 111 -96q-3 -89 -118 -89h-513q-88 0 -101 77q-6 36 54 111l428 706h-342q-115 0 -111 110q3 89 118 89h513q77 0 101 -77q14 -43 -41 -112z" />
    <glyph glyph-name="Zdot" unicode="&#x17b;" horiz-adv-x="1114" 
d="M511 1885h4q34 0 63 -17q31 -18 47 -50q14 -27 14 -58v-10q-3 -36 -25 -65q-20 -26 -44 -37q-25 -13 -56 -12h-6q-31 1 -57 17q-27 16 -44 44q-17 29 -17 63q0 32 16 60q17 29 43 47q28 18 62 18zM992 1242l-646 -1073l592 -3q124 0 123 -113q0 -106 -124 -105l-756 6
q-122 1 -122 105q0 57 41 106l671 1120l-590 5q-122 1 -122 105q0 111 116 111l763 -4q124 0 123 -113q0 -66 -69 -147z" />
    <glyph glyph-name="zdot" unicode="&#x17c;" horiz-adv-x="922" 
d="M483 1419h4q34 0 63 -17q31 -18 47 -50q14 -27 14 -58v-10q-3 -36 -25 -65q-20 -26 -44 -37q-25 -13 -56 -12h-6q-31 1 -57 17q-27 16 -44 44q-17 29 -17 63q0 32 16 60q17 29 43 47q28 18 62 18zM802 858l-436 -719h337q114 0 111 -96q-3 -89 -118 -89h-513
q-88 0 -101 77q-6 36 54 111l428 706h-342q-115 0 -111 110q3 89 118 89h513q77 0 101 -77q14 -43 -41 -112z" />
    <glyph glyph-name="Zcaron" unicode="&#x17d;" horiz-adv-x="1114" 
d="M484 1640q-23 -1 -48 41l-228 262q-60 66 -18 111q66 69 126 2l168 -224l168 224q61 66 127 -2q42 -44 -19 -111l-228 -262q-24 -42 -48 -41zM992 1242l-646 -1073l592 -3q124 0 123 -113q0 -106 -124 -105l-756 6q-122 1 -122 105q0 57 41 106l671 1120l-590 5
q-122 1 -122 105q0 111 116 111l763 -4q124 0 123 -113q0 -66 -69 -147z" />
    <glyph glyph-name="zcaron" unicode="&#x17e;" horiz-adv-x="922" 
d="M411 1171q-23 -1 -48 41l-228 262q-60 66 -18 111q66 69 126 2l168 -224l168 224q61 66 127 -2q42 -44 -19 -111l-228 -262q-24 -42 -48 -41zM802 858l-436 -719h337q114 0 111 -96q-3 -89 -118 -89h-513q-88 0 -101 77q-6 36 54 111l428 706h-342q-115 0 -111 110
q3 89 118 89h513q77 0 101 -77q14 -43 -41 -112z" />
    <glyph glyph-name="longs" unicode="&#x17f;" horiz-adv-x="992" 
d="M222 765l4 213q14 609 436 621q172 5 164 -105q-6 -93 -168 -90q-226 4 -236 -420l-4 -222q0 -5 -1 -10l-15 -688q-2 -109 -110 -107q-90 2 -87 109l16 696q1 1 1 3z" />
    <glyph glyph-name="florin" unicode="&#x192;" horiz-adv-x="702" 
d="M38 -361q-89 8 -102 69q-19 96 102 126q210 66 244 381q25 221 54 416q-56 -1 -110 -2q-97 -2 -93 87q5 98 99 99l133 2q29 172 63 322q47 208 135 324q70 93 231 98q122 4 116 -86q-7 -99 -129 -102q-129 -3 -174 -93q-52 -102 -73 -201q-27 -126 -50 -260q57 1 115 2
q69 1 76 -75q9 -106 -66 -108l-154 -4q-27 -186 -46 -386q-36 -366 -134 -469q-165 -147 -237 -140z" />
    <glyph glyph-name="Ohorn" unicode="&#x1a0;" horiz-adv-x="1167" 
d="M1273 1310q0 -118 -68.5 -186t-150.5 -82q40 -122 40 -292q0 -407 -222 -630q-116 -111 -267 -122q-200 0 -311 136.5t-158 305.5q-48 168 -48 326q0 269 128 444q134 186 427 186q147 0 249 -94q63 -57 103 -124q2 0 30.5 9.5t37 16t29.5 22.5q34 25 42 105
q4 21 22 46.5t35 25.5q50 0 66 -24.5t16 -68.5zM918 739q0 231 -66.5 357t-223.5 126q-281 0 -351 -266q-21 -71 -21 -182.5t42 -259.5q57 -197 168 -277q65 -50 157.5 -50t166 83t101 211t27.5 258z" />
    <glyph glyph-name="ohorn" unicode="&#x1a1;" horiz-adv-x="846" 
d="M943 882q0 -97 -46.5 -158.5t-115.5 -91.5q17 -84 17 -164q0 -185 -100 -327.5t-264.5 -142.5t-265.5 146t-101 324q0 229 93 366q99 145 289 145q90 0 165 -53.5t121 -150.5q57 34 69 128q4 21 22 46t35 25q50 0 66 -24t16 -68zM430 191q143 0 183 124q17 59 17 147
q0 344 -204 344q-88 0 -144.5 -92t-56.5 -195q0 -160 62.5 -244t142.5 -84z" />
    <glyph glyph-name="Uhorn" unicode="&#x1af;" horiz-adv-x="1155" 
d="M974.5 1399q35.5 0 60.5 -36q15 -80 25 -179q38 13 63.5 42.5t33.5 96.5q4 21 22 46t35 25q50 0 66 -24t16 -68q0 -122 -71.5 -189t-155.5 -80l2 -80v-159q0 -181 -6.5 -213.5t-12.5 -72.5t-11.5 -61t-15.5 -56q-23 -78 -65 -139q-63 -118 -166 -185t-209 -67
t-218.5 92.5t-183.5 230.5q-109 214 -109 494q0 99 29 468q15 34 45 60t62 26q46 0 57 -63q-29 -363 -30 -460q0 -231 91 -409q57 -118 139.5 -196.5t162.5 -78.5q132 0 227 206q40 70 44 228q0 42 4 59l4 277q0 193 -29 353q0 44 29.5 78t65 34z" />
    <glyph glyph-name="uhorn" unicode="&#x1b0;" horiz-adv-x="862" 
d="M964 884q0 -128 -80 -197.5t-166 -73.5q32 -447 57 -537q4 -17 4 -39t-28 -42t-73 -20q-47 0 -61 50q-4 42 -20 126q-147 -153 -297 -153q-69 0 -123.5 52.5t-86.5 142.5q-55 174 -54.5 327.5t17.5 378.5q8 36 35.5 60t55.5 24t44 -10.5t19 -19t7 -29.5
q-13 -164 -12.5 -295t32 -300t69.5 -169q57 0 143.5 63t124.5 132q-25 302 -25 519q0 44 28.5 75.5t68.5 31.5q65 -1 65 -89q0 -27 4 -132q32 10 48.5 20t37.5 41.5t26.5 68t23 61.5t34.5 25q50 0 66 -24t16 -68z" />
    <glyph glyph-name="uni01CD" unicode="&#x1cd;" horiz-adv-x="1024" 
d="M722 1783q34 0 54 -25.5t19 -58t-110.5 -112t-153.5 -79.5q-48 0 -149 83t-101 131q0 29 26.5 50t47.5 20t85 -49t100 -92q132 132 182 132zM544 1384q52 0 88 -46t92 -191q133 -343 259 -1073q2 -9 2 -24.5t-20 -33.5t-56.5 -18t-62 18t-34 59t-31.5 160
q-50 267 -67 277q-25 15 -167 32t-188 17t-55 -9q-37 -33 -102 -510q-9 -40 -80.5 -40t-71.5 61q0 151 111.5 577.5t184.5 564.5q93 179 198 179zM536 1151q-32 0 -109.5 -186t-77.5 -230q0 -11 4 -15q17 -16 132.5 -29t153 -13t42 5.5t4.5 34t-57 231t-92 202.5z" />
    <glyph glyph-name="uni01CE" unicode="&#x1ce;" horiz-adv-x="823" 
d="M613 1371q34 0 54 -25t19 -57.5t-110.5 -112.5t-153.5 -80q-48 0 -149 83t-101 131q0 30 26.5 51t47.5 20t85 -49.5t99 -92.5q133 132 183 132zM587 45q-159 -105 -214 -105q-171 -2 -257 48q-87 50 -114 184q-17 80 -15 145q19 135 63 195q97 132 288 183q92 24 162 -9
q4 53 8 107l-40 62l-92 16q-21 0 -124 -40q-139 -54 -153 -9q-35 107 35 143q85 43 184 64q235 51 302 -50l48 -80l22 -124l-10 -154q-11 -91 24 -262q25 -126 52 -252q42 -78 34 -121.5t-77 -50.5q-107 -16 -126 110zM357 117q72 -3 133 62q6 7 20 25q17 21 18 22
q0 35 -34 242q6 25 -39 47l-14 7q-78 27 -166 -20q-38 -19 -59 -47q-67 -91 -64 -172q0 -7 2 -20q1 -14 2 -19q11 -87 70 -110q26 -11 74 -14q43 -3 57 -3z" />
    <glyph glyph-name="uni01CF" unicode="&#x1cf;" horiz-adv-x="493" 
d="M435 1785q33 0 53 -25t19 -57.5t-110 -112.5t-153 -80q-49 0 -149.5 83t-100.5 131q0 30 26 51t47 19.5t85 -49.5t100 -92q132 132 183 132zM284 1357q42 0 52 -49q2 -243 8 -728q0 -296 -16 -502q-5 -32 -39.5 -56t-70.5 -24q-58 0 -58 61q21 210 21 521l-13 705
q8 30 41 51t75 21z" />
    <glyph glyph-name="uni01D0" unicode="&#x1d0;" horiz-adv-x="470" 
d="M401 1373q34 0 54 -25t18.5 -57.5t-110.5 -112.5t-153 -80q-48 0 -149 83t-101 131q0 30 26.5 51t47.5 20t85 -49.5t99 -92.5q133 132 183 132zM307 227l2 -147q0 -40 -31.5 -66.5t-67.5 -26.5q-52 0 -55 53q-27 670 -27 741.5t6 174.5q5 37 49 37q111 0 126 -90
q6 -46 6 -73l-8 -133v-470z" />
    <glyph glyph-name="uni01D1" unicode="&#x1d1;" horiz-adv-x="1167" 
d="M800 1785q34 0 54 -25t19 -57.5t-110.5 -112.5t-153.5 -80q-48 0 -149 83t-101 131q0 30 26.5 51t47.5 19.5t85 -49.5t99 -92q133 132 183 132zM643 1396q147 0 249 -94q202 -181 202 -570.5t-222 -611.5q-116 -112 -267 -122q-200 0 -311 136.5t-158.5 305.5t-47.5 326
q0 269 128 444q135 186 427 186zM628 1222q-282 0 -351 -266q-21 -72 -21 -183t42 -259q57 -197 168 -277q65 -50 157.5 -50t166 83t101 211t27.5 258q0 231 -66.5 357t-223.5 126z" />
    <glyph glyph-name="uni01D2" unicode="&#x1d2;" horiz-adv-x="846" 
d="M611 1371q34 0 54 -25t18.5 -57.5t-110.5 -112.5t-153 -80q-48 0 -149 83t-101 131q0 30 26.5 51t47.5 20t85 -49.5t99 -92.5q133 132 183 132zM452 979q151 0 248.5 -145t97.5 -347.5t-100 -345.5t-264.5 -143t-265.5 146t-101 324q0 229 93 366q98 145 292 145z
M426 806q-88 0 -144.5 -92t-56.5 -195q0 -160 63 -244t142 -84q143 0 183 124q17 59 17 147q0 344 -204 344z" />
    <glyph glyph-name="uni01D3" unicode="&#x1d3;" horiz-adv-x="1155" 
d="M756 1785q34 0 54 -25t18.5 -57.5t-110.5 -112.5t-153 -80q-48 0 -149 83t-101 131q0 30 26.5 51t47.5 19.5t85 -49.5t99 -92q133 132 183 132zM974.5 1399q35.5 0 60.5 -36q36 -183 36 -410v-159q0 -181 -6.5 -213.5t-12.5 -72.5t-11.5 -61t-15.5 -56q-23 -78 -65 -139
q-63 -118 -166 -185t-209 -67t-218.5 92.5t-183.5 230.5q-109 215 -109 494q0 99 29 468q15 34 45 60t62 26q46 0 57 -63q-30 -363 -30 -460q0 -231 91 -409q56 -118 139 -196.5t163 -78.5q132 0 227 206q40 71 44 228q0 42 4 59l4 277q0 194 -29 353q0 44 29.5 78t65 34z
" />
    <glyph glyph-name="uni01D4" unicode="&#x1d4;" horiz-adv-x="840" 
d="M590 1365q34 0 54 -25t19 -57.5t-110.5 -112.5t-153.5 -80q-48 0 -149 83t-101 131q0 30 26.5 51t47.5 19.5t85 -49.5t99 -92q133 132 183 132zM111.5 958.5q27.5 24.5 55.5 24.5t44 -10.5t19 -19t7 -29.5q-12 -164 -12 -295t31.5 -300t69.5 -169q56 0 143 63t125 132
q-25 302 -25 519q0 44 28.5 75.5t68.5 31.5q65 0 65 -89q0 -149 22 -443t45 -373q4 -17 4 -39t-28 -42t-73.5 -20t-60.5 50q-4 42 -20 126q-148 -153 -297 -153q-69 0 -123.5 52.5t-86.5 142.5q-54 175 -54 328t17 378q8 35 35.5 59.5z" />
    <glyph glyph-name="uni01F0" unicode="&#x1f0;" horiz-adv-x="493" 
d="M416 1363q34 0 53.5 -25.5t18.5 -58t-110 -112t-153 -79.5q-48 0 -149 83t-101 131q0 29 26 50t47 20t85 -49t100 -92q133 132 183 132zM189 961q27 22 82 22t61 -53q29 -258 29 -489t-14.5 -463t-67.5 -358q-71 -166 -258 -166q-94 0 -163.5 59t-69.5 141q0 44 31.5 67
t69 23t56.5 -19t26 -42q21 -61 72 -61t88 82t48.5 222.5t11.5 298.5q0 494 -25 680q-4 34 23 56z" />
    <glyph glyph-name="Aringacute" unicode="&#x1fa;" 
d="M657 1363l368 -1241q49 -137 -50 -166q-94 -28 -144 110l-113 435h-308l-113 -435q-50 -138 -144 -110q-99 29 -50 166l368 1241q19 85 93 85q73 0 93 -85zM564 1167l-107 -463l213 2zM602 1947q-21 -47 -39 -47t-35 16t-17 46.5t9 60.5l52 174q18 60 48 60q16 0 40 -22
t24 -56.5t-14 -69.5zM451 1540q21 -42 43 -61q24 -21 57 -24h6q28 0 54 18q25 18 44 51q25 45 31 105q1 14 1 29q0 45 -12 85q-16 55 -49 87q-32 31 -69 31h-2q-37 -1 -68 -31q-30 -30 -46 -81q-14 -43 -14 -91q0 -8 1 -16q2 -59 23 -102zM553 2010h6q63 0 118 -52
q57 -54 85 -148q22 -72 22 -151q0 -23 -2 -46q-10 -110 -52 -182q-26 -47 -61 -78t-76 -41q-17 -4 -33 -4q-65 0 -120 54q-63 62 -90 170q-15 61 -15 128q0 47 8 92q19 112 77 183q58 72 133 75z" />
    <glyph glyph-name="aringacute" unicode="&#x1fb;" horiz-adv-x="601" 
d="M455 1691q-32 -47 -60 -47t-55 16t-27 46.5t14 60.5l82 174q27 60 74 60q25 0 63 -22t38 -56.5t-23 -69.5zM369 1133q32 -42 65 -61q24 -21 57 -24h6q28 0 54 18q31 18 60 51q40 45 48 105q2 14 2 29q0 45 -18 85q-25 55 -77 87q-32 31 -69 31h-2q-37 -1 -70 -31
q-47 -30 -72 -81q-22 -43 -22 -91q0 -8 1 -16q4 -59 37 -102zM493 1603h6q63 0 146 -52q89 -54 133 -148q34 -72 34 -151q0 -23 -3 -46q-15 -110 -81 -182q-40 -47 -95 -78t-100 -41q-17 -4 -33 -4q-65 0 -149 54q-98 62 -140 170q-24 61 -24 128q0 47 12 92q31 112 121 183
q91 72 173 75zM587 45q-159 -105 -214 -105q-171 -2 -257 48q-87 50 -114 184q-17 80 -15 145q19 135 63 195q97 132 288 183q92 24 162 -9q4 53 8 107l-40 62l-92 16q-21 0 -124 -40q-139 -54 -153 -9q-35 107 35 143q85 43 184 64q235 51 302 -50l48 -80l22 -124l-10 -154
q-11 -91 24 -262q25 -126 52 -252q42 -78 34 -121.5t-77 -50.5q-107 -16 -126 110zM357 117q72 -3 133 62q6 7 20 25q17 21 18 22q0 35 -34 242q6 25 -39 47l-14 7q-78 27 -166 -20q-38 -19 -59 -47q-67 -91 -64 -172q0 -7 2 -20q1 -14 2 -19q11 -87 70 -110q26 -11 74 -14
q43 -3 57 -3z" />
    <glyph glyph-name="AEacute" unicode="&#x1fc;" horiz-adv-x="1687" 
d="M1467 2081q75 -59 14 -126l-237 -260q-87 -96 -144 -40q-54 53 28 155l208 260q57 71 131 11zM1019 1507l490 4q141 1 144 -116q3 -93 -138 -94q-251 -2 -463 -4l-5 -363l354 4q138 1 141 -117q3 -93 -137 -93q-181 -2 -362 -3l-7 -571l411 4q141 1 144 -116
q3 -93 -138 -94l-491 -4q-12 0 -22 2h-16q-89 2 -87 103l12 672h-250l-378 -649q-72 -83 -153 -17q-75 62 -3 144l761 1234q50 71 112 74q11 1 21 1q21 0 37 -3q11 2 23 2zM717 936h137l6 249z" />
    <glyph glyph-name="aeacute" unicode="&#x1fd;" horiz-adv-x="1194" 
d="M1151 1631q75 -59 14 -126l-237 -260q-87 -96 -144 -40q-54 53 28 155l208 260q57 71 131 11zM908 361q3 -79 38 -126q72 -99 162 -98q127 2 194 80q63 74 110 84q48 10 68 -30q47 -93 -44 -174q-162 -144 -336 -140q-94 2 -214 120q-162 160 -162 317q0 285 99 446
q125 203 253 215q140 13 269 -139q129 -153 125 -327q-4 -117 -111 -138zM924 561l385 65q-15 118 -96 194q-76 72 -119 55q-89 -34 -134 -131q-36 -76 -36 -183zM587 45q-159 -105 -214 -105q-171 -2 -257 48q-87 50 -114 184q-17 80 -15 145q19 135 63 195q97 132 288 183
q92 24 162 -9q4 53 8 107l-40 62l-92 16q-21 0 -124 -40q-139 -54 -153 -9q-35 107 35 143q85 43 184 64q235 51 302 -50l48 -80l22 -124l-10 -154q-11 -91 24 -262q25 -126 52 -252q42 -78 34 -121.5t-77 -50.5q-107 -16 -126 110zM357 117q72 -3 133 62q6 7 20 25
q17 21 18 22q0 35 -34 242q6 25 -39 47l-14 7q-78 27 -166 -20q-38 -19 -59 -47q-67 -91 -64 -172q0 -7 2 -20q1 -14 2 -19q11 -87 70 -110q26 -11 74 -14q43 -3 57 -3z" />
    <glyph glyph-name="Oslashacute" unicode="&#x1fe;" horiz-adv-x="1263" 
d="M981 2115q75 -59 14 -126l-237 -260q-87 -96 -144 -40q-54 53 28 155l208 260q57 71 131 11zM228 -48q-73 -78 -147 -6q-68 66 6 144l960 1402q83 88 153 33q80 -62 0 -147zM713 1313q-143 15 -248 -143q-156 -234 -156 -595q0 -182 72 -297q83 -135 224 -135
q137 0 215 147q142 265 144 588q6 408 -251 435zM705 1512q461 -7 460 -633q-1 -404 -228 -694q-132 -248 -332 -248q-208 0 -362 223q-144 159 -144 413q0 397 243 701q134 242 363 238z" />
    <glyph glyph-name="oslashacute" unicode="&#x1ff;" horiz-adv-x="879" 
d="M760 1618q75 -59 14 -126l-237 -260q-87 -96 -144 -40q-54 53 28 155l208 260q57 71 131 11zM156 -23q-48 -54 -92 -15q-60 53 -12 106l670 958q38 42 86 2q53 -46 16 -88zM450 845q-84 -3 -126 -91q-64 -136 -64 -299q0 -157 47 -235q47 -80 108 -80q70 0 118 80
q51 85 51 273q1 356 -134 352zM445 1049q326 -3 325 -576q-1 -244 -108 -371q-105 -153 -262 -151q-114 1 -224 148q-112 133 -112 374q0 228 134 404q107 174 247 172z" />
    <glyph glyph-name="Scommaaccent" unicode="&#x218;" horiz-adv-x="1132" 
d="M317 -237q0 116 129 116q128 0 128 -162q0 -42 -11 -86q-33 -134 -85.5 -193t-99.5 -59q-21 0 -48 20t-27 58t32 89t53 89q-66 40 -71 116v12zM239 1238q63 106 189 196q98 70 199 64q74 -5 166 -51q146 -72 149 -126q3 -51 -54 -79q-45 -22 -125 20q-102 53 -159 48
q-106 -10 -164 -80q-61 -75 -66 -164q-14 -285 93 -309q51 -11 193 -17q147 -7 232 -95q120 -125 116 -186q-15 -253 -239 -406q-139 -95 -261 -96q-103 -1 -205 49q-96 47 -136 82q-80 71 -72 131q9 66 60 81q61 17 142 -59q66 -62 119 -82q83 -30 152 -11q115 32 167 100
q78 105 63 181q-25 128 -272 122q-274 -6 -336 274q-53 241 49 413z" />
    <glyph glyph-name="scommaaccent" unicode="&#x219;" horiz-adv-x="790" 
d="M124 -237q0 116 129 116q128 0 128 -162q0 -42 -11 -86q-33 -134 -85.5 -193t-99.5 -59q-21 0 -48 20t-27 58t32 89t53 89q-66 40 -71 116v12zM305 144q140 -14 176 58q40 82 16 119q-41 63 -162 87q-217 43 -243 157q-32 143 5.5 239t128.5 175q86 75 151 84
q90 13 195 -41q144 -73 157 -161q9 -60 -37 -97q-60 -49 -173 65q-56 57 -121 52q-88 -7 -115 -74q-32 -79 -14 -146q14 -55 129 -74q43 -7 113 -48q111 -66 142 -103q59 -73 41 -214q-15 -124 -140 -212q-95 -67 -195 -68q-82 -1 -160 24q-63 20 -132 60q-70 40 -74 100
q-4 66 42 96q58 38 128 -12q83 -60 142 -66z" />
    <glyph glyph-name="Tcommaaccent" unicode="&#x21a;" horiz-adv-x="1175" 
d="M408 -237q0 116 129 116q128 0 128 -162q0 -42 -11 -86q-33 -134 -85.5 -193t-99.5 -59q-21 0 -48 20t-27 58t32 89t53 89q-66 40 -71 116v12zM210 1500h843q130 0 132 -98q2 -92 -132 -92l-311 -1l-19 -1259q-2 -102 -109 -100q-89 2 -88 102l25 1256q-156 -1 -350 -1
q-126 0 -126 105q0 88 135 88z" />
    <glyph glyph-name="tcommaaccent" unicode="&#x21b;" horiz-adv-x="712" 
d="M4 -237q0 116 129 116q128 0 128 -162q0 -42 -11 -86q-33 -134 -85.5 -193t-99.5 -59q-21 0 -48 20t-27 58t32 89t53 89q-66 40 -71 116v12zM281 1531q91 0 91 -99v-339l174 1q123 1 123 -100q0 -102 -117 -102h-184l-16 -828q-2 -109 -109 -107q-116 3 -110 115l45 820
l-39 4q-86 0 -86 98q0 105 95 101q21 -1 35 -3l6 346q1 93 92 93z" />
    <glyph glyph-name="circumflex" unicode="&#x2c6;" horiz-adv-x="761" 
d="M480 1703q28 1 56 -48l252 -306q70 -77 20 -129q-76 -80 -146 -3l-182 262l-180 -262q-70 -77 -148 3q-48 52 22 129l250 306q29 49 56 48z" />
    <glyph glyph-name="caron" unicode="&#x2c7;" horiz-adv-x="991" 
d="M483 1174q-23 -1 -48 41l-228 262q-60 66 -18 111q66 69 126 2l168 -224l168 224q61 66 127 -2q42 -44 -19 -111l-228 -262q-24 -42 -48 -41z" />
    <glyph glyph-name="macron" unicode="&#x2c9;" horiz-adv-x="1027" 
d="M256 1342l473 2q100 0 101 -76q0 -78 -96 -78l-485 1q-70 0 -70 74q0 77 77 77z" />
    <glyph glyph-name="breve" unicode="&#x2d8;" horiz-adv-x="971" 
d="M494 1325q147 -5 197 145q45 137 116 112q76 -27 36 -144q-90 -260 -352 -258q-244 2 -335 233q-60 151 29 168q90 17 111 -93q29 -157 198 -163z" />
    <glyph glyph-name="dotaccent" unicode="&#x2d9;" horiz-adv-x="728" 
d="M381 1416h4q34 0 63 -17q31 -18 47 -50q14 -27 14 -58v-10q-3 -36 -25 -65q-20 -26 -44 -37q-25 -13 -56 -12h-6q-31 1 -57 17q-27 16 -44 44q-17 29 -17 63q0 32 16 60q17 29 43 47q28 18 62 18z" />
    <glyph glyph-name="ring" unicode="&#x2da;" horiz-adv-x="728" 
d="M408 1350q32 -42 65 -61q24 -21 57 -24h6q28 0 54 18q31 18 60 51q40 45 48 105q2 14 2 29q0 45 -18 85q-25 55 -77 87q-32 31 -69 31h-2q-37 -1 -70 -31q-47 -30 -72 -81q-22 -43 -22 -91q0 -8 1 -16q4 -59 37 -102zM532 1820h6q63 0 146 -52q89 -54 133 -148
q34 -72 34 -151q0 -23 -3 -46q-15 -110 -81 -182q-40 -47 -95 -78t-100 -41q-17 -4 -33 -4q-65 0 -149 54q-98 62 -140 170q-24 61 -24 128q0 47 12 92q31 112 121 183q91 72 173 75z" />
    <glyph glyph-name="ogonek" unicode="&#x2db;" horiz-adv-x="1008" 
d="M550 135q30 -75 -37 -96q-59 -18 -84 -34q-88 -54 -88 -103q0 -82 80 -97q63 -12 126 17q68 31 90 29q58 -6 62 -42q9 -66 -51 -103q-100 -62 -207 -57q-164 7 -209 108q-82 186 54 324q65 68 160 83q87 14 104 -29z" />
    <glyph glyph-name="tilde" unicode="&#x2dc;" horiz-adv-x="728" 
d="M297.897 1245.45q-37.8799 -75.6074 -107.473 -44.1045q-59.0215 27.0029 -35.2363 108.911q30.832 106.21 118.924 182.717q65.1885 76.5078 124.21 75.6074q76.6396 -0.900391 110.996 -101.71q44.9268 -124.212 103.948 -127.812q44.9268 -2.70117 72.2354 125.111
q27.3086 84.6084 86.3301 81.9082q80.1641 -2.7002 74.8789 -124.212q-4.40527 -102.61 -88.0928 -181.817q-70.4736 -65.7061 -139.185 -66.6064q-90.7354 -0.900391 -139.186 115.211q-57.2598 138.613 -94.2588 118.812q-43.165 -21.6025 -88.0918 -162.016z" />
    <glyph glyph-name="hungarumlaut" unicode="&#x2dd;" horiz-adv-x="972" 
d="M467 1196q-46 56 -11 112l184 242q70 72 124 22q58 -54 -12 -126l-221 -232q-34 -54 -64 -18zM174 1196q-70 56 -18 112l231 242q43 72 78 22q37 -54 -8 -126l-185 -232q-52 -54 -98 -18z" />
    <glyph glyph-name="tonos" unicode="&#x384;" horiz-adv-x="975" 
d="M440 1196q-32 -47 -60 -47t-55 16t-27 46.5t14 60.5l82 174q27 60 74 60q25 0 63 -22t38 -56.5t-23 -69.5z" />
    <glyph glyph-name="dieresistonos" unicode="&#x385;" horiz-adv-x="945" 
d="M726 1370q123 0 123 -93q0 -91 -125 -91q-116 0 -116 88q0 96 118 96zM197 1370q123 0 123 -93q0 -91 -125 -91q-116 0 -116 88q0 96 118 96zM478 1196q-21 -47 -39 -47t-35 16t-17 46.5t9 60.5l52 174q17 60 48 60q16 0 40 -22t24 -56.5t-15 -69.5z" />
    <glyph glyph-name="Alphatonos" unicode="&#x386;" 
d="M82 1248q-32 -47 -60 -47t-55 16t-27 46.5t14 60.5l82 174q27 60 74 60q25 0 63 -22t38 -56.5t-23 -69.5zM657 1363l368 -1241q39 -133 -50 -166q-85 -32 -144 110l-89 214l-380 -10l-65 -204q-44 -139 -144 -110q-91 27 -50 166l368 1241q49 166 93 166t93 -166z
M559 1100l-162 -645l310 8z" />
    <glyph glyph-name="anoteleia" unicode="&#x387;" horiz-adv-x="326" 
d="M212 842h4q34 0 63 -17q31 -18 47 -50q14 -27 14 -58v-10q-3 -36 -25 -65q-20 -26 -44 -37q-25 -13 -56 -12h-6q-31 1 -57 17q-27 16 -44 44q-17 29 -17 63q0 32 16 60q17 29 43 47q28 18 62 18z" />
    <glyph glyph-name="Epsilontonos" unicode="&#x388;" horiz-adv-x="1033" 
d="M117 1196q-32 -47 -60 -47t-55 16t-27 46.5t14 60.5l82 174q27 60 74 60q25 0 63 -22t38 -56.5t-23 -69.5zM629 1501l490 4q141 1 144 -115q3 -91 -138 -92q-250 -2 -461 -4l-8 -606l354 3q136 1 141 -114q3 -92 -137 -93l-361 -3l-12 -314l416 3q141 1 144 -114
q3 -92 -138 -93l-496 -4q-12 2 -22 2h-16q-90 2 -87 102l33 1353q2 87 94 86q18 0 37 -3q6 -1 23 2z" />
    <glyph glyph-name="Etatonos" unicode="&#x389;" horiz-adv-x="1288" 
d="M169 1196q-32 -47 -60 -47t-55 16t-27 46.5t14 60.5l82 174q27 60 74 60q25 0 63 -22t38 -56.5t-23 -69.5zM672 1513q98 0 97 -93l-9 -580h553l12 584q2 86 92 88q104 0 102 -93l-27 -1364q-1 -103 -109 -101q-90 2 -88 103l14 574h-559l-8 -575q-2 -103 -110 -102
q-90 2 -87 103l33 1368q2 86 94 88z" />
    <glyph glyph-name="Iotatonos" unicode="&#x38a;" horiz-adv-x="991" 
d="M47 1196q-32 -47 -60 -47t-55 16t-27 46.5t14 60.5l82 174q27 60 74 60q25 0 63 -22t38 -56.5t-23 -69.5zM614 1494h616q121 0 123 -108q2 -99 -129 -99h-234l-18 -1122h244q121 0 123 -108q2 -99 -129 -99h-619q-126 0 -126 113q0 95 135 94h176l29 1122h-200
q-126 0 -126 112q0 95 135 95z" />
    <glyph glyph-name="Omicrontonos" unicode="&#x38c;" horiz-adv-x="1148" 
d="M74 1196q-32 -47 -60 -47t-55 16t-27 46.5t14 60.5l82 174q27 60 74 60q25 0 63 -22t38 -56.5t-23 -69.5zM845 1313q-143 15 -248 -143q-155 -234 -155 -595q0 -182 71 -297q83 -135 224 -135q137 0 215 147q142 265 144 588q6 408 -251 435zM837 1512q461 -7 460 -633
q-1 -404 -228 -694q-131 -248 -332 -248q-208 0 -361 223q-144 159 -144 413q0 397 242 701q134 242 363 238z" />
    <glyph glyph-name="Upsilontonos" unicode="&#x38e;" horiz-adv-x="1113" 
d="M23 1196q-32 -47 -60 -47t-55 16t-27 46.5t14 60.5l82 174q27 60 74 60q25 0 63 -22t38 -56.5t-23 -69.5zM1352 1496q86 -46 48 -126l-484 -1323q-40 -134 -111 -77q-52 39 -2 200l102 330l-422 858q-49 79 30 133q86 59 150 -45l308 -735l243 730q50 103 138 55z" />
    <glyph glyph-name="Omegatonos" unicode="&#x38f;" horiz-adv-x="1257" 
d="M43 1196q-32 -47 -60 -47t-55 16t-27 46.5t14 60.5l82 174q27 60 74 60q25 0 63 -22t38 -56.5t-23 -69.5zM542 -88h-364q-118 0 -117 88q2 90 120 90h262q-103 218 -125 420q-52 345 16 609q50 247 188 402q95 107 270.5 111t258.5 -108q127 -168 171 -441
q49 -309 -52 -642q-35 -176 -121 -351h245q118 0 120 -90q1 -88 -117 -88h-316q-80 0 -100 70q-21 71 35 162q107 179 144 372q52 277 21 537q-25 215 -112 309q-78 85 -186 78q-122 -8 -198 -93q-100 -113 -128 -276q-46 -259 -12 -519q21 -164 143 -423q104 -217 -46 -217
z" />
    <glyph glyph-name="iotadieresistonos" unicode="&#x390;" horiz-adv-x="344" 
d="M449 1392q123 0 123 -93q0 -91 -125 -91q-116 0 -116 88q0 96 118 96zM-80 1392q123 0 123 -93q0 -91 -125 -91q-116 0 -116 88q0 96 118 96zM201 1218q-21 -47 -39 -47t-35 16t-17 46.5t9 60.5l52 174q17 60 48 60q16 0 40 -22t24 -56.5t-15 -69.5zM239 1047
q95 -2 93 -130l-14 -832q-2 -135 -96 -135q-107 1 -104 127l17 839q3 133 104 131z" />
    <glyph glyph-name="Alpha" unicode="&#x391;" 
d="M657 1363l368 -1241q39 -133 -50 -166q-85 -32 -144 110l-89 214l-380 -10l-65 -204q-44 -139 -144 -110q-91 27 -50 166l368 1241q49 166 93 166t93 -166zM559 1100l-162 -645l310 8z" />
    <glyph glyph-name="Beta" unicode="&#x392;" horiz-adv-x="1053" 
d="M346 1331l-10 -604q180 -34 273 182q62 145 23 267q-46 145 -196 152q-45 2 -90 3zM251 1528q23 0 41 -5q50 10 173 -8q243 -36 340 -301q106 -289 -109 -532q-20 -23 -38 -44q54 -20 82 -41q239 -177 160 -387q-58 -155 -289 -233q-126 -42 -381 -42l-18 -1
q-89 -5 -87 109l33 1392q3 93 93 93zM328 530l-5 -406q67 -8 129 3q64 12 154 59q106 55 117 153q4 37 -79 111q-69 62 -161 75q-97 13 -155 5z" />
    <glyph glyph-name="Gamma" unicode="&#x393;" horiz-adv-x="1046" 
d="M278 -3q-88 2 -93 93l-65 1305q-4 107 88 109h14h6l613 -13q96 -2 96 -110q0 -110 -99 -108l-519 16l58 -1193q4 -99 -99 -99z" />
    <glyph glyph-name="uni0394" unicode="&#x394;" horiz-adv-x="1248" 
d="M1103 -51h-936q-24 -1 -51 3q-84 13 -39 120l476 1479q30 110 82 107q53 4 83 -107l475 -1479q51 -123 -43 -123h-47zM635 1339l-305 -1180h611z" />
    <glyph glyph-name="Epsilon" unicode="&#x395;" horiz-adv-x="1036" 
d="M293 1501l490 4q141 1 144 -115q3 -91 -138 -92q-250 -2 -461 -4l-8 -606l354 3q136 1 141 -114q3 -92 -137 -93l-361 -3l-12 -314l416 3q141 1 144 -114q3 -92 -138 -93l-496 -4q-12 2 -22 2h-16q-90 2 -87 102l33 1353q2 87 94 86q18 0 37 -3q6 -1 23 2z" />
    <glyph glyph-name="Zeta" unicode="&#x396;" horiz-adv-x="1114" 
d="M992 1242l-646 -1073l592 -3q124 0 123 -113q0 -106 -124 -105l-756 6q-122 1 -122 105q0 57 41 106l671 1120l-590 5q-122 1 -122 105q0 111 116 111l763 -4q124 0 123 -113q0 -66 -69 -147z" />
    <glyph glyph-name="Eta" unicode="&#x397;" horiz-adv-x="1207" 
d="M229 1513q98 0 97 -93l-9 -580h553l12 584q2 86 92 88q104 0 102 -93l-27 -1364q-1 -103 -109 -101q-90 2 -88 103l14 574h-559l-8 -575q-2 -103 -110 -102q-90 2 -87 103l33 1368q2 86 94 88z" />
    <glyph glyph-name="Theta" unicode="&#x398;" horiz-adv-x="1231" 
d="M454 833l308 2q60 0 60 -76q0 -77 -57 -77h-314q-43 0 -43 74q0 77 46 77zM687 1313q-143 15 -248 -143q-155 -234 -155 -595q0 -182 71 -297q83 -135 224 -135q137 0 215 147q142 265 144 588q6 408 -251 435zM679 1512q461 -7 460 -633q-1 -404 -228 -694
q-131 -248 -332 -248q-208 0 -361 223q-144 159 -144 413q0 397 242 701q134 242 363 238z" />
    <glyph glyph-name="Iota" unicode="&#x399;" horiz-adv-x="985" 
d="M192 1494h616q121 0 123 -108q2 -99 -129 -99h-234l-18 -1122h244q121 0 123 -108q2 -99 -129 -99h-619q-126 0 -126 113q0 95 135 94h176l29 1122h-200q-126 0 -126 112q0 95 135 95z" />
    <glyph glyph-name="Kappa" unicode="&#x39a;" horiz-adv-x="1034" 
d="M263 1521q99 0 97 -94l-9 -584l370 611q79 85 154 12q74 -73 2 -147l-444 -620l470 -526q93 -78 28 -143q-68 -68 -164 11l-426 517l-8 -513q-2 -104 -110 -102q-90 2 -87 104l33 1385q2 87 94 89z" />
    <glyph glyph-name="Lambda" unicode="&#x39b;" horiz-adv-x="1086" 
d="M61 -45q-81 37 -30 159l442 1350q24 90 74.5 90t74.5 -90l442 -1350q51 -122 -30 -159q-118 -54 -168 69l-318 1174l-319 -1174q-50 -123 -168 -69z" />
    <glyph glyph-name="Mu" unicode="&#x39c;" horiz-adv-x="1358" 
d="M643 -19q-59 6 -83 163l-137 856l-141 -935q-34 -157 -140 -97q-94 53 -58 209l254 1178q21 135 80 149q60 14 77 -94l156 -1027l191 977q33 166 97 163q59 -2 82 -170l248 -1250q30 -143 -78 -156q-115 -14 -149 160l-114 906l-188 -857q-39 -182 -97 -175z" />
    <glyph glyph-name="Nu" unicode="&#x39d;" horiz-adv-x="1245" 
d="M928 331l28 1115q2 86 93 87q104 1 102 -93l-31 -1351q-2 -103 -110 -100q-144 3 -181 72l-534 984l-15 -987q-1 -102 -109 -100q-90 2 -88 102l34 1355q2 85 92 87q62 1 79 -29z" />
    <glyph glyph-name="Xi" unicode="&#x39e;" horiz-adv-x="1150" 
d="M60 74q-2 108 104 108h771q130 0 126 -108q-3 -92 -133 -92l-761 -1q-106 0 -107 93zM177 779q3 97 123 97h473q105 0 106 -94q2 -98 -104 -98l-481 1q-120 0 -117 94zM60 1398q-2 108 104 108h771q130 0 126 -108q-3 -92 -133 -92l-761 -1q-106 0 -107 93z" />
    <glyph glyph-name="Omicron" unicode="&#x39f;" horiz-adv-x="1231" 
d="M687 1313q-143 15 -248 -143q-155 -234 -155 -595q0 -182 71 -297q83 -135 224 -135q137 0 215 147q142 265 144 588q6 408 -251 435zM679 1512q461 -7 460 -633q-1 -404 -228 -694q-131 -248 -332 -248q-208 0 -361 223q-144 159 -144 413q0 397 242 701
q134 242 363 238z" />
    <glyph glyph-name="Pi" unicode="&#x3a0;" horiz-adv-x="1530" 
d="M68 1464q-1 105 116 105h1112q134 0 135 -101q2 -106 -132 -106h-67q1 -646 3 -1293q0 -105 -102 -108q-98 -3 -99 102l-6 1299h-507q1 -646 3 -1293q0 -105 -102 -108q-98 -3 -99 102l-9 1299h-129q-117 0 -117 102z" />
    <glyph glyph-name="Rho" unicode="&#x3a1;" horiz-adv-x="967" 
d="M277 1518q23 0 41 -4q117 14 185 4q264 -35 361 -286q98 -255 -84 -484q-107 -133 -388 -156q-20 -2 -36 1l-8 -535q-2 -104 -110 -102q-90 2 -88 104l34 1370q2 88 93 88zM372 1317l-8 -535q227 -37 283 115q83 149 15 280q-56 152 -200 150q-38 -1 -90 -10z" />
    <glyph glyph-name="Sigma" unicode="&#x3a3;" horiz-adv-x="1199" 
d="M87 64q-1 47 19 74q12 22 35 46l420 565l-420 565q-13 13 -22 26q-31 21 -32 67q-2 108 104 108h741q130 0 126 -108q-3 -84 -133 -84q-296 0 -551 -1l278 -458q31 -50 39 -90q2 -12 2 -25t-2 -25q-8 -40 -39 -90l-281 -462h561q130 0 126 -108q-3 -84 -133 -84l-731 -1
q-106 0 -107 85z" />
    <glyph glyph-name="Tau" unicode="&#x3a4;" horiz-adv-x="1175" 
d="M210 1500h843q130 0 132 -98q2 -92 -132 -92l-311 -1l-19 -1259q-2 -102 -109 -100q-89 2 -88 102l25 1256q-156 -1 -350 -1q-126 0 -126 105q0 88 135 88z" />
    <glyph glyph-name="Upsilon" unicode="&#x3a5;" horiz-adv-x="1017" 
d="M905 1496q86 -46 48 -126l-484 -1323q-40 -134 -111 -77q-52 39 -2 200l102 330l-422 858q-49 79 30 133q86 59 150 -45l308 -735l243 730q50 103 138 55z" />
    <glyph glyph-name="Phi" unicode="&#x3a6;" horiz-adv-x="1069" 
d="M262 64q0 111 69 111h104l2 112q-377 41 -377 427q0 447 398 488q1 46 2 91h-121q-77 0 -77 84q0 111 69 111h441q64 0 66 -113q1 -82 -64 -82h-126l-1 -90q371 -34 371 -438q0 -450 -386 -481l-2 -109h142q64 0 66 -113q1 -82 -64 -82h-435q-77 0 -77 84zM644 1022
q-4 -282 -10 -563q201 24 201 294q0 239 -191 269zM441 463l13 557q-208 -37 -208 -312q0 -210 195 -245z" />
    <glyph glyph-name="Chi" unicode="&#x3a7;" horiz-adv-x="1155" 
d="M157 1498q81 47 173 -90l235 -481l235 481q92 137 173 90q105 -61 33 -154l-357 -589l393 -642q59 -77 -12 -131q-90 -68 -150 8l-315 596l-315 -596q-60 -77 -150 -8q-71 54 -12 131l393 642l-357 589q-72 93 33 154z" />
    <glyph glyph-name="Psi" unicode="&#x3a8;" horiz-adv-x="1237" 
d="M252 1409q-28 -430 43 -563q70 -131 262 -162l17 744q2 111 108 111q95 0 93 -111l-18 -749q110 21 155 135q84 208 74 611q-1 110 102 105q92 -4 93 -114q7 -505 -129 -699q-110 -193 -300 -224l-10 -412q-3 -107 -111 -105q-89 1 -87 108q5 204 9 408q-225 29 -393 216
q-147 162 -111 711q7 129 101 124q110 -5 102 -134z" />
    <glyph glyph-name="Omega" unicode="&#x3a9;" horiz-adv-x="1454" 
d="M522 -88h-364q-118 0 -117 88q2 90 120 90h262q-103 218 -125 420q-52 345 16 609q50 247 188 402q95 107 270.5 111t258.5 -108q127 -168 171 -441q49 -309 -52 -642q-35 -176 -121 -351h245q118 0 120 -90q1 -88 -117 -88h-316q-80 0 -100 70q-21 71 35 162
q107 179 144 372q52 277 21 537q-25 215 -112 309q-78 85 -186 78q-122 -8 -198 -93q-100 -113 -128 -276q-46 -259 -12 -519q21 -164 143 -423q104 -217 -46 -217z" />
    <glyph glyph-name="Iotadieresis" unicode="&#x3aa;" horiz-adv-x="985" 
d="M608 1818q123 0 123 -93q0 -91 -125 -91q-116 0 -116 88q0 96 118 96zM195 1818q123 0 123 -93q0 -91 -125 -91q-116 0 -116 88q0 96 118 96zM192 1494h616q121 0 123 -108q2 -99 -129 -99h-234l-18 -1122h244q121 0 123 -108q2 -99 -129 -99h-619q-126 0 -126 113
q0 95 135 94h176l29 1122h-200q-126 0 -126 112q0 95 135 95z" />
    <glyph glyph-name="Upsilondieresis" unicode="&#x3ab;" horiz-adv-x="1017" 
d="M589 1821q123 0 123 -93q0 -91 -125 -91q-116 0 -116 88q0 96 118 96zM176 1821q123 0 123 -93q0 -91 -125 -91q-116 0 -116 88q0 96 118 96zM905 1496q86 -46 48 -126l-484 -1323q-40 -134 -111 -77q-52 39 -2 200l102 330l-422 858q-49 79 30 133q86 59 150 -45
l308 -735l243 730q50 103 138 55z" />
    <glyph glyph-name="alphatonos" unicode="&#x3ac;" horiz-adv-x="876" 
d="M415 1189q-32 -47 -60 -47t-55 16t-27 46.5t14 60.5l82 174q27 60 74 60q25 0 63 -22t38 -56.5t-23 -69.5zM393 -56q-355 0 -360 480q-3 304 202 484q156 209 385 95q81 115 154 58q77 -60 -26 -190q-44 -55 -38 -326q8 -330 74 -422q63 -84 10 -149q-70 -76 -180 87
q-136 -117 -221 -117zM467 145q38 17 89 89q-25 430 -3 589q-62 61 -130 35q-47 -18 -75 -51q-114 -129 -120 -364q2 -306 135 -320q43 -4 104 22z" />
    <glyph glyph-name="epsilontonos" unicode="&#x3ad;" horiz-adv-x="871" 
d="M345 1218q-32 -47 -60 -47t-55 16t-27 46.5t14 60.5l82 174q27 60 74 60q25 0 63 -22t38 -56.5t-23 -69.5zM415 616q72 -34 65 -112q-4 -62 -78 -70q-118 -10 -123 -148q-4 -137 112 -152q99 -17 161 44q75 62 120 60q81 -4 86 -96q2 -48 -80 -106q-182 -135 -333 -72
q-227 62 -242 252q-12 152 46 236q48 70 98 100q-80 86 -88 108q-59 141 28 254q97 126 229 134q99 7 218 -58q91 -51 85 -137q-5 -61 -65 -68q-30 -4 -144 67q-41 39 -105 19q-88 -25 -88 -105q0 -109 98 -150z" />
    <glyph glyph-name="etatonos" unicode="&#x3ae;" horiz-adv-x="872" 
d="M400 1269q-32 -47 -60 -47t-55 16t-27 46.5t14 60.5l82 174q27 60 74 60q25 0 63 -22t38 -56.5t-23 -69.5zM202 1094q96 0 94 -99q0 -29 -1 -59q70 99 179 99q311 -1 310 -456l-2 -768q0 -121 -96 -129q-106 -10 -106 111l6 742q2 277 -103 288q-89 10 -191 -149
l-10 -605q-3 -109 -110 -107q-90 2 -87 109l23 930q2 93 94 93z" />
    <glyph glyph-name="iotatonos" unicode="&#x3af;" horiz-adv-x="344" 
d="M154 1218q-32 -47 -60 -47t-55 16t-27 46.5t14 60.5l82 174q27 60 74 60q25 0 63 -22t38 -56.5t-23 -69.5zM239 1047q95 -2 93 -130l-14 -832q-2 -135 -96 -135q-107 1 -104 127l17 839q3 133 104 131z" />
    <glyph glyph-name="upsilondieresistonos" unicode="&#x3b0;" horiz-adv-x="853" 
d="M598 1420q123 0 123 -93q0 -91 -125 -91q-116 0 -116 88q0 96 118 96zM69 1420q123 0 123 -93q0 -91 -125 -91q-116 0 -116 88q0 96 118 96zM350 1246q-21 -47 -39 -47t-35 16t-17 46.5t9 60.5l52 174q17 60 48 60q16 0 40 -22t24 -56.5t-15 -69.5zM773 503
q-12 -562 -352 -567q-372 -6 -370 444l4 555q2 120 96 129q104 10 103 -111l-3 -576q-2 -237 155 -237q164 0 169 378l10 411q2 129 98 129q102 0 100 -129z" />
    <glyph glyph-name="alpha" unicode="&#x3b1;" horiz-adv-x="876" 
d="M393 -56q-355 0 -360 480q-3 304 202 484q156 209 385 95q81 115 154 58q77 -60 -26 -190q-44 -55 -38 -326q8 -330 74 -422q63 -84 10 -149q-70 -76 -180 87q-136 -117 -221 -117zM467 145q38 17 89 89q-25 430 -3 589q-62 61 -130 35q-47 -18 -75 -51
q-114 -129 -120 -364q2 -306 135 -320q43 -4 104 22z" />
    <glyph glyph-name="beta" unicode="&#x3b2;" horiz-adv-x="984" 
d="M145 -402q-77 6 -72 120l60 1299q15 320 126 399q157 147 328 30q142 -75 157 -291q10 -140 -81 -222q-9 -8 -18 -17q152 -89 204 -249q93 -285 -48 -525q-91 -155 -300 -198q-106 -25 -215 51l-12 -292q-5 -114 -129 -105zM484 792q-9 0 -16 3q-27 9 -34 57
q-10 63 88 150q78 68 75 156q-3 76 -63 117q-68 46 -129 18q-71 -32 -77 -267l-32 -786q86 -121 157 -119q100 3 151 84q104 131 71 315q-41 249 -136 258q-35 3 -55 14z" />
    <glyph glyph-name="gamma" unicode="&#x3b3;" horiz-adv-x="835" 
d="M100 1049q92 33 140 -86l211 -616l141 616q48 119 140 86q90 -33 42 -152l-220 -794q-6 -25 -13 -45l-2 -299q-1 -91 -92 -90q-94 2 -94 93l4 304q-7 17 -12 37l-287 794q-48 119 42 152z" />
    <glyph glyph-name="delta" unicode="&#x3b4;" horiz-adv-x="864" 
d="M438 831q-84 -3 -126 -91q-64 -136 -64 -285q0 -158 47 -235q45 -77 103 -77t119 81q55 72 55 269q0 343 -134 338zM145 1419q-19 96 90 96h457q102 0 99 -94q-2 -89 -104 -89h-265q195 -308 274 -504q63 -134 62 -355q-1 -215 -154 -398q-84 -134 -217 -134
q-107 0 -223 158q-112 133 -112 374q0 213 123 385.5t246 175.5h9q-77 144 -153 226q-99 81 -111 111q-15 19 -21 48z" />
    <glyph glyph-name="epsilon" unicode="&#x3b5;" horiz-adv-x="871" 
d="M415 616q72 -34 65 -112q-4 -62 -78 -70q-118 -10 -123 -148q-4 -137 112 -152q99 -17 161 44q75 62 120 60q81 -4 86 -96q2 -48 -80 -106q-182 -135 -333 -72q-227 62 -242 252q-12 152 46 236q48 70 98 100q-80 86 -88 108q-59 141 28 254q97 126 229 134q99 7 218 -58
q91 -51 85 -137q-5 -61 -65 -68q-30 -4 -144 67q-41 39 -105 19q-88 -25 -88 -105q0 -109 98 -150z" />
    <glyph glyph-name="zeta" unicode="&#x3b6;" horiz-adv-x="881" 
d="M72 1438q5 99 118 99l524 -1q107 0 110 -93q3 -100 -104 -100h-47q-237 -277 -346 -641q-169 -387 16 -497q79 -66 238 -136q119 -34 144 -221q16 -119 -114 -197q-86 -70 -213 -62q-47 3 -62 78q-10 53 29 87q38 33 109 33q56 0 64 57q9 75 -37 87q-248 53 -336 159
q-201 242 -3 684q101 225 321 569h-303q-113 0 -108 95z" />
    <glyph glyph-name="eta" unicode="&#x3b7;" horiz-adv-x="872" 
d="M202 1094q96 0 94 -99q0 -29 -1 -59q70 99 179 99q311 -1 310 -456l-2 -768q0 -121 -96 -129q-106 -10 -106 111l6 742q2 277 -103 288q-89 10 -191 -149l-10 -605q-3 -109 -110 -107q-90 2 -87 109l23 930q2 93 94 93z" />
    <glyph glyph-name="theta" unicode="&#x3b8;" horiz-adv-x="965" 
d="M479 1551q420 0 420 -747q0 -846 -437 -846q-420 0 -420 810q0 783 437 783zM239 669q16 -514 220 -514q212 0 235 522zM239 861l458 8q-14 492 -218 493q-221 0 -240 -501z" />
    <glyph glyph-name="iota" unicode="&#x3b9;" horiz-adv-x="344" 
d="M239 1047q95 -2 93 -130l-14 -832q-2 -135 -96 -135q-107 1 -104 127l17 839q3 133 104 131z" />
    <glyph glyph-name="kappa" unicode="&#x3ba;" horiz-adv-x="914" 
d="M169 -38q-92 4 -88 132l30 862q4 121 112 112q84 -8 81 -129l-7 -325l262 379q77 85 141 20q70 -74 -24 -158l-183 -212l313 -522q58 -83 -21 -140q-81 -58 -139 26l-246 504l-115 -153l-6 -273q-4 -128 -110 -123z" />
    <glyph glyph-name="lambda" unicode="&#x3bb;" horiz-adv-x="835" 
d="M410 1363q62 1 62 -104v-277l307 -838q47 -113 -42 -153q-90 -40 -136 74l-190 671l-183 -683q-39 -105 -132 -69q-81 32 -42 137l285 854l3 282q1 105 68 106z" />
    <glyph glyph-name="mu" unicode="&#x3bc;" horiz-adv-x="860" 
d="M691 -77q-119 0 -125 90q-46 -31 -109 -31q-111 1 -181 65l-7 -358q-2 -93 -71 -93q-127 0 -126 99l14 683l2 79l4 472q1 134 96 133q92 -1 92 -115l-1 -437q0 -29 1 -55q2 -14 2 -32q19 -206 138 -210q112 -4 145 127l-1 612q0 108 105 106q92 -2 92 -108l1 -934
q0 -93 -71 -93z" />
    <glyph glyph-name="nu" unicode="&#x3bd;" horiz-adv-x="580" 
d="M96 1046q106 47 145 -85l172 -591l184 591q41 129 145 85q82 -34 37 -162l-283 -820q-38 -109 -76 -109q-40 0 -77 109l-284 820q-44 126 37 162z" />
    <glyph glyph-name="xi" unicode="&#x3be;" horiz-adv-x="884" 
d="M491 821q-87 -12 -152 -149q-178 -262 -21 -456q34 -64 298 -147q118 -28 144 -221q16 -119 -114 -197q-116 -70 -248 -62q-47 3 -62 78q-10 53 29 87q38 33 109 33q64 0 76 57q15 76 -49 87q-252 56 -340 177q-210 292 57 675q43 62 118 118q-139 64 -181 152
q-101 211 117 432q75 95 300 108q107 4 117 -87q11 -102 -96 -108q-162 -12 -214 -66q-65 -68 -54 -186q7 -77 79 -84q31 -3 108 -27q106 -22 101 -123q-4 -77 -122 -91z" />
    <glyph glyph-name="omicron" unicode="&#x3bf;" horiz-adv-x="807" 
d="M399 845q-83 -3 -125 -91q-64 -136 -64 -299q0 -157 46 -235q48 -80 109 -80q70 0 117 80q94 157 95 281q1 350 -178 344zM388 1032q381 -3 378 -546q-1 -253 -117 -390q-101 -147 -300 -145q-106 1 -223 148q-112 142 -112 374q0 209 134 404q107 156 240 155z" />
    <glyph glyph-name="pi" unicode="&#x3c0;" horiz-adv-x="1012" 
d="M48 801q-47 70 10 134q93 104 203 104h584q138 0 136 -91.5t-140 -91.5h-89l-45 -583q-7 -103 14 -122q60 -40 70 -78q18 -70 -32 -96q-48 -32 -96 8q-57 47 -75 126q-9 36 2 186l35 559h-188l-57 -813q-6 -96 -64 -84q-69 12 -59 108l60 789q-38 -2 -64 -14l-88 -63
q-90 -18 -117 22z" />
    <glyph glyph-name="rho" unicode="&#x3c1;" horiz-adv-x="854" 
d="M449 1035q325 -3 325 -562q-1 -212 -154 -398q-83 -134 -217 -134q-82 0 -159 94l-25 -340q-9 -117 -122 -108q-79 7 -72 124l43 724q0 8 1 15v23q0 211 134 389q109 175 246 173zM454 831q-84 -3 -125 -91q-64 -136 -64 -285q0 -158 46 -235q45 -77 103 -77t119 81
q55 72 55 269q0 343 -134 338z" />
    <glyph glyph-name="sigma1" unicode="&#x3c2;" horiz-adv-x="880" 
d="M464 868q-78 -9 -146 -172q-169 -267 0 -480q34 -64 284 -147q118 -28 144 -221q16 -119 -114 -197q-107 -70 -234 -62q-47 3 -62 78q-10 53 29 87q38 33 109 33q56 0 64 57q13 76 -37 87q-244 53 -345 177q-188 231 -2 642q98 213 242 282q98 54 294 -46
q132 -59 82 -159q-42 -84 -162 -1q-72 50 -146 42z" />
    <glyph glyph-name="sigma" unicode="&#x3c3;" horiz-adv-x="905" 
d="M453 1034l345 -2q109 0 107 -93q-2 -90 -111 -90l-345 -1q-96 0 -94 90q1 97 98 96zM438 833q-84 -3 -126 -91q-64 -136 -64 -299q0 -157 47 -235q47 -80 108 -80q70 0 118 80q51 85 51 273q1 356 -134 352zM433 1037q326 -3 325 -576q-1 -244 -108 -371
q-105 -153 -262 -151q-114 1 -224 148q-112 133 -112 374q0 228 134 404q107 174 247 172z" />
    <glyph glyph-name="tau" unicode="&#x3c4;" horiz-adv-x="887" 
d="M44 950q-2 108 96 108l562 -1q122 0 126 -95q6 -106 -116 -106h-186l13 -782q2 -139 -91 -138q-98 0 -102 139l-18 780h-182q-98 0 -102 95z" />
    <glyph glyph-name="upsilon" unicode="&#x3c5;" horiz-adv-x="853" 
d="M773 503q-12 -562 -352 -567q-372 -6 -370 444l4 555q2 120 96 129q104 10 103 -111l-3 -576q-2 -237 155 -237q164 0 169 378l10 411q2 129 98 129q102 0 100 -129z" />
    <glyph glyph-name="phi" unicode="&#x3c6;" horiz-adv-x="1091" 
d="M762 675q-33 174 -81 163t-52 -193l-10 -483q115 43 148 156q45 142 -5 357zM925 798q117 -333 6 -592q-105 -246 -315 -251l-5 -225q-3 -128 -104 -126q-94 2 -92 130q2 115 3 230q-295 71 -333 363q-42 322 90 544q77 130 152 60q34 -47 -2 -159q-118 -242 -42 -442
q43 -122 140 -160l13 483q10 254 98 327q114 106 218 24q123 -66 173 -206z" />
    <glyph glyph-name="chi" unicode="&#x3c7;" horiz-adv-x="975" 
d="M91 1027q89 72 166 -43l212 -315l209 315q77 118 166 43q65 -56 -2 -155l-250 -365l223 -360q76 -124 20 -174q-85 -75 -166 44l-201 293l-202 -293q-82 -119 -166 -44q-60 54 20 174l240 357l-267 368q-71 98 -2 155z" />
    <glyph glyph-name="psi" unicode="&#x3c8;" horiz-adv-x="1010" 
d="M843 1053q102 4 102 -120q0 -568 -76 -702q-134 -248 -282 -289l-5 -225q-3 -128 -104 -126q-94 2 -92 130q2 115 3 230q-170 52 -287 296q-85 177 -42 698q9 107 108 104q97 -3 92 -110q-35 -483 13 -590q48 -145 121 -192l18 822q3 116 102 112q88 -4 86 -120l-11 -822
q86 37 119 150q43 147 37 626q-1 124 98 128z" />
    <glyph glyph-name="omega" unicode="&#x3c9;" horiz-adv-x="1309" 
d="M1009 1057q116 7 118 -112q9 -527 -102 -784q-85 -211 75 -206q125 4 40 189q-85 -185 -445 -189q-463 -5 -559 206q-111 257 -102 784q2 119 118 112q86 -4 72 -140q-20 -360 90 -584q104 -181 353 -176q155 4 259 96q117 105 129 485q-2 62 0 129q1 84 84 82h1h1
q83 2 84 -82v-129q-4 -380 -45 -485q-36 -92 -89 -96q-87 -5 -123 176q-11 224 -31 584q5 136 72 140z" />
    <glyph glyph-name="iotadieresis" unicode="&#x3ca;" horiz-adv-x="344" 
d="M387 1355q123 0 123 -93q0 -91 -125 -91q-116 0 -116 88q0 96 118 96zM-26 1355q123 0 123 -93q0 -91 -125 -91q-116 0 -116 88q0 96 118 96zM239 1047q95 -2 93 -130l-14 -832q-2 -135 -96 -135q-107 1 -104 127l17 839q3 133 104 131z" />
    <glyph glyph-name="upsilondieresis" unicode="&#x3cb;" horiz-adv-x="853" 
d="M523 1369q123 0 123 -93q0 -91 -125 -91q-116 0 -116 88q0 96 118 96zM110 1369q123 0 123 -93q0 -91 -125 -91q-116 0 -116 88q0 96 118 96zM773 503q-12 -562 -352 -567q-372 -6 -370 444l4 555q2 120 96 129q104 10 103 -111l-3 -576q-2 -237 155 -237q164 0 169 378
l10 411q2 129 98 129q102 0 100 -129z" />
    <glyph glyph-name="omicrontonos" unicode="&#x3cc;" horiz-adv-x="807" 
d="M284 1218q-32 -47 -60 -47t-55 16t-27 46.5t14 60.5l82 174q27 60 74 60q25 0 63 -22t38 -56.5t-23 -69.5zM399 845q-83 -3 -125 -91q-64 -136 -64 -299q0 -157 46 -235q48 -80 109 -80q70 0 117 80q94 157 95 281q1 350 -178 344zM388 1032q381 -3 378 -546
q-1 -253 -117 -390q-101 -147 -300 -145q-106 1 -223 148q-112 142 -112 374q0 209 134 404q107 156 240 155z" />
    <glyph glyph-name="upsilontonos" unicode="&#x3cd;" horiz-adv-x="853" 
d="M324 1237q-32 -47 -60 -47t-55 16t-27 46.5t14 60.5l82 174q27 60 74 60q25 0 63 -22t38 -56.5t-23 -69.5zM773 503q-12 -562 -352 -567q-372 -6 -370 444l4 555q2 120 96 129q104 10 103 -111l-3 -576q-2 -237 155 -237q164 0 169 378l10 411q2 129 98 129
q102 0 100 -129z" />
    <glyph glyph-name="omegatonos" unicode="&#x3ce;" horiz-adv-x="1309" 
d="M558 1227q-32 -47 -60 -47t-55 16t-27 46.5t14 60.5l82 174q27 60 74 60q25 0 63 -22t38 -56.5t-23 -69.5zM1009 1057q116 7 118 -112q9 -527 -102 -784q-85 -211 75 -206q125 4 40 189q-85 -185 -445 -189q-463 -5 -559 206q-111 257 -102 784q2 119 118 112
q86 -4 72 -140q-20 -360 90 -584q104 -181 353 -176q155 4 259 96q117 105 129 485q-2 62 0 129q1 84 84 82h1h1q83 2 84 -82v-129q-4 -380 -45 -485q-36 -92 -89 -96q-87 -5 -123 176q-11 224 -31 584q5 136 72 140z" />
    <glyph glyph-name="afii10023" unicode="&#x401;" horiz-adv-x="1036" 
d="M699 1824q123 0 123 -93q0 -91 -125 -91q-116 0 -116 88q0 96 118 96zM286 1824q123 0 123 -93q0 -91 -125 -91q-116 0 -116 88q0 96 118 96zM293 1501l490 4q141 1 144 -115q3 -91 -138 -92q-250 -2 -461 -4l-8 -606l354 3q136 1 141 -114q3 -92 -137 -93l-361 -3
l-12 -314l416 3q141 1 144 -114q3 -92 -138 -93l-496 -4q-12 2 -22 2h-16q-90 2 -87 102l33 1353q2 87 94 86q18 0 37 -3q6 -1 23 2z" />
    <glyph glyph-name="afii10051" unicode="&#x402;" horiz-adv-x="1374" 
d="M682 996q182 73 302 28q210 -60 295 -367q69 -251 -62 -579q-98 -245 -243 -336q-82 -61 -118 26q-30 75 40 134q82 71 107 134q143 275 69 612q-33 192 -205 192q-81 0 -190 -69zM162 1500h802q83 0 84 -98q2 -92 -84 -92l-270 -1l-19 -1259q-2 -102 -109 -100
q-89 2 -88 102l25 1256q-156 -1 -350 -1q-126 0 -126 105q0 88 135 88z" />
    <glyph glyph-name="afii10052" unicode="&#x403;" horiz-adv-x="1046" 
d="M750 2084q75 -59 14 -126l-237 -260q-87 -96 -144 -40q-54 53 28 155l208 260q57 71 131 11zM278 -3q-88 2 -93 93l-65 1305q-4 107 88 109h14h6l613 -13q96 -2 96 -110q0 -110 -99 -108l-519 16l58 -1193q4 -99 -99 -99z" />
    <glyph glyph-name="afii10053" unicode="&#x404;" horiz-adv-x="985" 
d="M432 1242q-61 -62 -107 -184q-37 -96 -51 -240l334 21q73 4 79 -89q6 -94 -71 -99l-347 -26q9 -179 64 -303q49 -113 130 -118q116 -8 178 53q129 89 185 78q97 -18 82 -150q-8 -74 -201 -151q-117 -64 -235 -58q-153 7 -288 194.5t-135 489.5q0 361 134 547
q161 270 300 304q133 32 273 -50q127 -64 131 -120q4 -71 -35 -108q-71 -64 -146 -14q-59 46 -116 66q-85 30 -158 -43z" />
    <glyph glyph-name="afii10054" unicode="&#x405;" horiz-adv-x="1132" 
d="M239 1238q63 106 189 196q98 70 199 64q74 -5 166 -51q146 -72 149 -126q3 -51 -54 -79q-45 -22 -125 20q-102 53 -159 48q-106 -10 -164 -80q-61 -75 -66 -164q-14 -285 93 -309q51 -11 193 -17q147 -7 232 -95q120 -125 116 -186q-15 -253 -239 -406q-139 -95 -261 -96
q-103 -1 -205 49q-96 47 -136 82q-80 71 -72 131q9 66 60 81q61 17 142 -59q66 -62 119 -82q83 -30 152 -11q115 32 167 100q78 105 63 181q-25 128 -272 122q-274 -6 -336 274q-53 241 49 413z" />
    <glyph glyph-name="afii10055" unicode="&#x406;" horiz-adv-x="985" 
d="M192 1494h616q121 0 123 -108q2 -99 -129 -99h-234l-18 -1122h244q121 0 123 -108q2 -99 -129 -99h-619q-126 0 -126 113q0 95 135 94h176l29 1122h-200q-126 0 -126 112q0 95 135 95z" />
    <glyph glyph-name="afii10056" unicode="&#x407;" horiz-adv-x="985" 
d="M608 1818q123 0 123 -93q0 -91 -125 -91q-116 0 -116 88q0 96 118 96zM195 1818q123 0 123 -93q0 -91 -125 -91q-116 0 -116 88q0 96 118 96zM192 1494h616q121 0 123 -108q2 -99 -129 -99h-234l-18 -1122h244q121 0 123 -108q2 -99 -129 -99h-619q-126 0 -126 113
q0 95 135 94h176l29 1122h-200q-126 0 -126 112q0 95 135 95z" />
    <glyph glyph-name="afii10057" unicode="&#x408;" horiz-adv-x="1340" 
d="M428 1498h729q121 0 123 -103q2 -95 -129 -94h-234v-998q0 -379 -372 -361q-511 24 -480 458q6 88 104 89q97 -1 97 -94q0 -255 276 -255q171 0 171 157v1004h-294q-126 0 -126 107q0 90 135 90z" />
    <glyph glyph-name="afii10058" unicode="&#x409;" horiz-adv-x="1835" 
d="M309 1422q1 99 123 99h473q145 0 141 -117q0 -4 -1 -9q1 -12 1 -24q-4 -213 -7 -425q425 10 547 -67q206 -129 195 -417q-12 -294 -228 -417q-128 -73 -606 -57q-7 0 -14 1q-5 -1 -10 -1q-42 -1 -69 23q-21 15 -26 38q-17 43 -16 116l29 1158h-347l-12 -846
q-10 -458 -297 -495q-166 -21 -171 99q-4 98 111 96q148 -2 156 291l26 912q0 15 2 29v13zM1035 745l-10 -563q320 -3 402 31q149 63 159 252q12 210 -186 273q-74 23 -365 7z" />
    <glyph glyph-name="afii10059" unicode="&#x40a;" horiz-adv-x="1718" 
d="M821 1503q104 -2 102 -132q-4 -213 -7 -425q391 5 515 -74q222 -139 219 -410q-3 -289 -228 -417q-128 -73 -606 -57h-9h-7q-29 -1 -50 10q-56 19 -54 71v8q-9 37 -7 88q7 290 14 579h-453l-6 -573q-3 -180 -102 -183q-115 -3 -111 177l30 1209q3 130 102 129
q95 -2 94 -132l-5 -429h456l11 432q3 130 102 129zM912 746l-10 -564q313 -3 394 31q149 63 159 252q12 210 -186 273q-73 23 -357 8z" />
    <glyph glyph-name="afii10060" unicode="&#x40b;" horiz-adv-x="1484" 
d="M803 995q67 79 203 85q188 9 304 -240q73 -157 63 -387q-15 -324 -15 -327q-4 -172 -111 -165q-92 6 -84 171q36 465 -4 603q-19 100 -80 126q-72 32 -138 0q-111 -51 -143 -92zM162 1500h928q89 0 91 -98q2 -92 -91 -92l-269 -1l-30 -1259q-2 -102 -109 -100
q-90 2 -88 102l31 1256q-236 -1 -472 -1q-126 0 -126 105q0 88 135 88z" />
    <glyph glyph-name="afii10061" unicode="&#x40c;" horiz-adv-x="1044" 
d="M667 2105q75 -59 14 -126l-237 -260q-87 -96 -144 -40q-54 53 28 155l208 260q57 71 131 11zM209 -15q-100 0 -100 105l-1 1356q0 90 101 90q103 0 103 -90q-1 -245 -3 -489q202 5 239 186q73 371 206 357q176 -14 150 -99q-17 -57 -78 -54q-89 5 -192 -333
q-28 -111 -126 -169q206 -170 414 -677q52 -128 -51 -168q-80 -31 -129 66q-243 695 -433 691l-4 -667q-1 -105 -96 -105z" />
    <glyph glyph-name="afii10062" unicode="&#x40e;" horiz-adv-x="1018" 
d="M394 1788q147 -5 197 145q45 137 116 112q76 -27 36 -144q-90 -260 -352 -258q-244 2 -335 233q-60 151 29 168q90 17 111 -93q29 -157 198 -163zM65 1501q91 54 150 -45l314 -773l218 734q61 139 162 93q89 -41 27 -180l-356 -966q-115 -400 -386 -402q-93 0 -99 81
q-9 117 84 117q203 -1 278 267l12 42q-9 17 -18 39l-407 846q-60 99 21 147z" />
    <glyph glyph-name="afii10145" unicode="&#x40f;" horiz-adv-x="1144" 
d="M180 1536q105 -3 105 -108v-1236l524 -1q0 621 -1 1243q0 105 108 102q105 -3 105 -108v-1299q5 -118 -67 -137q-29 -13 -74 -13h-295v-153q-12 -106 -58 -105q-67 2 -67 104q0 77 -1 154h-252q-36 0 -59 14q-75 22 -75 139l-1 1302q0 105 108 102z" />
    <glyph glyph-name="afii10017" unicode="&#x410;" 
d="M657 1363l368 -1241q39 -133 -50 -166q-85 -32 -144 110l-89 214l-380 -10l-65 -204q-44 -139 -144 -110q-91 27 -50 166l368 1241q49 166 93 166t93 -166zM559 1100l-162 -645l310 8z" />
    <glyph glyph-name="afii10018" unicode="&#x411;" horiz-adv-x="1006" 
d="M203 -16q-91 0 -90 93l4 1330q0 107 91 109q12 0 22 -1q252 3 515 6q114 1 117 -96q3 -98 -111 -99q-240 -3 -440 -7l-1 -370q4 1 36 1q304 6 423 -140q216 -266 27 -642q-68 -142 -309 -168q-167 -21 -242 -11q-19 -5 -42 -5zM308 199q59 -3 97 -4q189 0 228 90
q91 135 22 331q-46 177 -345 135z" />
    <glyph glyph-name="afii10019" unicode="&#x412;" horiz-adv-x="1053" 
d="M346 1331l-10 -604q180 -34 273 182q62 145 23 267q-46 145 -196 152q-45 2 -90 3zM251 1528q23 0 41 -5q50 10 173 -8q243 -36 340 -301q106 -289 -109 -532q-20 -23 -38 -44q54 -20 82 -41q239 -177 160 -387q-58 -155 -289 -233q-126 -42 -381 -42l-18 -1
q-89 -5 -87 109l33 1392q3 93 93 93zM328 530l-5 -406q67 -8 129 3q64 12 154 59q106 55 117 153q4 37 -79 111q-69 62 -161 75q-97 13 -155 5z" />
    <glyph glyph-name="afii10020" unicode="&#x413;" horiz-adv-x="1046" 
d="M278 -3q-88 2 -93 93l-65 1305q-4 107 88 109h14h6l613 -13q96 -2 96 -110q0 -110 -99 -108l-519 16l58 -1193q4 -99 -99 -99z" />
    <glyph glyph-name="afii10021" unicode="&#x414;" horiz-adv-x="1231" 
d="M950 1528q102 2 102 -94q-1 -622 -3 -1243q97 -9 99 -99q0 -13 -2 -24q3 -20 3 -45v-248q-9 -99 -92 -97q-100 2 -101 88l-2 234h-696v-225q-9 -99 -92 -97q-100 2 -101 88l-2 279v14q-3 14 -3 30q2 104 105 104h16q221 531 171 1196q-4 57 11 89q6 22 28 31q13 8 30 9
q14 1 25 -3q222 4 468 9q16 4 36 4zM849 192l2 1128l-357 -6q7 -668 -127 -1121z" />
    <glyph glyph-name="afii10022" unicode="&#x415;" horiz-adv-x="1036" 
d="M293 1501l490 4q141 1 144 -115q3 -91 -138 -92q-250 -2 -461 -4l-8 -606l354 3q136 1 141 -114q3 -92 -137 -93l-361 -3l-12 -314l416 3q141 1 144 -114q3 -92 -138 -93l-496 -4q-12 2 -22 2h-16q-90 2 -87 102l33 1353q2 87 94 86q18 0 37 -3q6 -1 23 2z" />
    <glyph glyph-name="afii10024" unicode="&#x416;" horiz-adv-x="1384" 
d="M677 -15q-100 0 -100 105v663q-137 -42 -361 -687q-49 -97 -129 -66q-103 40 -51 168q209 510 390 679q-74 58 -103 167q-104 338 -191 333q-61 -3 -78 54q-26 85 150 99q132 14 206 -357q34 -170 167 -185v488q0 90 100 90q103 0 103 -90l-2 -489q144 8 180 186
q74 371 206 357q176 -14 150 -99q-17 -57 -78 -54q-87 5 -192 -333q-28 -109 -102 -167q181 -169 390 -679q52 -128 -51 -168q-80 -31 -129 66q-234 677 -375 690l-4 -666q-1 -105 -96 -105z" />
    <glyph glyph-name="afii10025" unicode="&#x417;" horiz-adv-x="986" 
d="M384 786q0 68 39 84q94 40 156 68q107 42 93 202q-15 168 -168 180q-91 8 -131 -35q-77 -84 -143 -76q-70 8 -74 78q-4 65 117 144q94 91 216 79q187 -17 290 -153q185 -242 49 -444q-52 -75 -172 -121q52 -10 117 -60q144 -111 107 -412q-37 -296 -331 -353
q-199 -51 -354 57q-145 83 -150 150q-10 114 84 114q57 0 173 -78q67 -66 216 -42t170 227q25 249 -200 299q-104 14 -104 92z" />
    <glyph glyph-name="afii10026" unicode="&#x418;" horiz-adv-x="1172" 
d="M836 1198l-583 -1142q-23 -30 -80 -29q-89 2 -88 87l22 1355q1 100 92 102q98 2 97 -100l-14 -1087l576 1122q24 32 74 34q108 4 106 -100l-25 -1351q-2 -93 -106 -93q-90 2 -90 87z" />
    <glyph glyph-name="afii10027" unicode="&#x419;" horiz-adv-x="1172" 
d="M464 1847q147 -5 197 145q45 137 116 112q76 -27 36 -144q-90 -260 -352 -258q-244 2 -335 233q-60 151 29 168q90 17 111 -93q29 -157 198 -163zM836 1198l-583 -1142q-23 -30 -80 -29q-89 2 -88 87l22 1355q1 100 92 102q98 2 97 -100l-14 -1087l576 1122q24 32 74 34
q108 4 106 -100l-25 -1351q-2 -93 -106 -93q-90 2 -90 87z" />
    <glyph glyph-name="afii10028" unicode="&#x41a;" horiz-adv-x="1044" 
d="M209 -15q-100 0 -100 105l-1 1356q0 90 101 90q103 0 103 -90q-1 -245 -3 -489q202 5 239 186q73 371 206 357q176 -14 150 -99q-17 -57 -78 -54q-89 5 -192 -333q-28 -111 -126 -169q206 -170 414 -677q52 -128 -51 -168q-80 -31 -129 66q-243 695 -433 691l-4 -667
q-1 -105 -96 -105z" />
    <glyph glyph-name="afii10029" unicode="&#x41b;" horiz-adv-x="1219" 
d="M986 1516q105 -3 105 -108l4 -1285q0 -143 -102 -141q-109 1 -110 144l-3 1177h-404l4 -833q1 -480 -325 -488q-124 -3 -136 78q-18 116 117 120q134 4 132 293l-5 941q-1 105 108 102q12 0 22 -2l550 1h14q14 1 29 1z" />
    <glyph glyph-name="afii10030" unicode="&#x41c;" horiz-adv-x="1358" 
d="M639 -19q-59 6 -83 163l-137 856l-141 -935q-34 -157 -140 -97q-94 53 -58 209l254 1178q21 135 80 149q60 14 77 -94l156 -1027l191 977q33 166 97 163q59 -2 82 -170l248 -1250q30 -143 -78 -156q-115 -14 -149 160l-114 906l-188 -857q-39 -182 -97 -175z" />
    <glyph glyph-name="afii10031" unicode="&#x41d;" horiz-adv-x="1207" 
d="M229 1513q98 0 97 -93l-9 -580h553l12 584q2 86 92 88q104 0 102 -93l-27 -1364q-1 -103 -109 -101q-90 2 -88 103l14 574h-559l-8 -575q-2 -103 -110 -102q-90 2 -87 103l33 1368q2 86 94 88z" />
    <glyph glyph-name="afii10032" unicode="&#x41e;" horiz-adv-x="1231" 
d="M687 1313q-143 15 -248 -143q-155 -234 -155 -595q0 -182 71 -297q83 -135 224 -135q137 0 215 147q142 265 144 588q6 408 -251 435zM679 1512q461 -7 460 -633q-1 -404 -228 -694q-131 -248 -332 -248q-208 0 -361 223q-144 159 -144 413q0 397 242 701
q134 242 363 238z" />
    <glyph glyph-name="afii10033" unicode="&#x41f;" horiz-adv-x="1530" 
d="M68 1464q-1 105 116 105h1112q134 0 135 -101q2 -106 -132 -106h-67q1 -646 3 -1293q0 -105 -102 -108q-98 -3 -99 102l-6 1299h-507q1 -646 3 -1293q0 -105 -102 -108q-98 -3 -99 102l-9 1299h-129q-117 0 -117 102z" />
    <glyph glyph-name="afii10034" unicode="&#x420;" horiz-adv-x="967" 
d="M277 1518q23 0 41 -4q117 14 185 4q264 -35 361 -286q98 -255 -84 -484q-107 -133 -388 -156q-20 -2 -36 1l-8 -535q-2 -104 -110 -102q-90 2 -88 104l34 1370q2 88 93 88zM372 1317l-8 -535q227 -37 283 115q83 149 15 280q-56 152 -200 150q-38 -1 -90 -10z" />
    <glyph glyph-name="afii10035" unicode="&#x421;" horiz-adv-x="1019" 
d="M466 1244q-61 -63 -108 -188q-52 -141 -52 -383q0 -223 61 -369q48 -115 130 -121q115 -9 178 55q129 91 185 79q97 -18 82 -153q-8 -76 -201 -155q-117 -66 -235 -59q-155 8 -273 198q-146 192 -145 501q0 369 134 560q156 276 295 311q133 33 273 -52q127 -65 131 -122
q4 -73 -35 -111q-71 -66 -146 -14q-59 47 -116 68q-85 30 -158 -45z" />
    <glyph glyph-name="afii10036" unicode="&#x422;" horiz-adv-x="1175" 
d="M210 1500h843q130 0 132 -98q2 -92 -132 -92l-311 -1l-19 -1259q-2 -102 -109 -100q-89 2 -88 102l25 1256q-156 -1 -350 -1q-126 0 -126 105q0 88 135 88z" />
    <glyph glyph-name="afii10037" unicode="&#x423;" horiz-adv-x="1018" 
d="M65 1501q91 54 150 -45l314 -773l218 734q61 139 162 93q89 -41 27 -180l-356 -966q-115 -400 -386 -402q-93 0 -99 81q-9 117 84 117q203 -1 278 267l12 42q-9 17 -18 39l-407 846q-60 99 21 147z" />
    <glyph glyph-name="afii10038" unicode="&#x424;" horiz-adv-x="1069" 
d="M262 64q0 111 69 111h104l2 112q-377 41 -377 427q0 447 398 488q1 46 2 91h-121q-77 0 -77 84q0 111 69 111h441q64 0 66 -113q1 -82 -64 -82h-126l-1 -90q371 -34 371 -438q0 -450 -386 -481l-2 -109h142q64 0 66 -113q1 -82 -64 -82h-435q-77 0 -77 84zM644 1022
q-4 -282 -10 -563q201 24 201 294q0 239 -191 269zM441 463l13 557q-208 -37 -208 -312q0 -210 195 -245z" />
    <glyph glyph-name="afii10039" unicode="&#x425;" horiz-adv-x="1155" 
d="M157 1498q81 47 173 -90l235 -481l235 481q92 137 173 90q105 -61 33 -154l-357 -589l393 -642q59 -77 -12 -131q-90 -68 -150 8l-315 596l-315 -596q-60 -77 -150 -8q-71 54 -12 131l393 642l-357 589q-72 93 33 154z" />
    <glyph glyph-name="afii10040" unicode="&#x426;" horiz-adv-x="1261" 
d="M180 1536q105 -3 105 -108v-1236q261 0 524 -1l-1 1243q0 105 108 102q105 -3 105 -108v-1237q137 -4 155 -71q5 -19 6 -35q5 -16 5 -37v-222q-18 -106 -91 -105q-104 2 -104 104q0 77 -1 154h-770q-30 0 -51 10q-97 10 -97 143l-1 1302q0 105 108 102z" />
    <glyph glyph-name="afii10041" unicode="&#x427;" horiz-adv-x="993" 
d="M748 -30q-97 0 -96 99q3 258 6 517q-82 -120 -220 -120q-367 2 -365 457l2 491q0 120 96 129q106 9 106 -111v-437q1 -291 163 -297q177 -6 223 250q5 244 10 489q1 109 109 108q90 -2 88 -110l-28 -1372q-2 -93 -94 -93z" />
    <glyph glyph-name="afii10042" unicode="&#x428;" horiz-adv-x="1452" 
d="M180 1536q105 -3 105 -108v-1236h315l-1 1242q0 105 108 102q105 -3 105 -108v-1237h312q0 621 -1 1243q0 105 108 102q105 -3 105 -108v-1299q2 -43 -7 -73q-9 -77 -121 -77h-1001q-36 0 -59 14q-75 22 -75 139l-1 1302q0 105 108 102z" />
    <glyph glyph-name="afii10043" unicode="&#x429;" horiz-adv-x="1580" 
d="M180 1536q105 -3 105 -108v-1236h315q0 621 -1 1242q0 105 108 102q105 -3 105 -108v-1236q155 0 312 -1l-1 1243q0 105 108 102q105 -3 105 -108v-1237h29q128 0 138 -99q1 -12 1 -23q1 -10 1 -21v-222q-18 -106 -91 -105q-104 2 -104 104q0 77 -1 154h-1102
q-36 0 -59 14q-75 22 -75 139l-1 1302q0 105 108 102z" />
    <glyph glyph-name="afii10044" unicode="&#x42a;" horiz-adv-x="1256" 
d="M600 199q58 -3 96 -4q190 0 229 90q90 135 21 331q-46 177 -345 135zM495 -16q-91 0 -90 93l4 1248l-252 -6q-125 -2 -129 91q-5 104 82 105l373 6q48 1 76 -16q45 -23 44 -96l-1 -460q3 1 35 1q304 6 423 -140q216 -266 27 -642q-68 -142 -308 -168q-167 -21 -242 -11
q-19 -5 -42 -5z" />
    <glyph glyph-name="afii10045" unicode="&#x42b;" horiz-adv-x="1408" 
d="M1235 1494h616q121 0 123 -108q2 -99 -129 -99h-234l-18 -1122h244q121 0 123 -108q2 -99 -129 -99h-619q-126 0 -126 113q0 95 135 94h176l29 1122h-200q-126 0 -126 112q0 95 135 95zM203 -16q-91 0 -90 93l4 1330q0 107 91 109q105 2 104 -107l-2 -460q4 1 36 1
q304 6 423 -140q216 -266 27 -642q-68 -142 -309 -168q-167 -21 -242 -11q-19 -5 -42 -5zM308 199q59 -3 97 -4q189 0 228 90q91 135 22 331q-46 177 -345 135z" />
    <glyph glyph-name="afii10046" unicode="&#x42c;" horiz-adv-x="1006" 
d="M203 -16q-91 0 -90 93l4 1330q0 107 91 109q105 2 104 -107l-2 -460q4 1 36 1q304 6 423 -140q216 -266 27 -642q-68 -142 -309 -168q-167 -21 -242 -11q-19 -5 -42 -5zM308 199q59 -3 97 -4q189 0 228 90q91 135 22 331q-46 177 -345 135z" />
    <glyph glyph-name="afii10047" unicode="&#x42d;" horiz-adv-x="1069" 
d="M560 1242q61 -62 108 -184q37 -96 50 -240l-334 21q-73 4 -79 -89q-6 -94 71 -99l347 -26q-9 -179 -64 -303q-48 -113 -130 -118q-115 -8 -178 53q-129 89 -185 78q-97 -18 -82 -150q8 -74 201 -151q117 -64 235 -58q153 7 288 194.5t135 489.5q0 361 -134 547
q-161 270 -300 304q-133 32 -273 -50q-127 -64 -131 -120q-4 -71 35 -108q71 -64 146 -14q59 46 116 66q85 30 158 -43z" />
    <glyph glyph-name="afii10048" unicode="&#x42e;" horiz-adv-x="1700" 
d="M1116 1512q461 -7 460 -633q76 -404 -158 -694q-133 -248 -333 -248q-203 0 -362 233q-144 159 -144 403q0 30 1 59h-273l-8 -610q-2 -109 -110 -107q-90 2 -87 109l33 1451q2 91 94 93q98 0 97 -99l-9 -615h292q39 228 144 420q133 242 363 238zM1123 1313
q-144 15 -247 -144q-156 -234 -87 -594q0 -182 71 -297q83 -135 225 -135q137 0 215 147q148 265 75 588q6 408 -252 435z" />
    <glyph glyph-name="afii10049" unicode="&#x42f;" horiz-adv-x="1025" 
d="M154 0q-131 73 -15 186l356 438q-103 40 -146 117q-214 261 -103.5 514.5t332.5 305.5q101 24 172 8q18 5 41 5q91 -2 93 -93l28 -1451q2 -107 -88 -109q-108 -2 -110 107l-7 561q-16 -4 -35 -2l-22 2l-316 -514q-108 -115 -180 -75zM696 1347q-42 5 -89 10
q-134 16 -208 -182q-42 -112 17 -254q71 -173 288 -135z" />
    <glyph glyph-name="afii10065" unicode="&#x430;" horiz-adv-x="940" 
d="M573 45q-159 -105 -214 -105q-171 -2 -257 48q-87 50 -114 184q-17 80 -15 145q19 135 63 195q97 132 288 183q92 24 162 -9q4 53 8 107l-40 62l-92 16q-21 0 -124 -40q-139 -54 -153 -9q-35 107 35 143q85 43 184 64q235 51 302 -50l48 -80l22 -124l-10 -154
q-11 -91 24 -262q25 -126 52 -252q42 -78 34 -121.5t-77 -50.5q-107 -16 -126 110zM343 117q72 -3 133 62q6 7 20 25q17 21 18 22q0 35 -34 242q6 25 -39 47l-14 7q-78 27 -166 -20q-38 -19 -59 -47q-67 -91 -64 -172q0 -7 2 -20q1 -14 2 -19q11 -87 70 -110q26 -11 74 -14
q43 -3 57 -3z" />
    <glyph glyph-name="afii10066" unicode="&#x431;" horiz-adv-x="873" 
d="M196 1171q109 324 288 313q105 -6 153 36q84 71 150 6q64 -64 15 -141q-49 -79 -153 -81q-177 -4 -227 -42q-103 -78 -140 -323q43 95 172 92q313 -4 313 -555q0 -527 -355 -531q-358 -4 -368 489q-9 372 152 737zM438 830q-190 0 -190 -363q0 -346 161 -346
q165 0 166 346q-1 363 -137 363z" />
    <glyph glyph-name="afii10067" unicode="&#x432;" horiz-adv-x="850" 
d="M264 875l-6 -278q178 -29 226 47q66 80 6 160q-34 58 -152 69zM189 1053q19 0 34 -4q55 13 139 -7q269 -51 306 -218q38 -170 -82 -274q-19 -16 -42 -30q44 -14 69 -32q195 -140 125 -326q-40 -105 -264 -166q-144 -55 -300 -36q-8 -1 -18 -1q-75 2 -72 91l27 926
q3 77 78 77zM307 433l-22 -2q-16 -1 -30 1l-6 -324q65 6 175 37q108 29 138 57q83 84 -53 177q-22 24 -181 50q-11 2 -21 4z" />
    <glyph glyph-name="afii10068" unicode="&#x433;" horiz-adv-x="832" 
d="M182 1046q25 3 43 -3q204 5 431 9q112 2 116 -88q4 -110 -108 -110l-382 2l38 -788q4 -110 -96 -114q-98 -2 -102 108l-34 860q-4 114 94 124z" />
    <glyph glyph-name="afii10069" unicode="&#x434;" horiz-adv-x="1329" 
d="M1043 1064q102 2 102 -94l-3 -776h21q121 0 123 -100q0 -13 -2 -24q3 -20 3 -45v-189q0 -99 -92 -97q-100 2 -101 88q-1 88 -2 175h-872v-166q0 -99 -92 -97q-100 2 -101 88l-2 220v14q-3 14 -3 30q2 104 105 104h1q182 232 178 730q0 43 13 71q3 39 56 51q17 6 39 7
q17 1 31 -2l561 7q16 5 37 5zM502 850q-15 -389 -163 -655l602 -1l3 662l-426 -6h-16z" />
    <glyph glyph-name="afii10070" unicode="&#x435;" horiz-adv-x="833" 
d="M195 361q3 -79 38 -126q72 -99 162 -98q127 2 194 80q63 74 110 84q48 10 68 -30q47 -93 -44 -174q-162 -144 -336 -140q-94 2 -214 120q-162 160 -162 317q0 285 99 446q125 203 253 215q140 13 269 -139q129 -153 125 -327q-4 -117 -111 -138zM211 561l385 65
q-15 118 -96 194q-76 72 -119 55q-89 -34 -134 -131q-36 -76 -36 -183z" />
    <glyph glyph-name="afii10072" unicode="&#x436;" horiz-adv-x="1153" 
d="M553 -19q-76 0 -76 73q-1 221 -3 442q-87 -6 -267 -459q-36 -68 -109 -46q-86 27 -46 120q142 333 295 456q-38 40 -56 103q-100 231 -160 229q-54 -1 -65 66q-11 62 114 71q119 9 174 -251q21 -98 119 -106q-1 159 -2 317q0 63 85 63q89 0 88 -63q-1 -158 -2 -317
q96 10 117 106q54 259 173 251q125 -9 114 -71q-11 -67 -65 -66q-59 2 -160 -229q-18 -64 -56 -104q153 -123 295 -455q40 -93 -46 -120q-72 -22 -109 46q-178 448 -264 460l-2 -443q-1 -73 -86 -73z" />
    <glyph glyph-name="afii10073" unicode="&#x437;" horiz-adv-x="773" 
d="M384 616q98 41 98 150q0 80 -88 105q-64 20 -105 -19q-114 -71 -144 -67q-60 7 -65 68q-6 86 85 137q119 65 218 58q132 -8 229 -134q87 -113 28 -254q-8 -22 -88 -108q50 -30 98 -100q58 -84 46 -236q-15 -190 -242 -252q-151 -63 -333 72q-82 58 -80 106q5 92 86 96
q45 2 120 -60q62 -61 161 -44q116 15 112 152q-5 138 -123 148q-74 8 -78 70q-7 78 65 112z" />
    <glyph glyph-name="afii10074" unicode="&#x438;" horiz-adv-x="1018" 
d="M86 83l-22 860q-2 101 90 104q106 3 108 -98l21 -654l373 700q15 24 37 36q21 15 56 16q106 3 108 -98l30 -860q4 -137 -96 -140q-104 -3 -108 134l-18 641l-394 -734q-35 -41 -103 -41q-79 1 -82 134z" />
    <glyph glyph-name="afii10075" unicode="&#x439;" horiz-adv-x="1018" 
d="M358 1316q147 -5 197 145q45 137 116 112q76 -27 36 -144q-90 -260 -352 -258q-244 2 -335 233q-60 151 29 168q90 17 111 -93q29 -157 198 -163zM86 83l-22 860q-2 101 90 104q106 3 108 -98l21 -654l373 700q15 24 37 36q21 15 56 16q106 3 108 -98l30 -860
q4 -137 -96 -140q-104 -3 -108 134l-18 641l-394 -734q-35 -41 -103 -41q-79 1 -82 134z" />
    <glyph glyph-name="afii10076" unicode="&#x43a;" horiz-adv-x="841" 
d="M177 -19q-76 0 -76 73l-6 942q0 63 85 63q87 0 86 -63l-1 -318q150 4 167 78q68 290 197 280q125 -9 114 -71q-14 -78 -48 -77q-75 2 -177 -234q-15 -53 -50 -91q126 -105 251 -341q105 -199 -8 -231q-91 -26 -157 105q-114 319 -227 389q-29 -7 -63 -11q0 -210 -1 -420
q-1 -73 -86 -73z" />
    <glyph glyph-name="afii10077" unicode="&#x43b;" horiz-adv-x="1106" 
d="M904 1062q100 -3 99 -108l4 -849q1 -143 -102 -141q-94 1 -95 144l-2 758h-296l3 -396q2 -497 -360 -506q-124 -3 -136 78q-18 116 150 120q156 4 153 311l-5 487q-1 105 108 102q10 0 18 -2q210 0 412 1q10 0 20 -1q14 2 29 2z" />
    <glyph glyph-name="afii10078" unicode="&#x43c;" horiz-adv-x="1125" 
d="M353 708l-146 -670q-34 -108 -123 -80q-81 25 -47 133l248 876q17 85 68 82q51 3 69 -82l128 -640l129 640q17 85 68 82q52 3 69 -82l248 -876q34 -108 -47 -133q-89 -28 -123 80l-147 670l-135 -670q-19 -91 -62 -85q-43 -5 -61 85z" />
    <glyph glyph-name="afii10079" unicode="&#x43d;" horiz-adv-x="903" 
d="M157 1101q99 -2 98 -98l-4 -391q174 4 349 8l3 387q1 96 98 94q103 -2 102 -98l-14 -966q-1 -94 -110 -90q-83 3 -83 98l2 384l-348 -11q-2 -190 -5 -381q-1 -94 -110 -90q-85 3 -84 98l8 962q1 96 98 94z" />
    <glyph glyph-name="afii10080" unicode="&#x43e;" horiz-adv-x="807" 
d="M399 845q-83 -3 -125 -91q-64 -136 -64 -299q0 -157 46 -235q48 -80 109 -80q70 0 117 80q94 157 95 281q1 350 -178 344zM388 1032q381 -3 378 -546q-1 -253 -117 -390q-101 -147 -300 -145q-106 1 -223 148q-112 142 -112 374q0 209 134 404q107 156 240 155z" />
    <glyph glyph-name="afii10081" unicode="&#x43f;" horiz-adv-x="1060" 
d="M240 1033h16h4h524h10h6q96 4 96 -92l4 -880q0 -106 -100 -106q-98 0 -98 106l-2 774h-364l4 -774q0 -106 -100 -106q-98 0 -98 106l-2 872q0 96 100 100z" />
    <glyph glyph-name="afii10082" unicode="&#x440;" horiz-adv-x="840" 
d="M143 -571q-104 0 -102 100l32 1447q2 109 109 107q52 -1 74 -58q32 39 150 37q114 -1 215 -143q130 -139 130 -325q1 -269 -117 -416q-107 -164 -234 -178q-111 -13 -155 54q0 1 -1 2l-8 -533q-2 -94 -93 -94zM261 808l-14 -518q64 -108 137 -100q96 10 145 123
q43 95 44 233q2 129 -48 225q-42 82 -124 99q-87 18 -140 -62z" />
    <glyph glyph-name="afii10083" unicode="&#x441;" horiz-adv-x="838" 
d="M620 211q88 59 144 -35q33 -56 -52 -131q-110 -94 -288 -93q-119 1 -207 120q-153 148 -153 371q0 246 109 403q110 191 240 206q76 9 153 -23q121 -41 161 -103q61 -96 -7 -145q-47 -34 -144 38q-92 87 -187 40q-53 -26 -96 -122q-49 -110 -51 -252q-3 -134 50 -245
q48 -99 132 -104q87 -5 196 75z" />
    <glyph glyph-name="afii10084" unicode="&#x442;" horiz-adv-x="885" 
d="M175 1056h521q130 0 132 -105q2 -98 -132 -99q-92 0 -158 -1q-1 -404 -2 -807q0 -109 -109 -107q-88 2 -88 109l4 804l-177 -1q-126 -1 -126 112q0 95 135 95z" />
    <glyph glyph-name="afii10085" unicode="&#x443;" horiz-adv-x="869" 
d="M782 1029q96 -41 45 -159l-448 -1317q-44 -160 -100 -124q-93 43 -24 202l128 460l-345 770q-64 118 24 165q93 50 156 -69l228 -637l189 631q51 118 147 78z" />
    <glyph glyph-name="afii10086" unicode="&#x444;" horiz-adv-x="1287" 
d="M644 -570q-104 0 -104 99q0 238 -1 476q-70 -43 -140 -35q-126 12 -217 152q-140 171 -128 447q9 201 164 345q85 117 187 113q69 -4 132 -61v10q0 109 107 107q90 -2 90 -109v-12q65 61 136 65q101 5 187 -113q155 -144 164 -345q12 -257 -128 -447q-81 -137 -217 -152
q-72 -8 -141 37v-484q0 -91 -91 -93zM734 740l1 -505q60 -88 132 -79q80 12 128 108q49 100 49 257q0 137 -49 217q-65 108 -148 97q-62 -8 -113 -95zM539 230l-2 517q-49 80 -109 88q-82 11 -148 -97q-48 -80 -49 -217q0 -156 49 -257q48 -96 129 -108q70 -9 130 74z" />
    <glyph glyph-name="afii10087" unicode="&#x445;" horiz-adv-x="975" 
d="M91 1027q89 72 166 -43l212 -315l209 315q77 118 166 43q65 -56 -2 -155l-250 -365l223 -360q76 -124 20 -174q-85 -75 -166 44l-201 293l-202 -293q-82 -119 -166 -44q-60 54 20 174l240 357l-267 368q-71 98 -2 155z" />
    <glyph glyph-name="afii10088" unicode="&#x446;" horiz-adv-x="1054" 
d="M752 1062q102 -3 102 -108v-793q82 -11 93 -50q3 -11 5 -21q6 -18 6 -42v-194q0 -107 -91 -105q-103 2 -104 104l-1 117h-549q-102 0 -96 111v5q-3 21 -3 46l-1 828q0 105 106 102q102 -3 102 -108v-787l326 -1q0 397 -1 794q0 105 106 102z" />
    <glyph glyph-name="afii10089" unicode="&#x447;" horiz-adv-x="1265" 
d="M1064 -51q-106 0 -103 99q1 156 4 312q-138 -54 -350 -56q-548 -6 -556 350l-8 303q-4 120 96 129q96 9 100 -111l8 -251q12 -241 294 -230q320 13 418 149q1 170 3 340q2 109 110 108q89 -2 87 -110l-9 -939q-2 -93 -94 -93z" />
    <glyph glyph-name="afii10090" unicode="&#x448;" horiz-adv-x="1273" 
d="M1062 1062q102 -3 102 -108v-825q0 -37 -7 -65q4 -94 -123 -94h-858q-102 0 -96 111v5q-3 21 -3 46l-1 828q0 105 106 102q102 -3 102 -108v-787h235l-1 793q0 105 106 102q102 -3 102 -108v-788h231q0 397 -1 794q0 105 106 102z" />
    <glyph glyph-name="afii10091" unicode="&#x449;" horiz-adv-x="1349" 
d="M182 1062q102 -3 102 -108v-787h235q0 397 -1 793q0 105 106 102q102 -3 102 -108v-788h231v794q0 105 105 102q102 -3 102 -108v-789q112 -7 126 -54q11 -40 7 -69v-266q0 -107 -91 -105q-104 2 -104 104q0 98 -1 195h-925q-102 0 -96 111v5q-3 21 -3 46l-1 828
q0 105 106 102z" />
    <glyph glyph-name="afii10092" unicode="&#x44a;" horiz-adv-x="1060" 
d="M544 165q76 -2 117 0q164 12 166 158q4 123 -85 164q-57 33 -192 9zM442 -13q-74 0 -73 77l18 841q-117 2 -285 5q-90 1 -88 88t96 86l340 -4h3q6 1 13 1q91 2 91 -89l-6 -325q41 8 66 8q264 2 342 -136q114 -194 28 -358q-78 -152 -261 -181q-91 -20 -249 -9
q-15 -4 -35 -4z" />
    <glyph glyph-name="afii10093" unicode="&#x44b;" horiz-adv-x="1287" 
d="M703 1045h386q99 0 101 -93q2 -84 -101 -85l-98 -1q-1 -347 -3 -693h101q99 0 101 -93q2 -84 -101 -85l-392 -3q-60 -1 -60 90t66 91h88q2 346 5 692l-99 -1q-60 -1 -60 90t66 91zM161 -13q-75 0 -73 77l20 926q2 89 77 91q92 2 91 -89l-5 -325q40 8 66 8q227 2 277 -136
q73 -194 17 -358q-49 -152 -185 -181q-91 -20 -250 -9q-15 -4 -35 -4zM263 165q77 -2 118 0q147 12 148 158q3 123 -68 164q-56 33 -191 9z" />
    <glyph glyph-name="afii10094" unicode="&#x44c;" horiz-adv-x="841" 
d="M161 -13q-75 0 -73 77l20 926q2 89 77 91q92 2 91 -89l-5 -325q40 8 66 8q264 2 342 -136q114 -194 28 -358q-78 -152 -261 -181q-91 -20 -250 -9q-15 -4 -35 -4zM263 165q77 -2 118 0q164 12 166 158q4 123 -86 164q-56 33 -191 9z" />
    </font>
</defs>
</svg>
